<?xml version="1.0" encoding="UTF-8" standalone="no"?>
<!DOCTYPE svg PUBLIC "-//W3C//DTD SVG 1.1//EN"
 "http://www.w3.org/Graphics/SVG/1.1/DTD/svg11.dtd">
<!-- Generated by graphviz version 2.50.0 (0)
 -->
<!-- Pages: 1 -->
<svg width="530pt" height="1882pt"
 viewBox="0.00 0.00 530.00 1882.00" xmlns="http://www.w3.org/2000/svg" xmlns:xlink="http://www.w3.org/1999/xlink">
<g id="graph0" class="graph" transform="scale(1 1) rotate(0) translate(4 1878)">
<polygon fill="white" stroke="transparent" points="-4,4 -4,-1878 526,-1878 526,4 -4,4"/>
<g id="clust1" class="cluster">
<title>cluster_KDummyRandom</title>
<polygon fill="#a0a0a0" fill-opacity="0.125490" stroke="black" stroke-width="2" points="56.5,-8 56.5,-80 314.5,-80 314.5,-8 56.5,-8"/>
<text text-anchor="middle" x="185.5" y="-67.2" font-family="sans-serif,bold" font-size="11.00">KDummyRandom</text>
</g>
<g id="clust2" class="cluster">
<title>cluster_KROOTWindow</title>
<polygon fill="#a0a0a0" fill-opacity="0.125490" stroke="black" stroke-width="2" points="44,-88 44,-412 490,-412 490,-88 44,-88"/>
<text text-anchor="middle" x="267" y="-399.2" font-family="sans-serif,bold" font-size="11.00">KROOTWindow</text>
</g>
<g id="clust4" class="cluster">
<title>cluster_KROOTPad</title>
<polygon fill="#a0a0a0" fill-opacity="0.125490" stroke="black" stroke-width="2" points="407,-96 407,-384 482,-384 482,-96 407,-96"/>
<text text-anchor="middle" x="444.5" y="-371.2" font-family="sans-serif,bold" font-size="11.00">KROOTPad</text>
</g>
<g id="clust5" class="cluster">
<title>cluster_KMessageTable</title>
<polygon fill="#a0a0a0" fill-opacity="0.125490" stroke="black" stroke-width="2" points="52.5,-420 52.5,-870 514,-870 514,-420 52.5,-420"/>
<text text-anchor="middle" x="283.25" y="-857.2" font-family="sans-serif,bold" font-size="11.00">KMessageTable</text>
</g>
<g id="clust7" class="cluster">
<title>cluster_KMessageData</title>
<polygon fill="#a0a0a0" fill-opacity="0.125490" stroke="black" stroke-width="2" points="382,-446 382,-842 506,-842 506,-446 382,-446"/>
<text text-anchor="middle" x="444" y="-829.2" font-family="sans-serif,bold" font-size="11.00">KMessageData</text>
</g>
<g id="clust8" class="cluster">
<title>cluster_KApplicationRunner</title>
<polygon fill="#a0a0a0" fill-opacity="0.125490" stroke="black" stroke-width="2" points="60.5,-878 60.5,-1004 513,-1004 513,-878 60.5,-878"/>
<text text-anchor="middle" x="286.75" y="-991.2" font-family="sans-serif,bold" font-size="11.00">KApplicationRunner</text>
</g>
<g id="clust10" class="cluster">
<title>cluster_KNamedReference</title>
<polygon fill="#a0a0a0" fill-opacity="0.125490" stroke="black" stroke-width="2" points="384,-904 384,-976 505,-976 505,-904 384,-904"/>
<text text-anchor="middle" x="444.5" y="-963.2" font-family="sans-serif,bold" font-size="11.00">KNamedReference</text>
</g>
<g id="clust11" class="cluster">
<title>cluster_KVTKWindow</title>
<polygon fill="#a0a0a0" fill-opacity="0.125490" stroke="black" stroke-width="2" points="46.5,-1012 46.5,-1732 356,-1732 356,-1012 46.5,-1012"/>
<text text-anchor="middle" x="201.25" y="-1719.2" font-family="sans-serif,bold" font-size="11.00">KVTKWindow</text>
</g>
<g id="clust12" class="cluster">
<title>cluster_KommonNamedRandomGenerator</title>
<polygon fill="#a0a0a0" fill-opacity="0.125490" stroke="black" stroke-width="2" points="8,-1740 8,-1866 314.5,-1866 314.5,-1740 8,-1740"/>
<text text-anchor="middle" x="161.25" y="-1853.2" font-family="sans-serif,bold" font-size="11.00">KommonNamedRandomGenerator</text>
</g>
<!-- KDummyRandom -->
<g id="node1" class="node">
<title>KDummyRandom</title>
<polygon fill="#ff7c00" fill-opacity="0.627451" stroke="black" points="126.5,-52 64.5,-52 64.5,-16 126.5,-16 126.5,-52"/>
<text text-anchor="middle" x="95.5" y="-31.2" font-family="sans-serif,bold" font-size="11.00">Random</text>
</g>
<!-- KDummyRandom__Seed -->
<g id="node2" class="node">
<title>KDummyRandom__Seed</title>
<polygon fill="#f0f0f0" fill-opacity="0.627451" stroke="black" points="306.5,-52 252.5,-52 252.5,-16 306.5,-16 306.5,-52"/>
<text text-anchor="middle" x="279.5" y="-31.5" font-family="sans-serif" font-size="10.00">Seed</text>
</g>
<!-- KDummyRandom&#45;&gt;KDummyRandom__Seed -->
<g id="edge1" class="edge">
<title>KDummyRandom&#45;&gt;KDummyRandom__Seed</title>
<path fill="none" stroke="black" d="M126.55,-34C158.17,-34 207.94,-34 241.84,-34"/>
<polygon fill="black" stroke="black" points="242.25,-37.5 252.25,-34 242.25,-30.5 242.25,-37.5"/>
</g>
<!-- KROOTWindow -->
<g id="node3" class="node">
<title>KROOTWindow</title>
<polygon fill="#ff7c00" fill-opacity="0.627451" stroke="black" points="139,-240 52,-240 52,-204 139,-204 139,-240"/>
<text text-anchor="middle" x="95.5" y="-219.2" font-family="sans-serif,bold" font-size="11.00">root_window</text>
</g>
<!-- KROOTWindow__name -->
<g id="node4" class="node">
<title>KROOTWindow__name</title>
<polygon fill="#f0f0f0" fill-opacity="0.627451" stroke="black" points="306.5,-132 252.5,-132 252.5,-96 306.5,-96 306.5,-132"/>
<text text-anchor="middle" x="279.5" y="-111.5" font-family="sans-serif" font-size="10.00">name</text>
</g>
<!-- KROOTWindow&#45;&gt;KROOTWindow__name -->
<g id="edge2" class="edge">
<title>KROOTWindow&#45;&gt;KROOTWindow__name</title>
<path fill="none" stroke="black" d="M118.71,-203.89C141.06,-186.26 176.99,-159.5 211,-141 220.91,-135.61 232.14,-130.69 242.55,-126.57"/>
<polygon fill="black" stroke="black" points="244.12,-129.72 252.21,-122.88 241.62,-123.18 244.12,-129.72"/>
</g>
<!-- KROOTWindow__active -->
<g id="node5" class="node">
<title>KROOTWindow__active</title>
<polygon fill="#f0f0f0" fill-opacity="0.627451" stroke="black" points="306.5,-186 252.5,-186 252.5,-150 306.5,-150 306.5,-186"/>
<text text-anchor="middle" x="279.5" y="-165.5" font-family="sans-serif" font-size="10.00">active</text>
</g>
<!-- KROOTWindow&#45;&gt;KROOTWindow__active -->
<g id="edge3" class="edge">
<title>KROOTWindow&#45;&gt;KROOTWindow__active</title>
<path fill="none" stroke="black" d="M139.17,-209.34C170.56,-200.03 212.76,-187.5 242.47,-178.69"/>
<polygon fill="black" stroke="black" points="243.82,-181.94 252.41,-175.74 241.83,-175.23 243.82,-181.94"/>
</g>
<!-- KROOTWindow__write_enabled -->
<g id="node6" class="node">
<title>KROOTWindow__write_enabled</title>
<polygon fill="#f0f0f0" fill-opacity="0.627451" stroke="black" points="321,-240 238,-240 238,-204 321,-204 321,-240"/>
<text text-anchor="middle" x="279.5" y="-219.5" font-family="sans-serif" font-size="10.00">write_enabled</text>
</g>
<!-- KROOTWindow&#45;&gt;KROOTWindow__write_enabled -->
<g id="edge4" class="edge">
<title>KROOTWindow&#45;&gt;KROOTWindow__write_enabled</title>
<path fill="none" stroke="black" d="M139.17,-222C165.63,-222 199.77,-222 227.63,-222"/>
<polygon fill="black" stroke="black" points="227.97,-225.5 237.97,-222 227.97,-218.5 227.97,-225.5"/>
</g>
<!-- KROOTWindow__path -->
<g id="node7" class="node">
<title>KROOTWindow__path</title>
<polygon fill="#f0f0f0" fill-opacity="0.627451" stroke="black" points="306.5,-294 252.5,-294 252.5,-258 306.5,-258 306.5,-294"/>
<text text-anchor="middle" x="279.5" y="-273.5" font-family="sans-serif" font-size="10.00">path</text>
</g>
<!-- KROOTWindow&#45;&gt;KROOTWindow__path -->
<g id="edge5" class="edge">
<title>KROOTWindow&#45;&gt;KROOTWindow__path</title>
<path fill="none" stroke="black" d="M139.17,-234.66C170.56,-243.97 212.76,-256.5 242.47,-265.31"/>
<polygon fill="black" stroke="black" points="241.83,-268.77 252.41,-268.26 243.82,-262.06 241.83,-268.77"/>
</g>
<!-- KROOTPad -->
<g id="node8" class="node">
<title>KROOTPad</title>
<polygon fill="#ff7c00" fill-opacity="0.627451" stroke="black" points="311.5,-348 247.5,-348 247.5,-312 311.5,-312 311.5,-348"/>
<text text-anchor="middle" x="279.5" y="-327.2" font-family="sans-serif,bold" font-size="11.00">root_pad</text>
</g>
<!-- KROOTWindow&#45;&gt;KROOTPad -->
<g id="edge6" class="edge">
<title>KROOTWindow&#45;&gt;KROOTPad</title>
<path fill="none" stroke="black" d="M118.71,-240.11C141.06,-257.74 176.99,-284.5 211,-303 219.39,-307.56 228.71,-311.78 237.69,-315.47"/>
<polygon fill="black" stroke="black" points="236.64,-318.82 247.23,-319.25 239.22,-312.31 236.64,-318.82"/>
</g>
<!-- KROOTPad__name -->
<g id="node9" class="node">
<title>KROOTPad__name</title>
<polygon fill="#f0f0f0" fill-opacity="0.627451" stroke="black" points="471,-356 417,-356 417,-320 471,-320 471,-356"/>
<text text-anchor="middle" x="444" y="-335.5" font-family="sans-serif" font-size="10.00">name</text>
</g>
<!-- KROOTPad&#45;&gt;KROOTPad__name -->
<g id="edge7" class="edge">
<title>KROOTPad&#45;&gt;KROOTPad__name</title>
<path fill="none" stroke="black" d="M311.83,-331.54C338.9,-332.88 378.04,-334.8 406.51,-336.2"/>
<polygon fill="black" stroke="black" points="406.7,-339.72 416.86,-336.71 407.04,-332.73 406.7,-339.72"/>
</g>
<!-- KROOTPad__xlow -->
<g id="node10" class="node">
<title>KROOTPad__xlow</title>
<polygon fill="#f0f0f0" fill-opacity="0.627451" stroke="black" points="471,-302 417,-302 417,-266 471,-266 471,-302"/>
<text text-anchor="middle" x="444" y="-281.5" font-family="sans-serif" font-size="10.00">xlow</text>
</g>
<!-- KROOTPad&#45;&gt;KROOTPad__xlow -->
<g id="edge8" class="edge">
<title>KROOTPad&#45;&gt;KROOTPad__xlow</title>
<path fill="none" stroke="black" d="M311.83,-321.13C339.02,-313.43 378.38,-302.29 406.89,-294.22"/>
<polygon fill="black" stroke="black" points="408.19,-297.49 416.86,-291.4 406.28,-290.76 408.19,-297.49"/>
</g>
<!-- KROOTPad__ylow -->
<g id="node11" class="node">
<title>KROOTPad__ylow</title>
<polygon fill="#f0f0f0" fill-opacity="0.627451" stroke="black" points="471,-248 417,-248 417,-212 471,-212 471,-248"/>
<text text-anchor="middle" x="444" y="-227.5" font-family="sans-serif" font-size="10.00">ylow</text>
</g>
<!-- KROOTPad&#45;&gt;KROOTPad__ylow -->
<g id="edge9" class="edge">
<title>KROOTPad&#45;&gt;KROOTPad__ylow</title>
<path fill="none" stroke="black" d="M311.71,-324.15C326.41,-320.14 343.44,-313.58 356,-303 373.96,-287.87 364.6,-272.77 382,-257 389.25,-250.43 398.35,-245.26 407.3,-241.27"/>
<polygon fill="black" stroke="black" points="408.89,-244.4 416.85,-237.41 406.27,-237.91 408.89,-244.4"/>
</g>
<!-- KROOTPad__xup -->
<g id="node12" class="node">
<title>KROOTPad__xup</title>
<polygon fill="#f0f0f0" fill-opacity="0.627451" stroke="black" points="471,-194 417,-194 417,-158 471,-158 471,-194"/>
<text text-anchor="middle" x="444" y="-173.5" font-family="sans-serif" font-size="10.00">xup</text>
</g>
<!-- KROOTPad&#45;&gt;KROOTPad__xup -->
<g id="edge10" class="edge">
<title>KROOTPad&#45;&gt;KROOTPad__xup</title>
<path fill="none" stroke="black" d="M311.86,-325.76C327.14,-322.14 344.63,-315.43 356,-303 386.99,-269.11 352.27,-238 382,-203 388.69,-195.12 398.13,-189.46 407.59,-185.42"/>
<polygon fill="black" stroke="black" points="408.83,-188.69 416.95,-181.9 406.36,-182.14 408.83,-188.69"/>
</g>
<!-- KROOTPad__yup -->
<g id="node13" class="node">
<title>KROOTPad__yup</title>
<polygon fill="#f0f0f0" fill-opacity="0.627451" stroke="black" points="471,-140 417,-140 417,-104 471,-104 471,-140"/>
<text text-anchor="middle" x="444" y="-119.5" font-family="sans-serif" font-size="10.00">yup</text>
</g>
<!-- KROOTPad&#45;&gt;KROOTPad__yup -->
<g id="edge11" class="edge">
<title>KROOTPad&#45;&gt;KROOTPad__yup</title>
<path fill="none" stroke="black" d="M311.56,-326.34C327.15,-322.87 345,-316.13 356,-303 400.57,-249.79 339.4,-203.81 382,-149 388.4,-140.77 397.83,-134.99 407.39,-130.95"/>
<polygon fill="black" stroke="black" points="408.68,-134.21 416.87,-127.47 406.27,-127.63 408.68,-134.21"/>
</g>
<!-- KMessageTable -->
<g id="node14" class="node">
<title>KMessageTable</title>
<polygon fill="#ff7c00" fill-opacity="0.627451" stroke="black" points="130.5,-653 60.5,-653 60.5,-617 130.5,-617 130.5,-653"/>
<text text-anchor="middle" x="95.5" y="-632.2" font-family="sans-serif,bold" font-size="11.00">messages</text>
</g>
<!-- KMessageTable__terminal -->
<g id="node15" class="node">
<title>KMessageTable__terminal</title>
<polygon fill="#f0f0f0" fill-opacity="0.627451" stroke="black" points="307.5,-464 251.5,-464 251.5,-428 307.5,-428 307.5,-464"/>
<text text-anchor="middle" x="279.5" y="-443.5" font-family="sans-serif" font-size="10.00">terminal</text>
</g>
<!-- KMessageTable&#45;&gt;KMessageTable__terminal -->
<g id="edge12" class="edge">
<title>KMessageTable&#45;&gt;KMessageTable__terminal</title>
<path fill="none" stroke="black" d="M104.91,-616.85C121.04,-583.87 159.36,-513.75 211,-473 220.03,-465.88 231.18,-460.4 241.8,-456.31"/>
<polygon fill="black" stroke="black" points="243.07,-459.57 251.33,-452.93 240.73,-452.97 243.07,-459.57"/>
</g>
<!-- KMessageTable__log -->
<g id="node16" class="node">
<title>KMessageTable__log</title>
<polygon fill="#f0f0f0" fill-opacity="0.627451" stroke="black" points="306.5,-518 252.5,-518 252.5,-482 306.5,-482 306.5,-518"/>
<text text-anchor="middle" x="279.5" y="-497.5" font-family="sans-serif" font-size="10.00">log</text>
</g>
<!-- KMessageTable&#45;&gt;KMessageTable__log -->
<g id="edge13" class="edge">
<title>KMessageTable&#45;&gt;KMessageTable__log</title>
<path fill="none" stroke="black" d="M111.88,-616.73C132.43,-593.29 170.93,-552.59 211,-527 220.77,-520.76 232.23,-515.52 242.89,-511.37"/>
<polygon fill="black" stroke="black" points="244.23,-514.61 252.4,-507.86 241.8,-508.04 244.23,-514.61"/>
</g>
<!-- KMessageTable__format -->
<g id="node17" class="node">
<title>KMessageTable__format</title>
<polygon fill="#f0f0f0" fill-opacity="0.627451" stroke="black" points="306.5,-572 252.5,-572 252.5,-536 306.5,-536 306.5,-572"/>
<text text-anchor="middle" x="279.5" y="-551.5" font-family="sans-serif" font-size="10.00">format</text>
</g>
<!-- KMessageTable&#45;&gt;KMessageTable__format -->
<g id="edge14" class="edge">
<title>KMessageTable&#45;&gt;KMessageTable__format</title>
<path fill="none" stroke="black" d="M130.57,-618.27C153.22,-607.32 183.69,-592.89 211,-581 221.26,-576.53 232.51,-571.92 242.83,-567.8"/>
<polygon fill="black" stroke="black" points="244.37,-570.96 252.39,-564.02 241.8,-564.45 244.37,-570.96"/>
</g>
<!-- KMessageTable__precision -->
<g id="node18" class="node">
<title>KMessageTable__precision</title>
<polygon fill="#f0f0f0" fill-opacity="0.627451" stroke="black" points="308.5,-626 250.5,-626 250.5,-590 308.5,-590 308.5,-626"/>
<text text-anchor="middle" x="279.5" y="-605.5" font-family="sans-serif" font-size="10.00">precision</text>
</g>
<!-- KMessageTable&#45;&gt;KMessageTable__precision -->
<g id="edge15" class="edge">
<title>KMessageTable&#45;&gt;KMessageTable__precision</title>
<path fill="none" stroke="black" d="M130.73,-629.92C161.95,-625.29 208.01,-618.46 240.39,-613.65"/>
<polygon fill="black" stroke="black" points="241.01,-617.1 250.39,-612.17 239.98,-610.18 241.01,-617.1"/>
</g>
<!-- KMessageTable__shutdown_message -->
<g id="node19" class="node">
<title>KMessageTable__shutdown_message</title>
<polygon fill="#f0f0f0" fill-opacity="0.627451" stroke="black" points="333.5,-680 225.5,-680 225.5,-644 333.5,-644 333.5,-680"/>
<text text-anchor="middle" x="279.5" y="-659.5" font-family="sans-serif" font-size="10.00">shutdown_message</text>
</g>
<!-- KMessageTable&#45;&gt;KMessageTable__shutdown_message -->
<g id="edge16" class="edge">
<title>KMessageTable&#45;&gt;KMessageTable__shutdown_message</title>
<path fill="none" stroke="black" d="M130.73,-640.08C154.49,-643.6 186.83,-648.4 215.2,-652.61"/>
<polygon fill="black" stroke="black" points="215.05,-656.12 225.45,-654.13 216.07,-649.2 215.05,-656.12"/>
</g>
<!-- KMessageTable__parser_context -->
<g id="node20" class="node">
<title>KMessageTable__parser_context</title>
<polygon fill="#f0f0f0" fill-opacity="0.627451" stroke="black" points="322.5,-734 236.5,-734 236.5,-698 322.5,-698 322.5,-734"/>
<text text-anchor="middle" x="279.5" y="-713.5" font-family="sans-serif" font-size="10.00">parser_context</text>
</g>
<!-- KMessageTable&#45;&gt;KMessageTable__parser_context -->
<g id="edge17" class="edge">
<title>KMessageTable&#45;&gt;KMessageTable__parser_context</title>
<path fill="none" stroke="black" d="M130.57,-651.73C153.22,-662.68 183.69,-677.11 211,-689 216.06,-691.2 221.37,-693.44 226.68,-695.64"/>
<polygon fill="black" stroke="black" points="225.63,-698.99 236.21,-699.54 228.28,-692.51 225.63,-698.99"/>
</g>
<!-- KMessageData -->
<g id="node21" class="node">
<title>KMessageData</title>
<polygon fill="#ff7c00" fill-opacity="0.627451" stroke="black" points="312,-788 247,-788 247,-752 312,-752 312,-788"/>
<text text-anchor="middle" x="279.5" y="-767.2" font-family="sans-serif,bold" font-size="11.00">message</text>
</g>
<!-- KMessageTable&#45;&gt;KMessageData -->
<g id="edge18" class="edge">
<title>KMessageTable&#45;&gt;KMessageData</title>
<path fill="none" stroke="black" d="M111.88,-653.27C132.43,-676.71 170.93,-717.41 211,-743 219.05,-748.14 228.23,-752.6 237.18,-756.33"/>
<polygon fill="black" stroke="black" points="236.14,-759.68 246.73,-760.09 238.71,-753.17 236.14,-759.68"/>
</g>
<!-- KTextFile -->
<g id="node22" class="node">
<title>KTextFile</title>
<polygon fill="#ff7c00" fill-opacity="0.627451" stroke="black" points="306.5,-842 252.5,-842 252.5,-806 306.5,-806 306.5,-842"/>
<text text-anchor="middle" x="279.5" y="-821.2" font-family="sans-serif,bold" font-size="11.00">file</text>
</g>
<!-- KMessageTable&#45;&gt;KTextFile -->
<g id="edge26" class="edge">
<title>KMessageTable&#45;&gt;KTextFile</title>
<path fill="none" stroke="black" d="M104.91,-653.15C121.04,-686.13 159.36,-756.25 211,-797 220.26,-804.3 231.74,-809.87 242.6,-814"/>
<polygon fill="black" stroke="black" points="241.72,-817.4 252.31,-817.39 244.03,-810.79 241.72,-817.4"/>
</g>
<!-- KMessageData__key -->
<g id="node23" class="node">
<title>KMessageData__key</title>
<polygon fill="#f0f0f0" fill-opacity="0.627451" stroke="black" points="471,-814 417,-814 417,-778 471,-778 471,-814"/>
<text text-anchor="middle" x="444" y="-793.5" font-family="sans-serif" font-size="10.00">key</text>
</g>
<!-- KMessageData&#45;&gt;KMessageData__key -->
<g id="edge19" class="edge">
<title>KMessageData&#45;&gt;KMessageData__key</title>
<path fill="none" stroke="black" d="M312.22,-775.07C339.45,-779.43 378.68,-785.71 407.06,-790.25"/>
<polygon fill="black" stroke="black" points="406.56,-793.71 416.99,-791.84 407.66,-786.8 406.56,-793.71"/>
</g>
<!-- KMessageData__terminal -->
<g id="node24" class="node">
<title>KMessageData__terminal</title>
<polygon fill="#f0f0f0" fill-opacity="0.627451" stroke="black" points="472,-760 416,-760 416,-724 472,-724 472,-760"/>
<text text-anchor="middle" x="444" y="-739.5" font-family="sans-serif" font-size="10.00">terminal</text>
</g>
<!-- KMessageData&#45;&gt;KMessageData__terminal -->
<g id="edge20" class="edge">
<title>KMessageData&#45;&gt;KMessageData__terminal</title>
<path fill="none" stroke="black" d="M312.22,-764.53C339.12,-759.9 377.73,-753.25 406.03,-748.37"/>
<polygon fill="black" stroke="black" points="406.68,-751.81 415.94,-746.66 405.5,-744.91 406.68,-751.81"/>
</g>
<!-- KMessageData__log -->
<g id="node25" class="node">
<title>KMessageData__log</title>
<polygon fill="#f0f0f0" fill-opacity="0.627451" stroke="black" points="471,-706 417,-706 417,-670 471,-670 471,-706"/>
<text text-anchor="middle" x="444" y="-685.5" font-family="sans-serif" font-size="10.00">log</text>
</g>
<!-- KMessageData&#45;&gt;KMessageData__log -->
<g id="edge21" class="edge">
<title>KMessageData&#45;&gt;KMessageData__log</title>
<path fill="none" stroke="black" d="M312.19,-762.36C326.33,-758.05 342.75,-751.74 356,-743 370.18,-733.65 368.17,-724.86 382,-715 389.76,-709.47 398.82,-704.7 407.56,-700.79"/>
<polygon fill="black" stroke="black" points="408.98,-703.98 416.83,-696.87 406.26,-697.54 408.98,-703.98"/>
</g>
<!-- KMessageData__format -->
<g id="node26" class="node">
<title>KMessageData__format</title>
<polygon fill="#f0f0f0" fill-opacity="0.627451" stroke="black" points="471,-652 417,-652 417,-616 471,-616 471,-652"/>
<text text-anchor="middle" x="444" y="-631.5" font-family="sans-serif" font-size="10.00">format</text>
</g>
<!-- KMessageData&#45;&gt;KMessageData__format -->
<g id="edge22" class="edge">
<title>KMessageData&#45;&gt;KMessageData__format</title>
<path fill="none" stroke="black" d="M312.35,-765.32C327.38,-761.6 344.5,-754.92 356,-743 382.54,-715.48 356.49,-689.48 382,-661 388.77,-653.45 398.04,-647.9 407.32,-643.87"/>
<polygon fill="black" stroke="black" points="408.8,-647.05 416.88,-640.21 406.29,-640.52 408.8,-647.05"/>
</g>
<!-- KMessageData__precision -->
<g id="node27" class="node">
<title>KMessageData__precision</title>
<polygon fill="#f0f0f0" fill-opacity="0.627451" stroke="black" points="473,-598 415,-598 415,-562 473,-562 473,-598"/>
<text text-anchor="middle" x="444" y="-577.5" font-family="sans-serif" font-size="10.00">precision</text>
</g>
<!-- KMessageData&#45;&gt;KMessageData__precision -->
<g id="edge23" class="edge">
<title>KMessageData&#45;&gt;KMessageData__precision</title>
<path fill="none" stroke="black" d="M312.2,-766.07C327.58,-762.53 345.04,-755.79 356,-743 396.03,-696.26 343.71,-655.18 382,-607 387.98,-599.48 396.49,-593.99 405.27,-590.02"/>
<polygon fill="black" stroke="black" points="406.76,-593.19 414.78,-586.27 404.2,-586.68 406.76,-593.19"/>
</g>
<!-- KMessageData__shutdown_message -->
<g id="node28" class="node">
<title>KMessageData__shutdown_message</title>
<polygon fill="#f0f0f0" fill-opacity="0.627451" stroke="black" points="498,-544 390,-544 390,-508 498,-508 498,-544"/>
<text text-anchor="middle" x="444" y="-523.5" font-family="sans-serif" font-size="10.00">shutdown_message</text>
</g>
<!-- KMessageData&#45;&gt;KMessageData__shutdown_message -->
<g id="edge24" class="edge">
<title>KMessageData&#45;&gt;KMessageData__shutdown_message</title>
<path fill="none" stroke="black" d="M312.11,-766.39C327.65,-762.94 345.3,-756.19 356,-743 409.7,-676.82 330.76,-621.11 382,-553 382.47,-552.38 382.96,-551.76 383.46,-551.17"/>
<polygon fill="black" stroke="black" points="385.99,-553.59 390.83,-544.17 381.17,-548.52 385.99,-553.59"/>
</g>
<!-- KMessageData__parser_context -->
<g id="node29" class="node">
<title>KMessageData__parser_context</title>
<polygon fill="#f0f0f0" fill-opacity="0.627451" stroke="black" points="487,-490 401,-490 401,-454 487,-454 487,-490"/>
<text text-anchor="middle" x="444" y="-469.5" font-family="sans-serif" font-size="10.00">parser_context</text>
</g>
<!-- KMessageData&#45;&gt;KMessageData__parser_context -->
<g id="edge25" class="edge">
<title>KMessageData&#45;&gt;KMessageData__parser_context</title>
<path fill="none" stroke="black" d="M312.27,-766.52C327.86,-763.1 345.5,-756.35 356,-743 423.45,-657.3 317.74,-587.11 382,-499 384.76,-495.21 388.17,-491.95 391.96,-489.14"/>
<polygon fill="black" stroke="black" points="394.11,-491.93 400.75,-483.67 390.41,-485.98 394.11,-491.93"/>
</g>
<!-- KApplicationRunner -->
<g id="node30" class="node">
<title>KApplicationRunner</title>
<polygon fill="#ff7c00" fill-opacity="0.627451" stroke="black" points="122.5,-949 68.5,-949 68.5,-913 122.5,-913 122.5,-949"/>
<text text-anchor="middle" x="95.5" y="-928.2" font-family="sans-serif,bold" font-size="11.00">run</text>
</g>
<!-- KApplicationRunner__name -->
<g id="node31" class="node">
<title>KApplicationRunner__name</title>
<polygon fill="#f0f0f0" fill-opacity="0.627451" stroke="black" points="306.5,-922 252.5,-922 252.5,-886 306.5,-886 306.5,-922"/>
<text text-anchor="middle" x="279.5" y="-901.5" font-family="sans-serif" font-size="10.00">name</text>
</g>
<!-- KApplicationRunner&#45;&gt;KApplicationRunner__name -->
<g id="edge27" class="edge">
<title>KApplicationRunner&#45;&gt;KApplicationRunner__name</title>
<path fill="none" stroke="black" d="M122.58,-927.13C154.07,-922.46 207.2,-914.58 242.56,-909.33"/>
<polygon fill="black" stroke="black" points="243.09,-912.79 252.47,-907.86 242.07,-905.87 243.09,-912.79"/>
</g>
<!-- KNamedReference -->
<g id="node32" class="node">
<title>KNamedReference</title>
<polygon fill="#ff7c00" fill-opacity="0.627451" stroke="black" points="306.5,-976 252.5,-976 252.5,-940 306.5,-940 306.5,-976"/>
<text text-anchor="middle" x="279.5" y="-955.2" font-family="sans-serif,bold" font-size="11.00">app</text>
</g>
<!-- KApplicationRunner&#45;&gt;KNamedReference -->
<g id="edge28" class="edge">
<title>KApplicationRunner&#45;&gt;KNamedReference</title>
<path fill="none" stroke="black" d="M122.58,-934.87C154.07,-939.54 207.2,-947.42 242.56,-952.67"/>
<polygon fill="black" stroke="black" points="242.07,-956.13 252.47,-954.14 243.09,-949.21 242.07,-956.13"/>
</g>
<!-- KNamedReference__Name -->
<g id="node33" class="node">
<title>KNamedReference__Name</title>
<polygon fill="#f0f0f0" fill-opacity="0.627451" stroke="black" points="471,-948 417,-948 417,-912 471,-912 471,-948"/>
<text text-anchor="middle" x="444" y="-927.5" font-family="sans-serif" font-size="10.00">Name</text>
</g>
<!-- KNamedReference&#45;&gt;KNamedReference__Name -->
<g id="edge29" class="edge">
<title>KNamedReference&#45;&gt;KNamedReference__Name</title>
<path fill="none" stroke="black" d="M306.61,-953.5C333.73,-948.83 376.39,-941.48 406.77,-936.24"/>
<polygon fill="black" stroke="black" points="407.7,-939.63 416.96,-934.49 406.51,-932.74 407.7,-939.63"/>
</g>
<!-- KVTKWindow -->
<g id="node34" class="node">
<title>KVTKWindow</title>
<polygon fill="#ff7c00" fill-opacity="0.627451" stroke="black" points="136.5,-1380 54.5,-1380 54.5,-1344 136.5,-1344 136.5,-1380"/>
<text text-anchor="middle" x="95.5" y="-1359.2" font-family="sans-serif,bold" font-size="11.00">vtk_window</text>
</g>
<!-- KVTKWindow__name -->
<g id="node35" class="node">
<title>KVTKWindow__name</title>
<polygon fill="#f0f0f0" fill-opacity="0.627451" stroke="black" points="306.5,-1056 252.5,-1056 252.5,-1020 306.5,-1020 306.5,-1056"/>
<text text-anchor="middle" x="279.5" y="-1035.5" font-family="sans-serif" font-size="10.00">name</text>
</g>
<!-- KVTKWindow&#45;&gt;KVTKWindow__name -->
<g id="edge30" class="edge">
<title>KVTKWindow&#45;&gt;KVTKWindow__name</title>
<path fill="none" stroke="black" d="M98.45,-1343.95C104.88,-1293.13 129.85,-1147.18 211,-1065 219.57,-1056.32 231.3,-1050.34 242.57,-1046.27"/>
<polygon fill="black" stroke="black" points="243.82,-1049.54 252.27,-1043.16 241.68,-1042.88 243.82,-1049.54"/>
</g>
<!-- KVTKWindow__enable_display -->
<g id="node36" class="node">
<title>KVTKWindow__enable_display</title>
<polygon fill="#f0f0f0" fill-opacity="0.627451" stroke="black" points="321.5,-1110 237.5,-1110 237.5,-1074 321.5,-1074 321.5,-1110"/>
<text text-anchor="middle" x="279.5" y="-1089.5" font-family="sans-serif" font-size="10.00">enable_display</text>
</g>
<!-- KVTKWindow&#45;&gt;KVTKWindow__enable_display -->
<g id="edge31" class="edge">
<title>KVTKWindow&#45;&gt;KVTKWindow__enable_display</title>
<path fill="none" stroke="black" d="M100.25,-1343.74C110.31,-1299.24 141.91,-1184.07 211,-1119 216,-1114.29 221.92,-1110.36 228.16,-1107.1"/>
<polygon fill="black" stroke="black" points="229.84,-1110.17 237.43,-1102.77 226.89,-1103.83 229.84,-1110.17"/>
</g>
<!-- KVTKWindow__enable_write -->
<g id="node37" class="node">
<title>KVTKWindow__enable_write</title>
<polygon fill="#f0f0f0" fill-opacity="0.627451" stroke="black" points="318,-1164 241,-1164 241,-1128 318,-1128 318,-1164"/>
<text text-anchor="middle" x="279.5" y="-1143.5" font-family="sans-serif" font-size="10.00">enable_write</text>
</g>
<!-- KVTKWindow&#45;&gt;KVTKWindow__enable_write -->
<g id="edge32" class="edge">
<title>KVTKWindow&#45;&gt;KVTKWindow__enable_write</title>
<path fill="none" stroke="black" d="M102.97,-1343.73C117,-1306.58 153.65,-1221.63 211,-1173 217.02,-1167.89 224.14,-1163.67 231.45,-1160.2"/>
<polygon fill="black" stroke="black" points="232.94,-1163.37 240.74,-1156.2 230.17,-1156.94 232.94,-1163.37"/>
</g>
<!-- KVTKWindow__enable_help -->
<g id="node38" class="node">
<title>KVTKWindow__enable_help</title>
<polygon fill="#f0f0f0" fill-opacity="0.627451" stroke="black" points="316,-1218 243,-1218 243,-1182 316,-1182 316,-1218"/>
<text text-anchor="middle" x="279.5" y="-1197.5" font-family="sans-serif" font-size="10.00">enable_help</text>
</g>
<!-- KVTKWindow&#45;&gt;KVTKWindow__enable_help -->
<g id="edge33" class="edge">
<title>KVTKWindow&#45;&gt;KVTKWindow__enable_help</title>
<path fill="none" stroke="black" d="M107.69,-1343.81C126.03,-1315.32 165.11,-1260.04 211,-1227 217.77,-1222.12 225.55,-1217.97 233.36,-1214.48"/>
<polygon fill="black" stroke="black" points="234.94,-1217.62 242.84,-1210.56 232.26,-1211.15 234.94,-1217.62"/>
</g>
<!-- KVTKWindow__enable_axis -->
<g id="node39" class="node">
<title>KVTKWindow__enable_axis</title>
<polygon fill="#f0f0f0" fill-opacity="0.627451" stroke="black" points="314.5,-1272 244.5,-1272 244.5,-1236 314.5,-1236 314.5,-1272"/>
<text text-anchor="middle" x="279.5" y="-1251.5" font-family="sans-serif" font-size="10.00">enable_axis</text>
</g>
<!-- KVTKWindow&#45;&gt;KVTKWindow__enable_axis -->
<g id="edge34" class="edge">
<title>KVTKWindow&#45;&gt;KVTKWindow__enable_axis</title>
<path fill="none" stroke="black" d="M118.71,-1343.89C141.06,-1326.26 176.99,-1299.5 211,-1281 218.57,-1276.88 226.91,-1273.04 235.06,-1269.62"/>
<polygon fill="black" stroke="black" points="236.53,-1272.8 244.49,-1265.81 233.9,-1266.31 236.53,-1272.8"/>
</g>
<!-- KVTKWindow__enable_data -->
<g id="node40" class="node">
<title>KVTKWindow__enable_data</title>
<polygon fill="#f0f0f0" fill-opacity="0.627451" stroke="black" points="316,-1326 243,-1326 243,-1290 316,-1290 316,-1326"/>
<text text-anchor="middle" x="279.5" y="-1305.5" font-family="sans-serif" font-size="10.00">enable_data</text>
</g>
<!-- KVTKWindow&#45;&gt;KVTKWindow__enable_data -->
<g id="edge35" class="edge">
<title>KVTKWindow&#45;&gt;KVTKWindow__enable_data</title>
<path fill="none" stroke="black" d="M136.89,-1350.02C165.4,-1341.56 203.63,-1330.22 233.18,-1321.45"/>
<polygon fill="black" stroke="black" points="234.25,-1324.78 242.84,-1318.58 232.26,-1318.07 234.25,-1324.78"/>
</g>
<!-- KVTKWindow__enable_parallel_projection -->
<g id="node41" class="node">
<title>KVTKWindow__enable_parallel_projection</title>
<polygon fill="#f0f0f0" fill-opacity="0.627451" stroke="black" points="348,-1380 211,-1380 211,-1344 348,-1344 348,-1380"/>
<text text-anchor="middle" x="279.5" y="-1359.5" font-family="sans-serif" font-size="10.00">enable_parallel_projection</text>
</g>
<!-- KVTKWindow&#45;&gt;KVTKWindow__enable_parallel_projection -->
<g id="edge36" class="edge">
<title>KVTKWindow&#45;&gt;KVTKWindow__enable_parallel_projection</title>
<path fill="none" stroke="black" d="M136.89,-1362C155.69,-1362 178.71,-1362 200.69,-1362"/>
<polygon fill="black" stroke="black" points="200.69,-1365.5 210.69,-1362 200.69,-1358.5 200.69,-1365.5"/>
</g>
<!-- KVTKWindow__frame_title -->
<g id="node42" class="node">
<title>KVTKWindow__frame_title</title>
<polygon fill="#f0f0f0" fill-opacity="0.627451" stroke="black" points="313,-1434 246,-1434 246,-1398 313,-1398 313,-1434"/>
<text text-anchor="middle" x="279.5" y="-1413.5" font-family="sans-serif" font-size="10.00">frame_title</text>
</g>
<!-- KVTKWindow&#45;&gt;KVTKWindow__frame_title -->
<g id="edge37" class="edge">
<title>KVTKWindow&#45;&gt;KVTKWindow__frame_title</title>
<path fill="none" stroke="black" d="M136.89,-1373.98C166.34,-1382.72 206.16,-1394.54 236.07,-1403.41"/>
<polygon fill="black" stroke="black" points="235.23,-1406.81 245.81,-1406.3 237.22,-1400.1 235.23,-1406.81"/>
</g>
<!-- KVTKWindow__frame_color_red -->
<g id="node43" class="node">
<title>KVTKWindow__frame_color_red</title>
<polygon fill="#f0f0f0" fill-opacity="0.627451" stroke="black" points="325.5,-1488 233.5,-1488 233.5,-1452 325.5,-1452 325.5,-1488"/>
<text text-anchor="middle" x="279.5" y="-1467.5" font-family="sans-serif" font-size="10.00">frame_color_red</text>
</g>
<!-- KVTKWindow&#45;&gt;KVTKWindow__frame_color_red -->
<g id="edge38" class="edge">
<title>KVTKWindow&#45;&gt;KVTKWindow__frame_color_red</title>
<path fill="none" stroke="black" d="M118.71,-1380.11C141.06,-1397.74 176.99,-1424.5 211,-1443 215.15,-1445.26 219.52,-1447.43 223.97,-1449.49"/>
<polygon fill="black" stroke="black" points="222.6,-1452.72 233.16,-1453.58 225.45,-1446.32 222.6,-1452.72"/>
</g>
<!-- KVTKWindow__frame_color_green -->
<g id="node44" class="node">
<title>KVTKWindow__frame_color_green</title>
<polygon fill="#f0f0f0" fill-opacity="0.627451" stroke="black" points="331.5,-1542 227.5,-1542 227.5,-1506 331.5,-1506 331.5,-1542"/>
<text text-anchor="middle" x="279.5" y="-1521.5" font-family="sans-serif" font-size="10.00">frame_color_green</text>
</g>
<!-- KVTKWindow&#45;&gt;KVTKWindow__frame_color_green -->
<g id="edge39" class="edge">
<title>KVTKWindow&#45;&gt;KVTKWindow__frame_color_green</title>
<path fill="none" stroke="black" d="M107.69,-1380.19C126.03,-1408.68 165.11,-1463.96 211,-1497 213.35,-1498.69 215.83,-1500.3 218.38,-1501.82"/>
<polygon fill="black" stroke="black" points="216.86,-1504.98 227.32,-1506.68 220.2,-1498.83 216.86,-1504.98"/>
</g>
<!-- KVTKWindow__frame_color_blue -->
<g id="node45" class="node">
<title>KVTKWindow__frame_color_blue</title>
<polygon fill="#f0f0f0" fill-opacity="0.627451" stroke="black" points="328,-1596 231,-1596 231,-1560 328,-1560 328,-1596"/>
<text text-anchor="middle" x="279.5" y="-1575.5" font-family="sans-serif" font-size="10.00">frame_color_blue</text>
</g>
<!-- KVTKWindow&#45;&gt;KVTKWindow__frame_color_blue -->
<g id="edge40" class="edge">
<title>KVTKWindow&#45;&gt;KVTKWindow__frame_color_blue</title>
<path fill="none" stroke="black" d="M102.97,-1380.27C117,-1417.42 153.65,-1502.37 211,-1551 214.39,-1553.88 218.14,-1556.48 222.06,-1558.82"/>
<polygon fill="black" stroke="black" points="220.42,-1561.91 230.89,-1563.54 223.72,-1555.74 220.42,-1561.91"/>
</g>
<!-- KVTKWindow__eye_angle -->
<g id="node46" class="node">
<title>KVTKWindow__eye_angle</title>
<polygon fill="#f0f0f0" fill-opacity="0.627451" stroke="black" points="311,-1650 248,-1650 248,-1614 311,-1614 311,-1650"/>
<text text-anchor="middle" x="279.5" y="-1629.5" font-family="sans-serif" font-size="10.00">eye_angle</text>
</g>
<!-- KVTKWindow&#45;&gt;KVTKWindow__eye_angle -->
<g id="edge41" class="edge">
<title>KVTKWindow&#45;&gt;KVTKWindow__eye_angle</title>
<path fill="none" stroke="black" d="M100.25,-1380.26C110.31,-1424.76 141.91,-1539.93 211,-1605 218.65,-1612.2 228.46,-1617.58 238.22,-1621.55"/>
<polygon fill="black" stroke="black" points="237.29,-1624.94 247.88,-1625.07 239.68,-1618.36 237.29,-1624.94"/>
</g>
<!-- KVTKWindow__view_angle -->
<g id="node47" class="node">
<title>KVTKWindow__view_angle</title>
<polygon fill="#f0f0f0" fill-opacity="0.627451" stroke="black" points="313,-1704 246,-1704 246,-1668 313,-1668 313,-1704"/>
<text text-anchor="middle" x="279.5" y="-1683.5" font-family="sans-serif" font-size="10.00">view_angle</text>
</g>
<!-- KVTKWindow&#45;&gt;KVTKWindow__view_angle -->
<g id="edge42" class="edge">
<title>KVTKWindow&#45;&gt;KVTKWindow__view_angle</title>
<path fill="none" stroke="black" d="M98.45,-1380.05C104.88,-1430.87 129.85,-1576.82 211,-1659 217.98,-1666.07 227.04,-1671.34 236.25,-1675.25"/>
<polygon fill="black" stroke="black" points="235.23,-1678.61 245.82,-1678.86 237.69,-1672.06 235.23,-1678.61"/>
</g>
<!-- KommonNamedRandomGenerator -->
<g id="node48" class="node">
<title>KommonNamedRandomGenerator</title>
<polygon fill="#ff7c00" fill-opacity="0.627451" stroke="black" points="175,-1811 16,-1811 16,-1775 175,-1775 175,-1811"/>
<text text-anchor="middle" x="95.5" y="-1790.2" font-family="sans-serif,bold" font-size="11.00">NamedRandomGenerator</text>
</g>
<!-- KommonNamedRandomGenerator__Name -->
<g id="node49" class="node">
<title>KommonNamedRandomGenerator__Name</title>
<polygon fill="#f0f0f0" fill-opacity="0.627451" stroke="black" points="306.5,-1784 252.5,-1784 252.5,-1748 306.5,-1748 306.5,-1784"/>
<text text-anchor="middle" x="279.5" y="-1763.5" font-family="sans-serif" font-size="10.00">Name</text>
</g>
<!-- KommonNamedRandomGenerator&#45;&gt;KommonNamedRandomGenerator__Name -->
<g id="edge43" class="edge">
<title>KommonNamedRandomGenerator&#45;&gt;KommonNamedRandomGenerator__Name</title>
<path fill="none" stroke="black" d="M175,-1781.35C198.38,-1777.89 222.88,-1774.25 242.17,-1771.39"/>
<polygon fill="black" stroke="black" points="242.94,-1774.81 252.31,-1769.88 241.91,-1767.89 242.94,-1774.81"/>
</g>
<!-- KommonNamedRandomGenerator__Seed -->
<g id="node50" class="node">
<title>KommonNamedRandomGenerator__Seed</title>
<polygon fill="#f0f0f0" fill-opacity="0.627451" stroke="black" points="306.5,-1838 252.5,-1838 252.5,-1802 306.5,-1802 306.5,-1838"/>
<text text-anchor="middle" x="279.5" y="-1817.5" font-family="sans-serif" font-size="10.00">Seed</text>
</g>
<!-- KommonNamedRandomGenerator&#45;&gt;KommonNamedRandomGenerator__Seed -->
<g id="edge44" class="edge">
<title>KommonNamedRandomGenerator&#45;&gt;KommonNamedRandomGenerator__Seed</title>
<path fill="none" stroke="black" d="M175,-1804.65C198.38,-1808.11 222.88,-1811.75 242.17,-1814.61"/>
<polygon fill="black" stroke="black" points="241.91,-1818.11 252.31,-1816.12 242.94,-1811.19 241.91,-1818.11"/>
</g>
</g>
</svg>
