<?xml version="1.0" encoding="UTF-8" standalone="no"?>
<!DOCTYPE svg PUBLIC "-//W3C//DTD SVG 1.1//EN"
 "http://www.w3.org/Graphics/SVG/1.1/DTD/svg11.dtd">
<!-- Generated by graphviz version 2.50.0 (0)
 -->
<!-- Pages: 1 -->
<svg width="530pt" height="1882pt"
 viewBox="0.00 0.00 530.00 1882.00" xmlns="http://www.w3.org/2000/svg" xmlns:xlink="http://www.w3.org/1999/xlink">
<g id="graph0" class="graph" transform="scale(1 1) rotate(0) translate(4 1878)">
<polygon fill="white" stroke="transparent" points="-4,4 -4,-1878 526,-1878 526,4 -4,4"/>
<g id="clust1" class="cluster">
<title>cluster_KommonNamedRandomGenerator</title>
<polygon fill="#a0a0a0" fill-opacity="0.125490" stroke="black" stroke-width="2" points="8,-8 8,-134 314.5,-134 314.5,-8 8,-8"/>
<text text-anchor="middle" x="161.25" y="-121.2" font-family="sans-serif,bold" font-size="11.00">KommonNamedRandomGenerator</text>
</g>
<g id="clust2" class="cluster">
<title>cluster_KDummyRandom</title>
<polygon fill="#a0a0a0" fill-opacity="0.125490" stroke="black" stroke-width="2" points="56.5,-142 56.5,-214 314.5,-214 314.5,-142 56.5,-142"/>
<text text-anchor="middle" x="185.5" y="-201.2" font-family="sans-serif,bold" font-size="11.00">KDummyRandom</text>
</g>
<g id="clust3" class="cluster">
<title>cluster_KROOTWindow</title>
<polygon fill="#a0a0a0" fill-opacity="0.125490" stroke="black" stroke-width="2" points="44,-222 44,-546 490,-546 490,-222 44,-222"/>
<text text-anchor="middle" x="267" y="-533.2" font-family="sans-serif,bold" font-size="11.00">KROOTWindow</text>
</g>
<g id="clust5" class="cluster">
<title>cluster_KROOTPad</title>
<polygon fill="#a0a0a0" fill-opacity="0.125490" stroke="black" stroke-width="2" points="407,-230 407,-518 482,-518 482,-230 407,-230"/>
<text text-anchor="middle" x="444.5" y="-505.2" font-family="sans-serif,bold" font-size="11.00">KROOTPad</text>
</g>
<g id="clust6" class="cluster">
<title>cluster_KMessageTable</title>
<polygon fill="#a0a0a0" fill-opacity="0.125490" stroke="black" stroke-width="2" points="52.5,-554 52.5,-1004 514,-1004 514,-554 52.5,-554"/>
<text text-anchor="middle" x="283.25" y="-991.2" font-family="sans-serif,bold" font-size="11.00">KMessageTable</text>
</g>
<g id="clust8" class="cluster">
<title>cluster_KMessageData</title>
<polygon fill="#a0a0a0" fill-opacity="0.125490" stroke="black" stroke-width="2" points="382,-580 382,-976 506,-976 506,-580 382,-580"/>
<text text-anchor="middle" x="444" y="-963.2" font-family="sans-serif,bold" font-size="11.00">KMessageData</text>
</g>
<g id="clust9" class="cluster">
<title>cluster_KApplicationRunner</title>
<polygon fill="#a0a0a0" fill-opacity="0.125490" stroke="black" stroke-width="2" points="60.5,-1012 60.5,-1138 513,-1138 513,-1012 60.5,-1012"/>
<text text-anchor="middle" x="286.75" y="-1125.2" font-family="sans-serif,bold" font-size="11.00">KApplicationRunner</text>
</g>
<g id="clust11" class="cluster">
<title>cluster_KNamedReference</title>
<polygon fill="#a0a0a0" fill-opacity="0.125490" stroke="black" stroke-width="2" points="384,-1038 384,-1110 505,-1110 505,-1038 384,-1038"/>
<text text-anchor="middle" x="444.5" y="-1097.2" font-family="sans-serif,bold" font-size="11.00">KNamedReference</text>
</g>
<g id="clust12" class="cluster">
<title>cluster_KVTKWindow</title>
<polygon fill="#a0a0a0" fill-opacity="0.125490" stroke="black" stroke-width="2" points="46.5,-1146 46.5,-1866 356,-1866 356,-1146 46.5,-1146"/>
<text text-anchor="middle" x="201.25" y="-1853.2" font-family="sans-serif,bold" font-size="11.00">KVTKWindow</text>
</g>
<!-- KommonNamedRandomGenerator -->
<g id="node1" class="node">
<title>KommonNamedRandomGenerator</title>
<polygon fill="#ff7c00" fill-opacity="0.627451" stroke="black" points="175,-79 16,-79 16,-43 175,-43 175,-79"/>
<text text-anchor="middle" x="95.5" y="-58.2" font-family="sans-serif,bold" font-size="11.00">NamedRandomGenerator</text>
</g>
<!-- KommonNamedRandomGenerator__Name -->
<g id="node2" class="node">
<title>KommonNamedRandomGenerator__Name</title>
<polygon fill="#f0f0f0" fill-opacity="0.627451" stroke="black" points="306.5,-52 252.5,-52 252.5,-16 306.5,-16 306.5,-52"/>
<text text-anchor="middle" x="279.5" y="-31.5" font-family="sans-serif" font-size="10.00">Name</text>
</g>
<!-- KommonNamedRandomGenerator&#45;&gt;KommonNamedRandomGenerator__Name -->
<g id="edge1" class="edge">
<title>KommonNamedRandomGenerator&#45;&gt;KommonNamedRandomGenerator__Name</title>
<path fill="none" stroke="black" d="M175,-49.35C198.38,-45.89 222.88,-42.25 242.17,-39.39"/>
<polygon fill="black" stroke="black" points="242.94,-42.81 252.31,-37.88 241.91,-35.89 242.94,-42.81"/>
</g>
<!-- KommonNamedRandomGenerator__Seed -->
<g id="node3" class="node">
<title>KommonNamedRandomGenerator__Seed</title>
<polygon fill="#f0f0f0" fill-opacity="0.627451" stroke="black" points="306.5,-106 252.5,-106 252.5,-70 306.5,-70 306.5,-106"/>
<text text-anchor="middle" x="279.5" y="-85.5" font-family="sans-serif" font-size="10.00">Seed</text>
</g>
<!-- KommonNamedRandomGenerator&#45;&gt;KommonNamedRandomGenerator__Seed -->
<g id="edge2" class="edge">
<title>KommonNamedRandomGenerator&#45;&gt;KommonNamedRandomGenerator__Seed</title>
<path fill="none" stroke="black" d="M175,-72.65C198.38,-76.11 222.88,-79.75 242.17,-82.61"/>
<polygon fill="black" stroke="black" points="241.91,-86.11 252.31,-84.12 242.94,-79.19 241.91,-86.11"/>
</g>
<!-- KDummyRandom -->
<g id="node4" class="node">
<title>KDummyRandom</title>
<polygon fill="#ff7c00" fill-opacity="0.627451" stroke="black" points="126.5,-186 64.5,-186 64.5,-150 126.5,-150 126.5,-186"/>
<text text-anchor="middle" x="95.5" y="-165.2" font-family="sans-serif,bold" font-size="11.00">Random</text>
</g>
<!-- KDummyRandom__Seed -->
<g id="node5" class="node">
<title>KDummyRandom__Seed</title>
<polygon fill="#f0f0f0" fill-opacity="0.627451" stroke="black" points="306.5,-186 252.5,-186 252.5,-150 306.5,-150 306.5,-186"/>
<text text-anchor="middle" x="279.5" y="-165.5" font-family="sans-serif" font-size="10.00">Seed</text>
</g>
<!-- KDummyRandom&#45;&gt;KDummyRandom__Seed -->
<g id="edge3" class="edge">
<title>KDummyRandom&#45;&gt;KDummyRandom__Seed</title>
<path fill="none" stroke="black" d="M126.55,-168C158.17,-168 207.94,-168 241.84,-168"/>
<polygon fill="black" stroke="black" points="242.25,-171.5 252.25,-168 242.25,-164.5 242.25,-171.5"/>
</g>
<!-- KROOTWindow -->
<g id="node6" class="node">
<title>KROOTWindow</title>
<polygon fill="#ff7c00" fill-opacity="0.627451" stroke="black" points="139,-374 52,-374 52,-338 139,-338 139,-374"/>
<text text-anchor="middle" x="95.5" y="-353.2" font-family="sans-serif,bold" font-size="11.00">root_window</text>
</g>
<!-- KROOTWindow__name -->
<g id="node7" class="node">
<title>KROOTWindow__name</title>
<polygon fill="#f0f0f0" fill-opacity="0.627451" stroke="black" points="306.5,-266 252.5,-266 252.5,-230 306.5,-230 306.5,-266"/>
<text text-anchor="middle" x="279.5" y="-245.5" font-family="sans-serif" font-size="10.00">name</text>
</g>
<!-- KROOTWindow&#45;&gt;KROOTWindow__name -->
<g id="edge4" class="edge">
<title>KROOTWindow&#45;&gt;KROOTWindow__name</title>
<path fill="none" stroke="black" d="M118.71,-337.89C141.06,-320.26 176.99,-293.5 211,-275 220.91,-269.61 232.14,-264.69 242.55,-260.57"/>
<polygon fill="black" stroke="black" points="244.12,-263.72 252.21,-256.88 241.62,-257.18 244.12,-263.72"/>
</g>
<!-- KROOTWindow__active -->
<g id="node8" class="node">
<title>KROOTWindow__active</title>
<polygon fill="#f0f0f0" fill-opacity="0.627451" stroke="black" points="306.5,-320 252.5,-320 252.5,-284 306.5,-284 306.5,-320"/>
<text text-anchor="middle" x="279.5" y="-299.5" font-family="sans-serif" font-size="10.00">active</text>
</g>
<!-- KROOTWindow&#45;&gt;KROOTWindow__active -->
<g id="edge5" class="edge">
<title>KROOTWindow&#45;&gt;KROOTWindow__active</title>
<path fill="none" stroke="black" d="M139.17,-343.34C170.56,-334.03 212.76,-321.5 242.47,-312.69"/>
<polygon fill="black" stroke="black" points="243.82,-315.94 252.41,-309.74 241.83,-309.23 243.82,-315.94"/>
</g>
<!-- KROOTWindow__write_enabled -->
<g id="node9" class="node">
<title>KROOTWindow__write_enabled</title>
<polygon fill="#f0f0f0" fill-opacity="0.627451" stroke="black" points="321,-374 238,-374 238,-338 321,-338 321,-374"/>
<text text-anchor="middle" x="279.5" y="-353.5" font-family="sans-serif" font-size="10.00">write_enabled</text>
</g>
<!-- KROOTWindow&#45;&gt;KROOTWindow__write_enabled -->
<g id="edge6" class="edge">
<title>KROOTWindow&#45;&gt;KROOTWindow__write_enabled</title>
<path fill="none" stroke="black" d="M139.17,-356C165.63,-356 199.77,-356 227.63,-356"/>
<polygon fill="black" stroke="black" points="227.97,-359.5 237.97,-356 227.97,-352.5 227.97,-359.5"/>
</g>
<!-- KROOTWindow__path -->
<g id="node10" class="node">
<title>KROOTWindow__path</title>
<polygon fill="#f0f0f0" fill-opacity="0.627451" stroke="black" points="306.5,-428 252.5,-428 252.5,-392 306.5,-392 306.5,-428"/>
<text text-anchor="middle" x="279.5" y="-407.5" font-family="sans-serif" font-size="10.00">path</text>
</g>
<!-- KROOTWindow&#45;&gt;KROOTWindow__path -->
<g id="edge7" class="edge">
<title>KROOTWindow&#45;&gt;KROOTWindow__path</title>
<path fill="none" stroke="black" d="M139.17,-368.66C170.56,-377.97 212.76,-390.5 242.47,-399.31"/>
<polygon fill="black" stroke="black" points="241.83,-402.77 252.41,-402.26 243.82,-396.06 241.83,-402.77"/>
</g>
<!-- KROOTPad -->
<g id="node11" class="node">
<title>KROOTPad</title>
<polygon fill="#ff7c00" fill-opacity="0.627451" stroke="black" points="311.5,-482 247.5,-482 247.5,-446 311.5,-446 311.5,-482"/>
<text text-anchor="middle" x="279.5" y="-461.2" font-family="sans-serif,bold" font-size="11.00">root_pad</text>
</g>
<!-- KROOTWindow&#45;&gt;KROOTPad -->
<g id="edge8" class="edge">
<title>KROOTWindow&#45;&gt;KROOTPad</title>
<path fill="none" stroke="black" d="M118.71,-374.11C141.06,-391.74 176.99,-418.5 211,-437 219.39,-441.56 228.71,-445.78 237.69,-449.47"/>
<polygon fill="black" stroke="black" points="236.64,-452.82 247.23,-453.25 239.22,-446.31 236.64,-452.82"/>
</g>
<!-- KROOTPad__name -->
<g id="node12" class="node">
<title>KROOTPad__name</title>
<polygon fill="#f0f0f0" fill-opacity="0.627451" stroke="black" points="471,-490 417,-490 417,-454 471,-454 471,-490"/>
<text text-anchor="middle" x="444" y="-469.5" font-family="sans-serif" font-size="10.00">name</text>
</g>
<!-- KROOTPad&#45;&gt;KROOTPad__name -->
<g id="edge9" class="edge">
<title>KROOTPad&#45;&gt;KROOTPad__name</title>
<path fill="none" stroke="black" d="M311.83,-465.54C338.9,-466.88 378.04,-468.8 406.51,-470.2"/>
<polygon fill="black" stroke="black" points="406.7,-473.72 416.86,-470.71 407.04,-466.73 406.7,-473.72"/>
</g>
<!-- KROOTPad__xlow -->
<g id="node13" class="node">
<title>KROOTPad__xlow</title>
<polygon fill="#f0f0f0" fill-opacity="0.627451" stroke="black" points="471,-436 417,-436 417,-400 471,-400 471,-436"/>
<text text-anchor="middle" x="444" y="-415.5" font-family="sans-serif" font-size="10.00">xlow</text>
</g>
<!-- KROOTPad&#45;&gt;KROOTPad__xlow -->
<g id="edge10" class="edge">
<title>KROOTPad&#45;&gt;KROOTPad__xlow</title>
<path fill="none" stroke="black" d="M311.83,-455.13C339.02,-447.43 378.38,-436.29 406.89,-428.22"/>
<polygon fill="black" stroke="black" points="408.19,-431.49 416.86,-425.4 406.28,-424.76 408.19,-431.49"/>
</g>
<!-- KROOTPad__ylow -->
<g id="node14" class="node">
<title>KROOTPad__ylow</title>
<polygon fill="#f0f0f0" fill-opacity="0.627451" stroke="black" points="471,-382 417,-382 417,-346 471,-346 471,-382"/>
<text text-anchor="middle" x="444" y="-361.5" font-family="sans-serif" font-size="10.00">ylow</text>
</g>
<!-- KROOTPad&#45;&gt;KROOTPad__ylow -->
<g id="edge11" class="edge">
<title>KROOTPad&#45;&gt;KROOTPad__ylow</title>
<path fill="none" stroke="black" d="M311.71,-458.15C326.41,-454.14 343.44,-447.58 356,-437 373.96,-421.87 364.6,-406.77 382,-391 389.25,-384.43 398.35,-379.26 407.3,-375.27"/>
<polygon fill="black" stroke="black" points="408.89,-378.4 416.85,-371.41 406.27,-371.91 408.89,-378.4"/>
</g>
<!-- KROOTPad__xup -->
<g id="node15" class="node">
<title>KROOTPad__xup</title>
<polygon fill="#f0f0f0" fill-opacity="0.627451" stroke="black" points="471,-328 417,-328 417,-292 471,-292 471,-328"/>
<text text-anchor="middle" x="444" y="-307.5" font-family="sans-serif" font-size="10.00">xup</text>
</g>
<!-- KROOTPad&#45;&gt;KROOTPad__xup -->
<g id="edge12" class="edge">
<title>KROOTPad&#45;&gt;KROOTPad__xup</title>
<path fill="none" stroke="black" d="M311.86,-459.76C327.14,-456.14 344.63,-449.43 356,-437 386.99,-403.11 352.27,-372 382,-337 388.69,-329.12 398.13,-323.46 407.59,-319.42"/>
<polygon fill="black" stroke="black" points="408.83,-322.69 416.95,-315.9 406.36,-316.14 408.83,-322.69"/>
</g>
<!-- KROOTPad__yup -->
<g id="node16" class="node">
<title>KROOTPad__yup</title>
<polygon fill="#f0f0f0" fill-opacity="0.627451" stroke="black" points="471,-274 417,-274 417,-238 471,-238 471,-274"/>
<text text-anchor="middle" x="444" y="-253.5" font-family="sans-serif" font-size="10.00">yup</text>
</g>
<!-- KROOTPad&#45;&gt;KROOTPad__yup -->
<g id="edge13" class="edge">
<title>KROOTPad&#45;&gt;KROOTPad__yup</title>
<path fill="none" stroke="black" d="M311.56,-460.34C327.15,-456.87 345,-450.13 356,-437 400.57,-383.79 339.4,-337.81 382,-283 388.4,-274.77 397.83,-268.99 407.39,-264.95"/>
<polygon fill="black" stroke="black" points="408.68,-268.21 416.87,-261.47 406.27,-261.63 408.68,-268.21"/>
</g>
<!-- KMessageTable -->
<g id="node17" class="node">
<title>KMessageTable</title>
<polygon fill="#ff7c00" fill-opacity="0.627451" stroke="black" points="130.5,-787 60.5,-787 60.5,-751 130.5,-751 130.5,-787"/>
<text text-anchor="middle" x="95.5" y="-766.2" font-family="sans-serif,bold" font-size="11.00">messages</text>
</g>
<!-- KMessageTable__terminal -->
<g id="node18" class="node">
<title>KMessageTable__terminal</title>
<polygon fill="#f0f0f0" fill-opacity="0.627451" stroke="black" points="307.5,-598 251.5,-598 251.5,-562 307.5,-562 307.5,-598"/>
<text text-anchor="middle" x="279.5" y="-577.5" font-family="sans-serif" font-size="10.00">terminal</text>
</g>
<!-- KMessageTable&#45;&gt;KMessageTable__terminal -->
<g id="edge14" class="edge">
<title>KMessageTable&#45;&gt;KMessageTable__terminal</title>
<path fill="none" stroke="black" d="M104.91,-750.85C121.04,-717.87 159.36,-647.75 211,-607 220.03,-599.88 231.18,-594.4 241.8,-590.31"/>
<polygon fill="black" stroke="black" points="243.07,-593.57 251.33,-586.93 240.73,-586.97 243.07,-593.57"/>
</g>
<!-- KMessageTable__log -->
<g id="node19" class="node">
<title>KMessageTable__log</title>
<polygon fill="#f0f0f0" fill-opacity="0.627451" stroke="black" points="306.5,-652 252.5,-652 252.5,-616 306.5,-616 306.5,-652"/>
<text text-anchor="middle" x="279.5" y="-631.5" font-family="sans-serif" font-size="10.00">log</text>
</g>
<!-- KMessageTable&#45;&gt;KMessageTable__log -->
<g id="edge15" class="edge">
<title>KMessageTable&#45;&gt;KMessageTable__log</title>
<path fill="none" stroke="black" d="M111.88,-750.73C132.43,-727.29 170.93,-686.59 211,-661 220.77,-654.76 232.23,-649.52 242.89,-645.37"/>
<polygon fill="black" stroke="black" points="244.23,-648.61 252.4,-641.86 241.8,-642.04 244.23,-648.61"/>
</g>
<!-- KMessageTable__format -->
<g id="node20" class="node">
<title>KMessageTable__format</title>
<polygon fill="#f0f0f0" fill-opacity="0.627451" stroke="black" points="306.5,-706 252.5,-706 252.5,-670 306.5,-670 306.5,-706"/>
<text text-anchor="middle" x="279.5" y="-685.5" font-family="sans-serif" font-size="10.00">format</text>
</g>
<!-- KMessageTable&#45;&gt;KMessageTable__format -->
<g id="edge16" class="edge">
<title>KMessageTable&#45;&gt;KMessageTable__format</title>
<path fill="none" stroke="black" d="M130.57,-752.27C153.22,-741.32 183.69,-726.89 211,-715 221.26,-710.53 232.51,-705.92 242.83,-701.8"/>
<polygon fill="black" stroke="black" points="244.37,-704.96 252.39,-698.02 241.8,-698.45 244.37,-704.96"/>
</g>
<!-- KMessageTable__precision -->
<g id="node21" class="node">
<title>KMessageTable__precision</title>
<polygon fill="#f0f0f0" fill-opacity="0.627451" stroke="black" points="308.5,-760 250.5,-760 250.5,-724 308.5,-724 308.5,-760"/>
<text text-anchor="middle" x="279.5" y="-739.5" font-family="sans-serif" font-size="10.00">precision</text>
</g>
<!-- KMessageTable&#45;&gt;KMessageTable__precision -->
<g id="edge17" class="edge">
<title>KMessageTable&#45;&gt;KMessageTable__precision</title>
<path fill="none" stroke="black" d="M130.73,-763.92C161.95,-759.29 208.01,-752.46 240.39,-747.65"/>
<polygon fill="black" stroke="black" points="241.01,-751.1 250.39,-746.17 239.98,-744.18 241.01,-751.1"/>
</g>
<!-- KMessageTable__shutdown_message -->
<g id="node22" class="node">
<title>KMessageTable__shutdown_message</title>
<polygon fill="#f0f0f0" fill-opacity="0.627451" stroke="black" points="333.5,-814 225.5,-814 225.5,-778 333.5,-778 333.5,-814"/>
<text text-anchor="middle" x="279.5" y="-793.5" font-family="sans-serif" font-size="10.00">shutdown_message</text>
</g>
<!-- KMessageTable&#45;&gt;KMessageTable__shutdown_message -->
<g id="edge18" class="edge">
<title>KMessageTable&#45;&gt;KMessageTable__shutdown_message</title>
<path fill="none" stroke="black" d="M130.73,-774.08C154.49,-777.6 186.83,-782.4 215.2,-786.61"/>
<polygon fill="black" stroke="black" points="215.05,-790.12 225.45,-788.13 216.07,-783.2 215.05,-790.12"/>
</g>
<!-- KMessageTable__parser_context -->
<g id="node23" class="node">
<title>KMessageTable__parser_context</title>
<polygon fill="#f0f0f0" fill-opacity="0.627451" stroke="black" points="322.5,-868 236.5,-868 236.5,-832 322.5,-832 322.5,-868"/>
<text text-anchor="middle" x="279.5" y="-847.5" font-family="sans-serif" font-size="10.00">parser_context</text>
</g>
<!-- KMessageTable&#45;&gt;KMessageTable__parser_context -->
<g id="edge19" class="edge">
<title>KMessageTable&#45;&gt;KMessageTable__parser_context</title>
<path fill="none" stroke="black" d="M130.57,-785.73C153.22,-796.68 183.69,-811.11 211,-823 216.06,-825.2 221.37,-827.44 226.68,-829.64"/>
<polygon fill="black" stroke="black" points="225.63,-832.99 236.21,-833.54 228.28,-826.51 225.63,-832.99"/>
</g>
<!-- KMessageData -->
<g id="node24" class="node">
<title>KMessageData</title>
<polygon fill="#ff7c00" fill-opacity="0.627451" stroke="black" points="312,-922 247,-922 247,-886 312,-886 312,-922"/>
<text text-anchor="middle" x="279.5" y="-901.2" font-family="sans-serif,bold" font-size="11.00">message</text>
</g>
<!-- KMessageTable&#45;&gt;KMessageData -->
<g id="edge20" class="edge">
<title>KMessageTable&#45;&gt;KMessageData</title>
<path fill="none" stroke="black" d="M111.88,-787.27C132.43,-810.71 170.93,-851.41 211,-877 219.05,-882.14 228.23,-886.6 237.18,-890.33"/>
<polygon fill="black" stroke="black" points="236.14,-893.68 246.73,-894.09 238.71,-887.17 236.14,-893.68"/>
</g>
<!-- KTextFile -->
<g id="node25" class="node">
<title>KTextFile</title>
<polygon fill="#ff7c00" fill-opacity="0.627451" stroke="black" points="306.5,-976 252.5,-976 252.5,-940 306.5,-940 306.5,-976"/>
<text text-anchor="middle" x="279.5" y="-955.2" font-family="sans-serif,bold" font-size="11.00">file</text>
</g>
<!-- KMessageTable&#45;&gt;KTextFile -->
<g id="edge28" class="edge">
<title>KMessageTable&#45;&gt;KTextFile</title>
<path fill="none" stroke="black" d="M104.91,-787.15C121.04,-820.13 159.36,-890.25 211,-931 220.26,-938.3 231.74,-943.87 242.6,-948"/>
<polygon fill="black" stroke="black" points="241.72,-951.4 252.31,-951.39 244.03,-944.79 241.72,-951.4"/>
</g>
<!-- KMessageData__key -->
<g id="node26" class="node">
<title>KMessageData__key</title>
<polygon fill="#f0f0f0" fill-opacity="0.627451" stroke="black" points="471,-948 417,-948 417,-912 471,-912 471,-948"/>
<text text-anchor="middle" x="444" y="-927.5" font-family="sans-serif" font-size="10.00">key</text>
</g>
<!-- KMessageData&#45;&gt;KMessageData__key -->
<g id="edge21" class="edge">
<title>KMessageData&#45;&gt;KMessageData__key</title>
<path fill="none" stroke="black" d="M312.22,-909.07C339.45,-913.43 378.68,-919.71 407.06,-924.25"/>
<polygon fill="black" stroke="black" points="406.56,-927.71 416.99,-925.84 407.66,-920.8 406.56,-927.71"/>
</g>
<!-- KMessageData__terminal -->
<g id="node27" class="node">
<title>KMessageData__terminal</title>
<polygon fill="#f0f0f0" fill-opacity="0.627451" stroke="black" points="472,-894 416,-894 416,-858 472,-858 472,-894"/>
<text text-anchor="middle" x="444" y="-873.5" font-family="sans-serif" font-size="10.00">terminal</text>
</g>
<!-- KMessageData&#45;&gt;KMessageData__terminal -->
<g id="edge22" class="edge">
<title>KMessageData&#45;&gt;KMessageData__terminal</title>
<path fill="none" stroke="black" d="M312.22,-898.53C339.12,-893.9 377.73,-887.25 406.03,-882.37"/>
<polygon fill="black" stroke="black" points="406.68,-885.81 415.94,-880.66 405.5,-878.91 406.68,-885.81"/>
</g>
<!-- KMessageData__log -->
<g id="node28" class="node">
<title>KMessageData__log</title>
<polygon fill="#f0f0f0" fill-opacity="0.627451" stroke="black" points="471,-840 417,-840 417,-804 471,-804 471,-840"/>
<text text-anchor="middle" x="444" y="-819.5" font-family="sans-serif" font-size="10.00">log</text>
</g>
<!-- KMessageData&#45;&gt;KMessageData__log -->
<g id="edge23" class="edge">
<title>KMessageData&#45;&gt;KMessageData__log</title>
<path fill="none" stroke="black" d="M312.19,-896.36C326.33,-892.05 342.75,-885.74 356,-877 370.18,-867.65 368.17,-858.86 382,-849 389.76,-843.47 398.82,-838.7 407.56,-834.79"/>
<polygon fill="black" stroke="black" points="408.98,-837.98 416.83,-830.87 406.26,-831.54 408.98,-837.98"/>
</g>
<!-- KMessageData__format -->
<g id="node29" class="node">
<title>KMessageData__format</title>
<polygon fill="#f0f0f0" fill-opacity="0.627451" stroke="black" points="471,-786 417,-786 417,-750 471,-750 471,-786"/>
<text text-anchor="middle" x="444" y="-765.5" font-family="sans-serif" font-size="10.00">format</text>
</g>
<!-- KMessageData&#45;&gt;KMessageData__format -->
<g id="edge24" class="edge">
<title>KMessageData&#45;&gt;KMessageData__format</title>
<path fill="none" stroke="black" d="M312.35,-899.32C327.38,-895.6 344.5,-888.92 356,-877 382.54,-849.48 356.49,-823.48 382,-795 388.77,-787.45 398.04,-781.9 407.32,-777.87"/>
<polygon fill="black" stroke="black" points="408.8,-781.05 416.88,-774.21 406.29,-774.52 408.8,-781.05"/>
</g>
<!-- KMessageData__precision -->
<g id="node30" class="node">
<title>KMessageData__precision</title>
<polygon fill="#f0f0f0" fill-opacity="0.627451" stroke="black" points="473,-732 415,-732 415,-696 473,-696 473,-732"/>
<text text-anchor="middle" x="444" y="-711.5" font-family="sans-serif" font-size="10.00">precision</text>
</g>
<!-- KMessageData&#45;&gt;KMessageData__precision -->
<g id="edge25" class="edge">
<title>KMessageData&#45;&gt;KMessageData__precision</title>
<path fill="none" stroke="black" d="M312.2,-900.07C327.58,-896.53 345.04,-889.79 356,-877 396.03,-830.26 343.71,-789.18 382,-741 387.98,-733.48 396.49,-727.99 405.27,-724.02"/>
<polygon fill="black" stroke="black" points="406.76,-727.19 414.78,-720.27 404.2,-720.68 406.76,-727.19"/>
</g>
<!-- KMessageData__shutdown_message -->
<g id="node31" class="node">
<title>KMessageData__shutdown_message</title>
<polygon fill="#f0f0f0" fill-opacity="0.627451" stroke="black" points="498,-678 390,-678 390,-642 498,-642 498,-678"/>
<text text-anchor="middle" x="444" y="-657.5" font-family="sans-serif" font-size="10.00">shutdown_message</text>
</g>
<!-- KMessageData&#45;&gt;KMessageData__shutdown_message -->
<g id="edge26" class="edge">
<title>KMessageData&#45;&gt;KMessageData__shutdown_message</title>
<path fill="none" stroke="black" d="M312.11,-900.39C327.65,-896.94 345.3,-890.19 356,-877 409.7,-810.82 330.76,-755.11 382,-687 382.47,-686.38 382.96,-685.76 383.46,-685.17"/>
<polygon fill="black" stroke="black" points="385.99,-687.59 390.83,-678.17 381.17,-682.52 385.99,-687.59"/>
</g>
<!-- KMessageData__parser_context -->
<g id="node32" class="node">
<title>KMessageData__parser_context</title>
<polygon fill="#f0f0f0" fill-opacity="0.627451" stroke="black" points="487,-624 401,-624 401,-588 487,-588 487,-624"/>
<text text-anchor="middle" x="444" y="-603.5" font-family="sans-serif" font-size="10.00">parser_context</text>
</g>
<!-- KMessageData&#45;&gt;KMessageData__parser_context -->
<g id="edge27" class="edge">
<title>KMessageData&#45;&gt;KMessageData__parser_context</title>
<path fill="none" stroke="black" d="M312.27,-900.52C327.86,-897.1 345.5,-890.35 356,-877 423.45,-791.3 317.74,-721.11 382,-633 384.76,-629.21 388.17,-625.95 391.96,-623.14"/>
<polygon fill="black" stroke="black" points="394.11,-625.93 400.75,-617.67 390.41,-619.98 394.11,-625.93"/>
</g>
<!-- KApplicationRunner -->
<g id="node33" class="node">
<title>KApplicationRunner</title>
<polygon fill="#ff7c00" fill-opacity="0.627451" stroke="black" points="122.5,-1083 68.5,-1083 68.5,-1047 122.5,-1047 122.5,-1083"/>
<text text-anchor="middle" x="95.5" y="-1062.2" font-family="sans-serif,bold" font-size="11.00">run</text>
</g>
<!-- KApplicationRunner__name -->
<g id="node34" class="node">
<title>KApplicationRunner__name</title>
<polygon fill="#f0f0f0" fill-opacity="0.627451" stroke="black" points="306.5,-1056 252.5,-1056 252.5,-1020 306.5,-1020 306.5,-1056"/>
<text text-anchor="middle" x="279.5" y="-1035.5" font-family="sans-serif" font-size="10.00">name</text>
</g>
<!-- KApplicationRunner&#45;&gt;KApplicationRunner__name -->
<g id="edge29" class="edge">
<title>KApplicationRunner&#45;&gt;KApplicationRunner__name</title>
<path fill="none" stroke="black" d="M122.58,-1061.13C154.07,-1056.46 207.2,-1048.58 242.56,-1043.33"/>
<polygon fill="black" stroke="black" points="243.09,-1046.79 252.47,-1041.86 242.07,-1039.87 243.09,-1046.79"/>
</g>
<!-- KNamedReference -->
<g id="node35" class="node">
<title>KNamedReference</title>
<polygon fill="#ff7c00" fill-opacity="0.627451" stroke="black" points="306.5,-1110 252.5,-1110 252.5,-1074 306.5,-1074 306.5,-1110"/>
<text text-anchor="middle" x="279.5" y="-1089.2" font-family="sans-serif,bold" font-size="11.00">app</text>
</g>
<!-- KApplicationRunner&#45;&gt;KNamedReference -->
<g id="edge30" class="edge">
<title>KApplicationRunner&#45;&gt;KNamedReference</title>
<path fill="none" stroke="black" d="M122.58,-1068.87C154.07,-1073.54 207.2,-1081.42 242.56,-1086.67"/>
<polygon fill="black" stroke="black" points="242.07,-1090.13 252.47,-1088.14 243.09,-1083.21 242.07,-1090.13"/>
</g>
<!-- KNamedReference__Name -->
<g id="node36" class="node">
<title>KNamedReference__Name</title>
<polygon fill="#f0f0f0" fill-opacity="0.627451" stroke="black" points="471,-1082 417,-1082 417,-1046 471,-1046 471,-1082"/>
<text text-anchor="middle" x="444" y="-1061.5" font-family="sans-serif" font-size="10.00">Name</text>
</g>
<!-- KNamedReference&#45;&gt;KNamedReference__Name -->
<g id="edge31" class="edge">
<title>KNamedReference&#45;&gt;KNamedReference__Name</title>
<path fill="none" stroke="black" d="M306.61,-1087.5C333.73,-1082.83 376.39,-1075.48 406.77,-1070.24"/>
<polygon fill="black" stroke="black" points="407.7,-1073.63 416.96,-1068.49 406.51,-1066.74 407.7,-1073.63"/>
</g>
<!-- KVTKWindow -->
<g id="node37" class="node">
<title>KVTKWindow</title>
<polygon fill="#ff7c00" fill-opacity="0.627451" stroke="black" points="136.5,-1514 54.5,-1514 54.5,-1478 136.5,-1478 136.5,-1514"/>
<text text-anchor="middle" x="95.5" y="-1493.2" font-family="sans-serif,bold" font-size="11.00">vtk_window</text>
</g>
<!-- KVTKWindow__name -->
<g id="node38" class="node">
<title>KVTKWindow__name</title>
<polygon fill="#f0f0f0" fill-opacity="0.627451" stroke="black" points="306.5,-1190 252.5,-1190 252.5,-1154 306.5,-1154 306.5,-1190"/>
<text text-anchor="middle" x="279.5" y="-1169.5" font-family="sans-serif" font-size="10.00">name</text>
</g>
<!-- KVTKWindow&#45;&gt;KVTKWindow__name -->
<g id="edge32" class="edge">
<title>KVTKWindow&#45;&gt;KVTKWindow__name</title>
<path fill="none" stroke="black" d="M98.45,-1477.95C104.88,-1427.13 129.85,-1281.18 211,-1199 219.57,-1190.32 231.3,-1184.34 242.57,-1180.27"/>
<polygon fill="black" stroke="black" points="243.82,-1183.54 252.27,-1177.16 241.68,-1176.88 243.82,-1183.54"/>
</g>
<!-- KVTKWindow__enable_display -->
<g id="node39" class="node">
<title>KVTKWindow__enable_display</title>
<polygon fill="#f0f0f0" fill-opacity="0.627451" stroke="black" points="321.5,-1244 237.5,-1244 237.5,-1208 321.5,-1208 321.5,-1244"/>
<text text-anchor="middle" x="279.5" y="-1223.5" font-family="sans-serif" font-size="10.00">enable_display</text>
</g>
<!-- KVTKWindow&#45;&gt;KVTKWindow__enable_display -->
<g id="edge33" class="edge">
<title>KVTKWindow&#45;&gt;KVTKWindow__enable_display</title>
<path fill="none" stroke="black" d="M100.25,-1477.74C110.31,-1433.24 141.91,-1318.07 211,-1253 216,-1248.29 221.92,-1244.36 228.16,-1241.1"/>
<polygon fill="black" stroke="black" points="229.84,-1244.17 237.43,-1236.77 226.89,-1237.83 229.84,-1244.17"/>
</g>
<!-- KVTKWindow__enable_write -->
<g id="node40" class="node">
<title>KVTKWindow__enable_write</title>
<polygon fill="#f0f0f0" fill-opacity="0.627451" stroke="black" points="318,-1298 241,-1298 241,-1262 318,-1262 318,-1298"/>
<text text-anchor="middle" x="279.5" y="-1277.5" font-family="sans-serif" font-size="10.00">enable_write</text>
</g>
<!-- KVTKWindow&#45;&gt;KVTKWindow__enable_write -->
<g id="edge34" class="edge">
<title>KVTKWindow&#45;&gt;KVTKWindow__enable_write</title>
<path fill="none" stroke="black" d="M102.97,-1477.73C117,-1440.58 153.65,-1355.63 211,-1307 217.02,-1301.89 224.14,-1297.67 231.45,-1294.2"/>
<polygon fill="black" stroke="black" points="232.94,-1297.37 240.74,-1290.2 230.17,-1290.94 232.94,-1297.37"/>
</g>
<!-- KVTKWindow__enable_help -->
<g id="node41" class="node">
<title>KVTKWindow__enable_help</title>
<polygon fill="#f0f0f0" fill-opacity="0.627451" stroke="black" points="316,-1352 243,-1352 243,-1316 316,-1316 316,-1352"/>
<text text-anchor="middle" x="279.5" y="-1331.5" font-family="sans-serif" font-size="10.00">enable_help</text>
</g>
<!-- KVTKWindow&#45;&gt;KVTKWindow__enable_help -->
<g id="edge35" class="edge">
<title>KVTKWindow&#45;&gt;KVTKWindow__enable_help</title>
<path fill="none" stroke="black" d="M107.69,-1477.81C126.03,-1449.32 165.11,-1394.04 211,-1361 217.77,-1356.12 225.55,-1351.97 233.36,-1348.48"/>
<polygon fill="black" stroke="black" points="234.94,-1351.62 242.84,-1344.56 232.26,-1345.15 234.94,-1351.62"/>
</g>
<!-- KVTKWindow__enable_axis -->
<g id="node42" class="node">
<title>KVTKWindow__enable_axis</title>
<polygon fill="#f0f0f0" fill-opacity="0.627451" stroke="black" points="314.5,-1406 244.5,-1406 244.5,-1370 314.5,-1370 314.5,-1406"/>
<text text-anchor="middle" x="279.5" y="-1385.5" font-family="sans-serif" font-size="10.00">enable_axis</text>
</g>
<!-- KVTKWindow&#45;&gt;KVTKWindow__enable_axis -->
<g id="edge36" class="edge">
<title>KVTKWindow&#45;&gt;KVTKWindow__enable_axis</title>
<path fill="none" stroke="black" d="M118.71,-1477.89C141.06,-1460.26 176.99,-1433.5 211,-1415 218.57,-1410.88 226.91,-1407.04 235.06,-1403.62"/>
<polygon fill="black" stroke="black" points="236.53,-1406.8 244.49,-1399.81 233.9,-1400.31 236.53,-1406.8"/>
</g>
<!-- KVTKWindow__enable_data -->
<g id="node43" class="node">
<title>KVTKWindow__enable_data</title>
<polygon fill="#f0f0f0" fill-opacity="0.627451" stroke="black" points="316,-1460 243,-1460 243,-1424 316,-1424 316,-1460"/>
<text text-anchor="middle" x="279.5" y="-1439.5" font-family="sans-serif" font-size="10.00">enable_data</text>
</g>
<!-- KVTKWindow&#45;&gt;KVTKWindow__enable_data -->
<g id="edge37" class="edge">
<title>KVTKWindow&#45;&gt;KVTKWindow__enable_data</title>
<path fill="none" stroke="black" d="M136.89,-1484.02C165.4,-1475.56 203.63,-1464.22 233.18,-1455.45"/>
<polygon fill="black" stroke="black" points="234.25,-1458.78 242.84,-1452.58 232.26,-1452.07 234.25,-1458.78"/>
</g>
<!-- KVTKWindow__enable_parallel_projection -->
<g id="node44" class="node">
<title>KVTKWindow__enable_parallel_projection</title>
<polygon fill="#f0f0f0" fill-opacity="0.627451" stroke="black" points="348,-1514 211,-1514 211,-1478 348,-1478 348,-1514"/>
<text text-anchor="middle" x="279.5" y="-1493.5" font-family="sans-serif" font-size="10.00">enable_parallel_projection</text>
</g>
<!-- KVTKWindow&#45;&gt;KVTKWindow__enable_parallel_projection -->
<g id="edge38" class="edge">
<title>KVTKWindow&#45;&gt;KVTKWindow__enable_parallel_projection</title>
<path fill="none" stroke="black" d="M136.89,-1496C155.69,-1496 178.71,-1496 200.69,-1496"/>
<polygon fill="black" stroke="black" points="200.69,-1499.5 210.69,-1496 200.69,-1492.5 200.69,-1499.5"/>
</g>
<!-- KVTKWindow__frame_title -->
<g id="node45" class="node">
<title>KVTKWindow__frame_title</title>
<polygon fill="#f0f0f0" fill-opacity="0.627451" stroke="black" points="313,-1568 246,-1568 246,-1532 313,-1532 313,-1568"/>
<text text-anchor="middle" x="279.5" y="-1547.5" font-family="sans-serif" font-size="10.00">frame_title</text>
</g>
<!-- KVTKWindow&#45;&gt;KVTKWindow__frame_title -->
<g id="edge39" class="edge">
<title>KVTKWindow&#45;&gt;KVTKWindow__frame_title</title>
<path fill="none" stroke="black" d="M136.89,-1507.98C166.34,-1516.72 206.16,-1528.54 236.07,-1537.41"/>
<polygon fill="black" stroke="black" points="235.23,-1540.81 245.81,-1540.3 237.22,-1534.1 235.23,-1540.81"/>
</g>
<!-- KVTKWindow__frame_color_red -->
<g id="node46" class="node">
<title>KVTKWindow__frame_color_red</title>
<polygon fill="#f0f0f0" fill-opacity="0.627451" stroke="black" points="325.5,-1622 233.5,-1622 233.5,-1586 325.5,-1586 325.5,-1622"/>
<text text-anchor="middle" x="279.5" y="-1601.5" font-family="sans-serif" font-size="10.00">frame_color_red</text>
</g>
<!-- KVTKWindow&#45;&gt;KVTKWindow__frame_color_red -->
<g id="edge40" class="edge">
<title>KVTKWindow&#45;&gt;KVTKWindow__frame_color_red</title>
<path fill="none" stroke="black" d="M118.71,-1514.11C141.06,-1531.74 176.99,-1558.5 211,-1577 215.15,-1579.26 219.52,-1581.43 223.97,-1583.49"/>
<polygon fill="black" stroke="black" points="222.6,-1586.72 233.16,-1587.58 225.45,-1580.32 222.6,-1586.72"/>
</g>
<!-- KVTKWindow__frame_color_green -->
<g id="node47" class="node">
<title>KVTKWindow__frame_color_green</title>
<polygon fill="#f0f0f0" fill-opacity="0.627451" stroke="black" points="331.5,-1676 227.5,-1676 227.5,-1640 331.5,-1640 331.5,-1676"/>
<text text-anchor="middle" x="279.5" y="-1655.5" font-family="sans-serif" font-size="10.00">frame_color_green</text>
</g>
<!-- KVTKWindow&#45;&gt;KVTKWindow__frame_color_green -->
<g id="edge41" class="edge">
<title>KVTKWindow&#45;&gt;KVTKWindow__frame_color_green</title>
<path fill="none" stroke="black" d="M107.69,-1514.19C126.03,-1542.68 165.11,-1597.96 211,-1631 213.35,-1632.69 215.83,-1634.3 218.38,-1635.82"/>
<polygon fill="black" stroke="black" points="216.86,-1638.98 227.32,-1640.68 220.2,-1632.83 216.86,-1638.98"/>
</g>
<!-- KVTKWindow__frame_color_blue -->
<g id="node48" class="node">
<title>KVTKWindow__frame_color_blue</title>
<polygon fill="#f0f0f0" fill-opacity="0.627451" stroke="black" points="328,-1730 231,-1730 231,-1694 328,-1694 328,-1730"/>
<text text-anchor="middle" x="279.5" y="-1709.5" font-family="sans-serif" font-size="10.00">frame_color_blue</text>
</g>
<!-- KVTKWindow&#45;&gt;KVTKWindow__frame_color_blue -->
<g id="edge42" class="edge">
<title>KVTKWindow&#45;&gt;KVTKWindow__frame_color_blue</title>
<path fill="none" stroke="black" d="M102.97,-1514.27C117,-1551.42 153.65,-1636.37 211,-1685 214.39,-1687.88 218.14,-1690.48 222.06,-1692.82"/>
<polygon fill="black" stroke="black" points="220.42,-1695.91 230.89,-1697.54 223.72,-1689.74 220.42,-1695.91"/>
</g>
<!-- KVTKWindow__eye_angle -->
<g id="node49" class="node">
<title>KVTKWindow__eye_angle</title>
<polygon fill="#f0f0f0" fill-opacity="0.627451" stroke="black" points="311,-1784 248,-1784 248,-1748 311,-1748 311,-1784"/>
<text text-anchor="middle" x="279.5" y="-1763.5" font-family="sans-serif" font-size="10.00">eye_angle</text>
</g>
<!-- KVTKWindow&#45;&gt;KVTKWindow__eye_angle -->
<g id="edge43" class="edge">
<title>KVTKWindow&#45;&gt;KVTKWindow__eye_angle</title>
<path fill="none" stroke="black" d="M100.25,-1514.26C110.31,-1558.76 141.91,-1673.93 211,-1739 218.65,-1746.2 228.46,-1751.58 238.22,-1755.55"/>
<polygon fill="black" stroke="black" points="237.29,-1758.94 247.88,-1759.07 239.68,-1752.36 237.29,-1758.94"/>
</g>
<!-- KVTKWindow__view_angle -->
<g id="node50" class="node">
<title>KVTKWindow__view_angle</title>
<polygon fill="#f0f0f0" fill-opacity="0.627451" stroke="black" points="313,-1838 246,-1838 246,-1802 313,-1802 313,-1838"/>
<text text-anchor="middle" x="279.5" y="-1817.5" font-family="sans-serif" font-size="10.00">view_angle</text>
</g>
<!-- KVTKWindow&#45;&gt;KVTKWindow__view_angle -->
<g id="edge44" class="edge">
<title>KVTKWindow&#45;&gt;KVTKWindow__view_angle</title>
<path fill="none" stroke="black" d="M98.45,-1514.05C104.88,-1564.87 129.85,-1710.82 211,-1793 217.98,-1800.07 227.04,-1805.34 236.25,-1809.25"/>
<polygon fill="black" stroke="black" points="235.23,-1812.61 245.82,-1812.86 237.69,-1806.06 235.23,-1812.61"/>
</g>
</g>
</svg>
