<?xml version="1.0" encoding="UTF-8" standalone="no"?>
<!DOCTYPE svg PUBLIC "-//W3C//DTD SVG 1.1//EN"
 "http://www.w3.org/Graphics/SVG/1.1/DTD/svg11.dtd">
<!-- Generated by graphviz version 5.0.0 (0)
 -->
<!-- Pages: 1 -->
<svg width="530pt" height="2170pt"
 viewBox="0.00 0.00 530.00 2170.00" xmlns="http://www.w3.org/2000/svg" xmlns:xlink="http://www.w3.org/1999/xlink">
<g id="graph0" class="graph" transform="scale(1 1) rotate(0) translate(4 2166)">
<polygon fill="white" stroke="transparent" points="-4,4 -4,-2166 526,-2166 526,4 -4,4"/>
<g id="clust1" class="cluster">
<title>cluster_KApplicationRunner</title>
<polygon fill="#a0a0a0" fill-opacity="0.125490" stroke="black" stroke-width="2" points="60.5,-8 60.5,-134 513,-134 513,-8 60.5,-8"/>
<text text-anchor="middle" x="286.75" y="-121.2" font-family="sans-serif,bold" font-size="11.00">KApplicationRunner</text>
</g>
<g id="clust3" class="cluster">
<title>cluster_KNamedReference</title>
<polygon fill="#a0a0a0" fill-opacity="0.125490" stroke="black" stroke-width="2" points="384,-34 384,-106 505,-106 505,-34 384,-34"/>
<text text-anchor="middle" x="444.5" y="-93.2" font-family="sans-serif,bold" font-size="11.00">KNamedReference</text>
</g>
<g id="clust4" class="cluster">
<title>cluster_KMessageTable</title>
<polygon fill="#a0a0a0" fill-opacity="0.125490" stroke="black" stroke-width="2" points="52.5,-142 52.5,-592 514,-592 514,-142 52.5,-142"/>
<text text-anchor="middle" x="283.25" y="-579.2" font-family="sans-serif,bold" font-size="11.00">KMessageTable</text>
</g>
<g id="clust6" class="cluster">
<title>cluster_KMessageData</title>
<polygon fill="#a0a0a0" fill-opacity="0.125490" stroke="black" stroke-width="2" points="382,-168 382,-564 506,-564 506,-168 382,-168"/>
<text text-anchor="middle" x="444" y="-551.2" font-family="sans-serif,bold" font-size="11.00">KMessageData</text>
</g>
<g id="clust7" class="cluster">
<title>cluster_KommonNamedRandomGenerator</title>
<polygon fill="#a0a0a0" fill-opacity="0.125490" stroke="black" stroke-width="2" points="8,-600 8,-726 314.5,-726 314.5,-600 8,-600"/>
<text text-anchor="middle" x="161.25" y="-713.2" font-family="sans-serif,bold" font-size="11.00">KommonNamedRandomGenerator</text>
</g>
<g id="clust8" class="cluster">
<title>cluster_KDummyRandom</title>
<polygon fill="#a0a0a0" fill-opacity="0.125490" stroke="black" stroke-width="2" points="56.5,-734 56.5,-806 314.5,-806 314.5,-734 56.5,-734"/>
<text text-anchor="middle" x="185.5" y="-793.2" font-family="sans-serif,bold" font-size="11.00">KDummyRandom</text>
</g>
<g id="clust9" class="cluster">
<title>cluster_KROOTWindow</title>
<polygon fill="#a0a0a0" fill-opacity="0.125490" stroke="black" stroke-width="2" points="44,-814 44,-1210 490,-1210 490,-814 44,-814"/>
<text text-anchor="middle" x="267" y="-1197.2" font-family="sans-serif,bold" font-size="11.00">KROOTWindow</text>
</g>
<g id="clust11" class="cluster">
<title>cluster_KROOTPad</title>
<polygon fill="#a0a0a0" fill-opacity="0.125490" stroke="black" stroke-width="2" points="407,-894 407,-1182 482,-1182 482,-894 407,-894"/>
<text text-anchor="middle" x="444.5" y="-1169.2" font-family="sans-serif,bold" font-size="11.00">KROOTPad</text>
</g>
<g id="clust12" class="cluster">
<title>cluster_KVTKWindow</title>
<polygon fill="#a0a0a0" fill-opacity="0.125490" stroke="black" stroke-width="2" points="46.5,-1218 46.5,-2154 356,-2154 356,-1218 46.5,-1218"/>
<text text-anchor="middle" x="201.25" y="-2141.2" font-family="sans-serif,bold" font-size="11.00">KVTKWindow</text>
</g>
<!-- KApplicationRunner__run -->
<g id="node1" class="node">
<title>KApplicationRunner__run</title>
<polygon fill="#ff7c00" fill-opacity="0.627451" stroke="black" points="122.5,-79 68.5,-79 68.5,-43 122.5,-43 122.5,-79"/>
<text text-anchor="middle" x="95.5" y="-58.2" font-family="sans-serif,bold" font-size="11.00">run</text>
</g>
<!-- KApplicationRunner__run__name -->
<g id="node2" class="node">
<title>KApplicationRunner__run__name</title>
<polygon fill="#f0f0f0" fill-opacity="0.627451" stroke="black" points="306.5,-52 252.5,-52 252.5,-16 306.5,-16 306.5,-52"/>
<text text-anchor="middle" x="279.5" y="-31.5" font-family="sans-serif" font-size="10.00">name</text>
</g>
<!-- KApplicationRunner__run&#45;&gt;KApplicationRunner__run__name -->
<g id="edge1" class="edge">
<title>KApplicationRunner__run&#45;&gt;KApplicationRunner__run__name</title>
<path fill="none" stroke="black" d="M122.58,-57.13C154.07,-52.46 207.2,-44.58 242.56,-39.33"/>
<polygon fill="black" stroke="black" points="243.09,-42.79 252.47,-37.86 242.07,-35.87 243.09,-42.79"/>
</g>
<!-- KNamedReference__app -->
<g id="node3" class="node">
<title>KNamedReference__app</title>
<polygon fill="#ff7c00" fill-opacity="0.627451" stroke="black" points="306.5,-106 252.5,-106 252.5,-70 306.5,-70 306.5,-106"/>
<text text-anchor="middle" x="279.5" y="-85.2" font-family="sans-serif,bold" font-size="11.00">app</text>
</g>
<!-- KApplicationRunner__run&#45;&gt;KNamedReference__app -->
<g id="edge2" class="edge">
<title>KApplicationRunner__run&#45;&gt;KNamedReference__app</title>
<path fill="none" stroke="black" d="M122.58,-64.87C154.07,-69.54 207.2,-77.42 242.56,-82.67"/>
<polygon fill="black" stroke="black" points="242.07,-86.13 252.47,-84.14 243.09,-79.21 242.07,-86.13"/>
</g>
<!-- KNamedReference__app__Name -->
<g id="node4" class="node">
<title>KNamedReference__app__Name</title>
<polygon fill="#f0f0f0" fill-opacity="0.627451" stroke="black" points="471,-78 417,-78 417,-42 471,-42 471,-78"/>
<text text-anchor="middle" x="444" y="-57.5" font-family="sans-serif" font-size="10.00">Name</text>
</g>
<!-- KNamedReference__app&#45;&gt;KNamedReference__app__Name -->
<g id="edge3" class="edge">
<title>KNamedReference__app&#45;&gt;KNamedReference__app__Name</title>
<path fill="none" stroke="black" d="M306.61,-83.5C333.73,-78.83 376.39,-71.48 406.77,-66.24"/>
<polygon fill="black" stroke="black" points="407.7,-69.63 416.96,-64.49 406.51,-62.74 407.7,-69.63"/>
</g>
<!-- KMessageTable__messages -->
<g id="node5" class="node">
<title>KMessageTable__messages</title>
<polygon fill="#ff7c00" fill-opacity="0.627451" stroke="black" points="130.5,-375 60.5,-375 60.5,-339 130.5,-339 130.5,-375"/>
<text text-anchor="middle" x="95.5" y="-354.2" font-family="sans-serif,bold" font-size="11.00">messages</text>
</g>
<!-- KMessageTable__messages__format -->
<g id="node6" class="node">
<title>KMessageTable__messages__format</title>
<polygon fill="#f0f0f0" fill-opacity="0.627451" stroke="black" points="306.5,-186 252.5,-186 252.5,-150 306.5,-150 306.5,-186"/>
<text text-anchor="middle" x="279.5" y="-165.5" font-family="sans-serif" font-size="10.00">format</text>
</g>
<!-- KMessageTable__messages&#45;&gt;KMessageTable__messages__format -->
<g id="edge4" class="edge">
<title>KMessageTable__messages&#45;&gt;KMessageTable__messages__format</title>
<path fill="none" stroke="black" d="M104.91,-338.85C121.04,-305.87 159.36,-235.75 211,-195 220.26,-187.7 231.74,-182.13 242.6,-178"/>
<polygon fill="black" stroke="black" points="244.03,-181.21 252.31,-174.61 241.72,-174.6 244.03,-181.21"/>
</g>
<!-- KMessageTable__messages__log -->
<g id="node7" class="node">
<title>KMessageTable__messages__log</title>
<polygon fill="#f0f0f0" fill-opacity="0.627451" stroke="black" points="306.5,-240 252.5,-240 252.5,-204 306.5,-204 306.5,-240"/>
<text text-anchor="middle" x="279.5" y="-219.5" font-family="sans-serif" font-size="10.00">log</text>
</g>
<!-- KMessageTable__messages&#45;&gt;KMessageTable__messages__log -->
<g id="edge5" class="edge">
<title>KMessageTable__messages&#45;&gt;KMessageTable__messages__log</title>
<path fill="none" stroke="black" d="M111.88,-338.73C132.43,-315.29 170.93,-274.59 211,-249 220.77,-242.76 232.23,-237.52 242.89,-233.37"/>
<polygon fill="black" stroke="black" points="244.23,-236.61 252.4,-229.86 241.8,-230.04 244.23,-236.61"/>
</g>
<!-- KMessageTable__messages__parser_context -->
<g id="node8" class="node">
<title>KMessageTable__messages__parser_context</title>
<polygon fill="#f0f0f0" fill-opacity="0.627451" stroke="black" points="322.5,-294 236.5,-294 236.5,-258 322.5,-258 322.5,-294"/>
<text text-anchor="middle" x="279.5" y="-273.5" font-family="sans-serif" font-size="10.00">parser_context</text>
</g>
<!-- KMessageTable__messages&#45;&gt;KMessageTable__messages__parser_context -->
<g id="edge6" class="edge">
<title>KMessageTable__messages&#45;&gt;KMessageTable__messages__parser_context</title>
<path fill="none" stroke="black" d="M130.57,-340.27C153.22,-329.32 183.69,-314.89 211,-303 216.06,-300.8 221.37,-298.56 226.68,-296.36"/>
<polygon fill="black" stroke="black" points="228.28,-299.49 236.21,-292.46 225.63,-293.01 228.28,-299.49"/>
</g>
<!-- KMessageTable__messages__precision -->
<g id="node9" class="node">
<title>KMessageTable__messages__precision</title>
<polygon fill="#f0f0f0" fill-opacity="0.627451" stroke="black" points="308.5,-348 250.5,-348 250.5,-312 308.5,-312 308.5,-348"/>
<text text-anchor="middle" x="279.5" y="-327.5" font-family="sans-serif" font-size="10.00">precision</text>
</g>
<!-- KMessageTable__messages&#45;&gt;KMessageTable__messages__precision -->
<g id="edge7" class="edge">
<title>KMessageTable__messages&#45;&gt;KMessageTable__messages__precision</title>
<path fill="none" stroke="black" d="M130.73,-351.92C161.95,-347.29 208.01,-340.46 240.39,-335.65"/>
<polygon fill="black" stroke="black" points="241.01,-339.1 250.39,-334.17 239.98,-332.18 241.01,-339.1"/>
</g>
<!-- KMessageTable__messages__shutdown_message -->
<g id="node10" class="node">
<title>KMessageTable__messages__shutdown_message</title>
<polygon fill="#f0f0f0" fill-opacity="0.627451" stroke="black" points="333.5,-402 225.5,-402 225.5,-366 333.5,-366 333.5,-402"/>
<text text-anchor="middle" x="279.5" y="-381.5" font-family="sans-serif" font-size="10.00">shutdown_message</text>
</g>
<!-- KMessageTable__messages&#45;&gt;KMessageTable__messages__shutdown_message -->
<g id="edge8" class="edge">
<title>KMessageTable__messages&#45;&gt;KMessageTable__messages__shutdown_message</title>
<path fill="none" stroke="black" d="M130.73,-362.08C154.49,-365.6 186.83,-370.4 215.2,-374.61"/>
<polygon fill="black" stroke="black" points="215.05,-378.12 225.45,-376.13 216.07,-371.2 215.05,-378.12"/>
</g>
<!-- KMessageTable__messages__terminal -->
<g id="node11" class="node">
<title>KMessageTable__messages__terminal</title>
<polygon fill="#f0f0f0" fill-opacity="0.627451" stroke="black" points="307.5,-456 251.5,-456 251.5,-420 307.5,-420 307.5,-456"/>
<text text-anchor="middle" x="279.5" y="-435.5" font-family="sans-serif" font-size="10.00">terminal</text>
</g>
<!-- KMessageTable__messages&#45;&gt;KMessageTable__messages__terminal -->
<g id="edge9" class="edge">
<title>KMessageTable__messages&#45;&gt;KMessageTable__messages__terminal</title>
<path fill="none" stroke="black" d="M130.57,-373.73C153.22,-384.68 183.69,-399.11 211,-411 221,-415.35 231.93,-419.84 242.04,-423.88"/>
<polygon fill="black" stroke="black" points="240.83,-427.16 251.41,-427.6 243.4,-420.66 240.83,-427.16"/>
</g>
<!-- KTextFile__file -->
<g id="node12" class="node">
<title>KTextFile__file</title>
<polygon fill="#ff7c00" fill-opacity="0.627451" stroke="black" points="306.5,-510 252.5,-510 252.5,-474 306.5,-474 306.5,-510"/>
<text text-anchor="middle" x="279.5" y="-489.2" font-family="sans-serif,bold" font-size="11.00">file</text>
</g>
<!-- KMessageTable__messages&#45;&gt;KTextFile__file -->
<g id="edge10" class="edge">
<title>KMessageTable__messages&#45;&gt;KTextFile__file</title>
<path fill="none" stroke="black" d="M111.88,-375.27C132.43,-398.71 170.93,-439.41 211,-465 220.77,-471.24 232.23,-476.48 242.89,-480.63"/>
<polygon fill="black" stroke="black" points="241.8,-483.96 252.4,-484.14 244.23,-477.39 241.8,-483.96"/>
</g>
<!-- KMessageData__message -->
<g id="node13" class="node">
<title>KMessageData__message</title>
<polygon fill="#ff7c00" fill-opacity="0.627451" stroke="black" points="312,-564 247,-564 247,-528 312,-528 312,-564"/>
<text text-anchor="middle" x="279.5" y="-543.2" font-family="sans-serif,bold" font-size="11.00">message</text>
</g>
<!-- KMessageTable__messages&#45;&gt;KMessageData__message -->
<g id="edge11" class="edge">
<title>KMessageTable__messages&#45;&gt;KMessageData__message</title>
<path fill="none" stroke="black" d="M104.91,-375.15C121.04,-408.13 159.36,-478.25 211,-519 218.8,-525.15 228.17,-530.07 237.43,-533.94"/>
<polygon fill="black" stroke="black" points="236.36,-537.28 246.95,-537.59 238.87,-530.74 236.36,-537.28"/>
</g>
<!-- KMessageData__message__format -->
<g id="node14" class="node">
<title>KMessageData__message__format</title>
<polygon fill="#f0f0f0" fill-opacity="0.627451" stroke="black" points="471,-536 417,-536 417,-500 471,-500 471,-536"/>
<text text-anchor="middle" x="444" y="-515.5" font-family="sans-serif" font-size="10.00">format</text>
</g>
<!-- KMessageData__message&#45;&gt;KMessageData__message__format -->
<g id="edge12" class="edge">
<title>KMessageData__message&#45;&gt;KMessageData__message__format</title>
<path fill="none" stroke="black" d="M312.22,-540.53C339.45,-535.84 378.68,-529.08 407.06,-524.19"/>
<polygon fill="black" stroke="black" points="407.72,-527.63 416.99,-522.48 406.54,-520.73 407.72,-527.63"/>
</g>
<!-- KMessageData__message__key -->
<g id="node15" class="node">
<title>KMessageData__message__key</title>
<polygon fill="#f0f0f0" fill-opacity="0.627451" stroke="black" points="471,-482 417,-482 417,-446 471,-446 471,-482"/>
<text text-anchor="middle" x="444" y="-461.5" font-family="sans-serif" font-size="10.00">key</text>
</g>
<!-- KMessageData__message&#45;&gt;KMessageData__message__key -->
<g id="edge13" class="edge">
<title>KMessageData__message&#45;&gt;KMessageData__message__key</title>
<path fill="none" stroke="black" d="M312.19,-538.36C326.33,-534.05 342.75,-527.74 356,-519 370.18,-509.65 368.17,-500.86 382,-491 389.76,-485.47 398.82,-480.7 407.56,-476.79"/>
<polygon fill="black" stroke="black" points="408.98,-479.98 416.83,-472.87 406.26,-473.54 408.98,-479.98"/>
</g>
<!-- KMessageData__message__log -->
<g id="node16" class="node">
<title>KMessageData__message__log</title>
<polygon fill="#f0f0f0" fill-opacity="0.627451" stroke="black" points="471,-428 417,-428 417,-392 471,-392 471,-428"/>
<text text-anchor="middle" x="444" y="-407.5" font-family="sans-serif" font-size="10.00">log</text>
</g>
<!-- KMessageData__message&#45;&gt;KMessageData__message__log -->
<g id="edge14" class="edge">
<title>KMessageData__message&#45;&gt;KMessageData__message__log</title>
<path fill="none" stroke="black" d="M312.35,-541.32C327.38,-537.6 344.5,-530.92 356,-519 382.54,-491.48 356.49,-465.48 382,-437 388.77,-429.45 398.04,-423.9 407.32,-419.87"/>
<polygon fill="black" stroke="black" points="408.8,-423.05 416.88,-416.21 406.29,-416.52 408.8,-423.05"/>
</g>
<!-- KMessageData__message__parser_context -->
<g id="node17" class="node">
<title>KMessageData__message__parser_context</title>
<polygon fill="#f0f0f0" fill-opacity="0.627451" stroke="black" points="487,-374 401,-374 401,-338 487,-338 487,-374"/>
<text text-anchor="middle" x="444" y="-353.5" font-family="sans-serif" font-size="10.00">parser_context</text>
</g>
<!-- KMessageData__message&#45;&gt;KMessageData__message__parser_context -->
<g id="edge15" class="edge">
<title>KMessageData__message&#45;&gt;KMessageData__message__parser_context</title>
<path fill="none" stroke="black" d="M312.2,-542.07C327.58,-538.53 345.04,-531.79 356,-519 396.03,-472.26 343.71,-431.18 382,-383 384.87,-379.38 388.33,-376.24 392.13,-373.51"/>
<polygon fill="black" stroke="black" points="394.16,-376.36 400.86,-368.16 390.51,-370.39 394.16,-376.36"/>
</g>
<!-- KMessageData__message__precision -->
<g id="node18" class="node">
<title>KMessageData__message__precision</title>
<polygon fill="#f0f0f0" fill-opacity="0.627451" stroke="black" points="473,-320 415,-320 415,-284 473,-284 473,-320"/>
<text text-anchor="middle" x="444" y="-299.5" font-family="sans-serif" font-size="10.00">precision</text>
</g>
<!-- KMessageData__message&#45;&gt;KMessageData__message__precision -->
<g id="edge16" class="edge">
<title>KMessageData__message&#45;&gt;KMessageData__message__precision</title>
<path fill="none" stroke="black" d="M312.11,-542.39C327.65,-538.94 345.3,-532.19 356,-519 409.7,-452.82 330.76,-397.11 382,-329 387.89,-321.17 396.55,-315.57 405.51,-311.57"/>
<polygon fill="black" stroke="black" points="406.78,-314.84 414.84,-307.97 404.25,-308.31 406.78,-314.84"/>
</g>
<!-- KMessageData__message__shutdown_message -->
<g id="node19" class="node">
<title>KMessageData__message__shutdown_message</title>
<polygon fill="#f0f0f0" fill-opacity="0.627451" stroke="black" points="498,-266 390,-266 390,-230 498,-230 498,-266"/>
<text text-anchor="middle" x="444" y="-245.5" font-family="sans-serif" font-size="10.00">shutdown_message</text>
</g>
<!-- KMessageData__message&#45;&gt;KMessageData__message__shutdown_message -->
<g id="edge17" class="edge">
<title>KMessageData__message&#45;&gt;KMessageData__message__shutdown_message</title>
<path fill="none" stroke="black" d="M312.27,-542.52C327.86,-539.1 345.5,-532.35 356,-519 423.45,-433.3 317.74,-363.11 382,-275 382.46,-274.37 382.94,-273.75 383.43,-273.15"/>
<polygon fill="black" stroke="black" points="385.98,-275.56 390.72,-266.09 381.11,-270.53 385.98,-275.56"/>
</g>
<!-- KMessageData__message__terminal -->
<g id="node20" class="node">
<title>KMessageData__message__terminal</title>
<polygon fill="#f0f0f0" fill-opacity="0.627451" stroke="black" points="472,-212 416,-212 416,-176 472,-176 472,-212"/>
<text text-anchor="middle" x="444" y="-191.5" font-family="sans-serif" font-size="10.00">terminal</text>
</g>
<!-- KMessageData__message&#45;&gt;KMessageData__message__terminal -->
<g id="edge18" class="edge">
<title>KMessageData__message&#45;&gt;KMessageData__message__terminal</title>
<path fill="none" stroke="black" d="M312.37,-542.6C327.99,-539.21 345.63,-532.45 356,-519 396.61,-466.37 343.35,-275.08 382,-221 387.9,-212.75 396.9,-206.98 406.19,-202.97"/>
<polygon fill="black" stroke="black" points="407.7,-206.14 415.86,-199.39 405.27,-199.58 407.7,-206.14"/>
</g>
<!-- KommonNamedRandomGenerator__NamedRandomGenerator -->
<g id="node21" class="node">
<title>KommonNamedRandomGenerator__NamedRandomGenerator</title>
<polygon fill="#ff7c00" fill-opacity="0.627451" stroke="black" points="175,-671 16,-671 16,-635 175,-635 175,-671"/>
<text text-anchor="middle" x="95.5" y="-650.2" font-family="sans-serif,bold" font-size="11.00">NamedRandomGenerator</text>
</g>
<!-- KommonNamedRandomGenerator__NamedRandomGenerator__Name -->
<g id="node22" class="node">
<title>KommonNamedRandomGenerator__NamedRandomGenerator__Name</title>
<polygon fill="#f0f0f0" fill-opacity="0.627451" stroke="black" points="306.5,-644 252.5,-644 252.5,-608 306.5,-608 306.5,-644"/>
<text text-anchor="middle" x="279.5" y="-623.5" font-family="sans-serif" font-size="10.00">Name</text>
</g>
<!-- KommonNamedRandomGenerator__NamedRandomGenerator&#45;&gt;KommonNamedRandomGenerator__NamedRandomGenerator__Name -->
<g id="edge19" class="edge">
<title>KommonNamedRandomGenerator__NamedRandomGenerator&#45;&gt;KommonNamedRandomGenerator__NamedRandomGenerator__Name</title>
<path fill="none" stroke="black" d="M175,-641.35C198.38,-637.89 222.88,-634.25 242.17,-631.39"/>
<polygon fill="black" stroke="black" points="242.94,-634.81 252.31,-629.88 241.91,-627.89 242.94,-634.81"/>
</g>
<!-- KommonNamedRandomGenerator__NamedRandomGenerator__Seed -->
<g id="node23" class="node">
<title>KommonNamedRandomGenerator__NamedRandomGenerator__Seed</title>
<polygon fill="#f0f0f0" fill-opacity="0.627451" stroke="black" points="306.5,-698 252.5,-698 252.5,-662 306.5,-662 306.5,-698"/>
<text text-anchor="middle" x="279.5" y="-677.5" font-family="sans-serif" font-size="10.00">Seed</text>
</g>
<!-- KommonNamedRandomGenerator__NamedRandomGenerator&#45;&gt;KommonNamedRandomGenerator__NamedRandomGenerator__Seed -->
<g id="edge20" class="edge">
<title>KommonNamedRandomGenerator__NamedRandomGenerator&#45;&gt;KommonNamedRandomGenerator__NamedRandomGenerator__Seed</title>
<path fill="none" stroke="black" d="M175,-664.65C198.38,-668.11 222.88,-671.75 242.17,-674.61"/>
<polygon fill="black" stroke="black" points="241.91,-678.11 252.31,-676.12 242.94,-671.19 241.91,-678.11"/>
</g>
<!-- KDummyRandom__Random -->
<g id="node24" class="node">
<title>KDummyRandom__Random</title>
<polygon fill="#ff7c00" fill-opacity="0.627451" stroke="black" points="126.5,-778 64.5,-778 64.5,-742 126.5,-742 126.5,-778"/>
<text text-anchor="middle" x="95.5" y="-757.2" font-family="sans-serif,bold" font-size="11.00">Random</text>
</g>
<!-- KDummyRandom__Random__Seed -->
<g id="node25" class="node">
<title>KDummyRandom__Random__Seed</title>
<polygon fill="#f0f0f0" fill-opacity="0.627451" stroke="black" points="306.5,-778 252.5,-778 252.5,-742 306.5,-742 306.5,-778"/>
<text text-anchor="middle" x="279.5" y="-757.5" font-family="sans-serif" font-size="10.00">Seed</text>
</g>
<!-- KDummyRandom__Random&#45;&gt;KDummyRandom__Random__Seed -->
<g id="edge21" class="edge">
<title>KDummyRandom__Random&#45;&gt;KDummyRandom__Random__Seed</title>
<path fill="none" stroke="black" d="M126.55,-760C158.17,-760 207.94,-760 241.84,-760"/>
<polygon fill="black" stroke="black" points="242.25,-763.5 252.25,-760 242.25,-756.5 242.25,-763.5"/>
</g>
<!-- KROOTWindow__root_window -->
<g id="node26" class="node">
<title>KROOTWindow__root_window</title>
<polygon fill="#ff7c00" fill-opacity="0.627451" stroke="black" points="139,-1020 52,-1020 52,-984 139,-984 139,-1020"/>
<text text-anchor="middle" x="95.5" y="-999.2" font-family="sans-serif,bold" font-size="11.00">root_window</text>
</g>
<!-- KROOTWindow__root_window__active -->
<g id="node27" class="node">
<title>KROOTWindow__root_window__active</title>
<polygon fill="#f0f0f0" fill-opacity="0.627451" stroke="black" points="306.5,-858 252.5,-858 252.5,-822 306.5,-822 306.5,-858"/>
<text text-anchor="middle" x="279.5" y="-837.5" font-family="sans-serif" font-size="10.00">active</text>
</g>
<!-- KROOTWindow__root_window&#45;&gt;KROOTWindow__root_window__active -->
<g id="edge22" class="edge">
<title>KROOTWindow__root_window&#45;&gt;KROOTWindow__root_window__active</title>
<path fill="none" stroke="black" d="M107.69,-983.81C126.03,-955.32 165.11,-900.04 211,-867 220.49,-860.17 231.95,-854.75 242.71,-850.61"/>
<polygon fill="black" stroke="black" points="244.09,-853.83 252.32,-847.16 241.73,-847.24 244.09,-853.83"/>
</g>
<!-- KROOTWindow__root_window__canvas_height -->
<g id="node28" class="node">
<title>KROOTWindow__root_window__canvas_height</title>
<polygon fill="#f0f0f0" fill-opacity="0.627451" stroke="black" points="320.5,-912 238.5,-912 238.5,-876 320.5,-876 320.5,-912"/>
<text text-anchor="middle" x="279.5" y="-891.5" font-family="sans-serif" font-size="10.00">canvas_height</text>
</g>
<!-- KROOTWindow__root_window&#45;&gt;KROOTWindow__root_window__canvas_height -->
<g id="edge23" class="edge">
<title>KROOTWindow__root_window&#45;&gt;KROOTWindow__root_window__canvas_height</title>
<path fill="none" stroke="black" d="M118.71,-983.89C141.06,-966.26 176.99,-939.5 211,-921 216.6,-917.95 222.62,-915.06 228.68,-912.37"/>
<polygon fill="black" stroke="black" points="230.34,-915.47 238.17,-908.33 227.6,-909.03 230.34,-915.47"/>
</g>
<!-- KROOTWindow__root_window__canvas_width -->
<g id="node29" class="node">
<title>KROOTWindow__root_window__canvas_width</title>
<polygon fill="#f0f0f0" fill-opacity="0.627451" stroke="black" points="318,-966 241,-966 241,-930 318,-930 318,-966"/>
<text text-anchor="middle" x="279.5" y="-945.5" font-family="sans-serif" font-size="10.00">canvas_width</text>
</g>
<!-- KROOTWindow__root_window&#45;&gt;KROOTWindow__root_window__canvas_width -->
<g id="edge24" class="edge">
<title>KROOTWindow__root_window&#45;&gt;KROOTWindow__root_window__canvas_width</title>
<path fill="none" stroke="black" d="M139.17,-989.34C166.71,-981.17 202.56,-970.53 231,-962.09"/>
<polygon fill="black" stroke="black" points="232.14,-965.41 240.73,-959.21 230.15,-958.7 232.14,-965.41"/>
</g>
<!-- KROOTWindow__root_window__name -->
<g id="node30" class="node">
<title>KROOTWindow__root_window__name</title>
<polygon fill="#f0f0f0" fill-opacity="0.627451" stroke="black" points="306.5,-1020 252.5,-1020 252.5,-984 306.5,-984 306.5,-1020"/>
<text text-anchor="middle" x="279.5" y="-999.5" font-family="sans-serif" font-size="10.00">name</text>
</g>
<!-- KROOTWindow__root_window&#45;&gt;KROOTWindow__root_window__name -->
<g id="edge25" class="edge">
<title>KROOTWindow__root_window&#45;&gt;KROOTWindow__root_window__name</title>
<path fill="none" stroke="black" d="M139.17,-1002C170.42,-1002 212.39,-1002 242.08,-1002"/>
<polygon fill="black" stroke="black" points="242.41,-1005.5 252.41,-1002 242.41,-998.5 242.41,-1005.5"/>
</g>
<!-- KROOTWindow__root_window__path -->
<g id="node31" class="node">
<title>KROOTWindow__root_window__path</title>
<polygon fill="#f0f0f0" fill-opacity="0.627451" stroke="black" points="306.5,-1074 252.5,-1074 252.5,-1038 306.5,-1038 306.5,-1074"/>
<text text-anchor="middle" x="279.5" y="-1053.5" font-family="sans-serif" font-size="10.00">path</text>
</g>
<!-- KROOTWindow__root_window&#45;&gt;KROOTWindow__root_window__path -->
<g id="edge26" class="edge">
<title>KROOTWindow__root_window&#45;&gt;KROOTWindow__root_window__path</title>
<path fill="none" stroke="black" d="M139.17,-1014.66C170.56,-1023.97 212.76,-1036.5 242.47,-1045.31"/>
<polygon fill="black" stroke="black" points="241.83,-1048.77 252.41,-1048.26 243.82,-1042.06 241.83,-1048.77"/>
</g>
<!-- KROOTWindow__root_window__write_enabled -->
<g id="node32" class="node">
<title>KROOTWindow__root_window__write_enabled</title>
<polygon fill="#f0f0f0" fill-opacity="0.627451" stroke="black" points="321,-1128 238,-1128 238,-1092 321,-1092 321,-1128"/>
<text text-anchor="middle" x="279.5" y="-1107.5" font-family="sans-serif" font-size="10.00">write_enabled</text>
</g>
<!-- KROOTWindow__root_window&#45;&gt;KROOTWindow__root_window__write_enabled -->
<g id="edge27" class="edge">
<title>KROOTWindow__root_window&#45;&gt;KROOTWindow__root_window__write_enabled</title>
<path fill="none" stroke="black" d="M118.71,-1020.11C141.06,-1037.74 176.99,-1064.5 211,-1083 216.53,-1086.01 222.47,-1088.87 228.44,-1091.52"/>
<polygon fill="black" stroke="black" points="227.24,-1094.82 237.81,-1095.52 229.99,-1088.38 227.24,-1094.82"/>
</g>
<!-- KROOTPad__root_pad -->
<g id="node33" class="node">
<title>KROOTPad__root_pad</title>
<polygon fill="#ff7c00" fill-opacity="0.627451" stroke="black" points="311.5,-1182 247.5,-1182 247.5,-1146 311.5,-1146 311.5,-1182"/>
<text text-anchor="middle" x="279.5" y="-1161.2" font-family="sans-serif,bold" font-size="11.00">root_pad</text>
</g>
<!-- KROOTWindow__root_window&#45;&gt;KROOTPad__root_pad -->
<g id="edge28" class="edge">
<title>KROOTWindow__root_window&#45;&gt;KROOTPad__root_pad</title>
<path fill="none" stroke="black" d="M107.69,-1020.19C126.03,-1048.68 165.11,-1103.96 211,-1137 219.06,-1142.8 228.54,-1147.59 237.81,-1151.43"/>
<polygon fill="black" stroke="black" points="236.73,-1154.77 247.32,-1155.1 239.25,-1148.24 236.73,-1154.77"/>
</g>
<!-- KROOTPad__root_pad__name -->
<g id="node34" class="node">
<title>KROOTPad__root_pad__name</title>
<polygon fill="#f0f0f0" fill-opacity="0.627451" stroke="black" points="471,-1154 417,-1154 417,-1118 471,-1118 471,-1154"/>
<text text-anchor="middle" x="444" y="-1133.5" font-family="sans-serif" font-size="10.00">name</text>
</g>
<!-- KROOTPad__root_pad&#45;&gt;KROOTPad__root_pad__name -->
<g id="edge29" class="edge">
<title>KROOTPad__root_pad&#45;&gt;KROOTPad__root_pad__name</title>
<path fill="none" stroke="black" d="M311.83,-1158.6C339.02,-1153.92 378.38,-1147.13 406.89,-1142.22"/>
<polygon fill="black" stroke="black" points="407.6,-1145.65 416.86,-1140.5 406.41,-1138.75 407.6,-1145.65"/>
</g>
<!-- KROOTPad__root_pad__xlow -->
<g id="node35" class="node">
<title>KROOTPad__root_pad__xlow</title>
<polygon fill="#f0f0f0" fill-opacity="0.627451" stroke="black" points="471,-1100 417,-1100 417,-1064 471,-1064 471,-1100"/>
<text text-anchor="middle" x="444" y="-1079.5" font-family="sans-serif" font-size="10.00">xlow</text>
</g>
<!-- KROOTPad__root_pad&#45;&gt;KROOTPad__root_pad__xlow -->
<g id="edge30" class="edge">
<title>KROOTPad__root_pad&#45;&gt;KROOTPad__root_pad__xlow</title>
<path fill="none" stroke="black" d="M311.82,-1156.47C326.04,-1152.16 342.64,-1145.81 356,-1137 370.18,-1127.65 368.17,-1118.86 382,-1109 389.76,-1103.47 398.82,-1098.7 407.56,-1094.79"/>
<polygon fill="black" stroke="black" points="408.98,-1097.98 416.83,-1090.87 406.26,-1091.54 408.98,-1097.98"/>
</g>
<!-- KROOTPad__root_pad__xup -->
<g id="node36" class="node">
<title>KROOTPad__root_pad__xup</title>
<polygon fill="#f0f0f0" fill-opacity="0.627451" stroke="black" points="471,-1046 417,-1046 417,-1010 471,-1010 471,-1046"/>
<text text-anchor="middle" x="444" y="-1025.5" font-family="sans-serif" font-size="10.00">xup</text>
</g>
<!-- KROOTPad__root_pad&#45;&gt;KROOTPad__root_pad__xup -->
<g id="edge31" class="edge">
<title>KROOTPad__root_pad&#45;&gt;KROOTPad__root_pad__xup</title>
<path fill="none" stroke="black" d="M311.59,-1159.51C326.8,-1155.82 344.31,-1149.13 356,-1137 382.54,-1109.48 356.49,-1083.48 382,-1055 388.77,-1047.45 398.04,-1041.9 407.32,-1037.87"/>
<polygon fill="black" stroke="black" points="408.8,-1041.05 416.88,-1034.21 406.29,-1034.52 408.8,-1041.05"/>
</g>
<!-- KROOTPad__root_pad__ylow -->
<g id="node37" class="node">
<title>KROOTPad__root_pad__ylow</title>
<polygon fill="#f0f0f0" fill-opacity="0.627451" stroke="black" points="471,-992 417,-992 417,-956 471,-956 471,-992"/>
<text text-anchor="middle" x="444" y="-971.5" font-family="sans-serif" font-size="10.00">ylow</text>
</g>
<!-- KROOTPad__root_pad&#45;&gt;KROOTPad__root_pad__ylow -->
<g id="edge32" class="edge">
<title>KROOTPad__root_pad&#45;&gt;KROOTPad__root_pad__ylow</title>
<path fill="none" stroke="black" d="M311.82,-1160.15C327.29,-1156.64 344.95,-1149.9 356,-1137 396.03,-1090.26 343.71,-1049.18 382,-1001 388.48,-992.84 397.95,-987.08 407.5,-983.04"/>
<polygon fill="black" stroke="black" points="408.79,-986.29 416.97,-979.55 406.37,-979.73 408.79,-986.29"/>
</g>
<!-- KROOTPad__root_pad__yup -->
<g id="node38" class="node">
<title>KROOTPad__root_pad__yup</title>
<polygon fill="#f0f0f0" fill-opacity="0.627451" stroke="black" points="471,-938 417,-938 417,-902 471,-902 471,-938"/>
<text text-anchor="middle" x="444" y="-917.5" font-family="sans-serif" font-size="10.00">yup</text>
</g>
<!-- KROOTPad__root_pad&#45;&gt;KROOTPad__root_pad__yup -->
<g id="edge33" class="edge">
<title>KROOTPad__root_pad&#45;&gt;KROOTPad__root_pad__yup</title>
<path fill="none" stroke="black" d="M311.72,-1160.48C327.36,-1157.05 345.21,-1150.3 356,-1137 409.7,-1070.82 330.76,-1015.11 382,-947 388.27,-938.67 397.67,-932.86 407.22,-928.83"/>
<polygon fill="black" stroke="black" points="408.53,-932.08 416.72,-925.36 406.13,-925.5 408.53,-932.08"/>
</g>
<!-- KVTKWindow__vtk_window -->
<g id="node39" class="node">
<title>KVTKWindow__vtk_window</title>
<polygon fill="#ff7c00" fill-opacity="0.627451" stroke="black" points="136.5,-1694 54.5,-1694 54.5,-1658 136.5,-1658 136.5,-1694"/>
<text text-anchor="middle" x="95.5" y="-1673.2" font-family="sans-serif,bold" font-size="11.00">vtk_window</text>
</g>
<!-- KVTKWindow__vtk_window__depth_peeling -->
<g id="node40" class="node">
<title>KVTKWindow__vtk_window__depth_peeling</title>
<polygon fill="#f0f0f0" fill-opacity="0.627451" stroke="black" points="321,-1262 238,-1262 238,-1226 321,-1226 321,-1262"/>
<text text-anchor="middle" x="279.5" y="-1241.5" font-family="sans-serif" font-size="10.00">depth_peeling</text>
</g>
<!-- KVTKWindow__vtk_window&#45;&gt;KVTKWindow__vtk_window__depth_peeling -->
<g id="edge34" class="edge">
<title>KVTKWindow__vtk_window&#45;&gt;KVTKWindow__vtk_window__depth_peeling</title>
<path fill="none" stroke="black" d="M96.28,-1657.59C96.53,-1595.02 105.65,-1388.03 211,-1271 215.93,-1265.52 222.13,-1261.13 228.76,-1257.63"/>
<polygon fill="black" stroke="black" points="230.37,-1260.74 237.99,-1253.37 227.44,-1254.38 230.37,-1260.74"/>
</g>
<!-- KVTKWindow__vtk_window__enable_axis -->
<g id="node41" class="node">
<title>KVTKWindow__vtk_window__enable_axis</title>
<polygon fill="#f0f0f0" fill-opacity="0.627451" stroke="black" points="314.5,-1316 244.5,-1316 244.5,-1280 314.5,-1280 314.5,-1316"/>
<text text-anchor="middle" x="279.5" y="-1295.5" font-family="sans-serif" font-size="10.00">enable_axis</text>
</g>
<!-- KVTKWindow__vtk_window&#45;&gt;KVTKWindow__vtk_window__enable_axis -->
<g id="edge35" class="edge">
<title>KVTKWindow__vtk_window&#45;&gt;KVTKWindow__vtk_window__enable_axis</title>
<path fill="none" stroke="black" d="M97.23,-1657.65C100.46,-1600.63 117.88,-1424.4 211,-1325 217.46,-1318.1 225.92,-1312.93 234.66,-1309.06"/>
<polygon fill="black" stroke="black" points="236.12,-1312.25 244.16,-1305.36 233.58,-1305.73 236.12,-1312.25"/>
</g>
<!-- KVTKWindow__vtk_window__enable_data -->
<g id="node42" class="node">
<title>KVTKWindow__vtk_window__enable_data</title>
<polygon fill="#f0f0f0" fill-opacity="0.627451" stroke="black" points="316,-1370 243,-1370 243,-1334 316,-1334 316,-1370"/>
<text text-anchor="middle" x="279.5" y="-1349.5" font-family="sans-serif" font-size="10.00">enable_data</text>
</g>
<!-- KVTKWindow__vtk_window&#45;&gt;KVTKWindow__vtk_window__enable_data -->
<g id="edge36" class="edge">
<title>KVTKWindow__vtk_window&#45;&gt;KVTKWindow__vtk_window__enable_data</title>
<path fill="none" stroke="black" d="M98.45,-1657.95C104.88,-1607.13 129.85,-1461.18 211,-1379 217.25,-1372.67 225.17,-1367.78 233.38,-1364.02"/>
<polygon fill="black" stroke="black" points="234.74,-1367.24 242.68,-1360.23 232.1,-1360.76 234.74,-1367.24"/>
</g>
<!-- KVTKWindow__vtk_window__enable_display -->
<g id="node43" class="node">
<title>KVTKWindow__vtk_window__enable_display</title>
<polygon fill="#f0f0f0" fill-opacity="0.627451" stroke="black" points="321.5,-1424 237.5,-1424 237.5,-1388 321.5,-1388 321.5,-1424"/>
<text text-anchor="middle" x="279.5" y="-1403.5" font-family="sans-serif" font-size="10.00">enable_display</text>
</g>
<!-- KVTKWindow__vtk_window&#45;&gt;KVTKWindow__vtk_window__enable_display -->
<g id="edge37" class="edge">
<title>KVTKWindow__vtk_window&#45;&gt;KVTKWindow__vtk_window__enable_display</title>
<path fill="none" stroke="black" d="M100.25,-1657.74C110.31,-1613.24 141.91,-1498.07 211,-1433 216,-1428.29 221.92,-1424.36 228.16,-1421.1"/>
<polygon fill="black" stroke="black" points="229.84,-1424.17 237.43,-1416.77 226.89,-1417.83 229.84,-1424.17"/>
</g>
<!-- KVTKWindow__vtk_window__enable_help -->
<g id="node44" class="node">
<title>KVTKWindow__vtk_window__enable_help</title>
<polygon fill="#f0f0f0" fill-opacity="0.627451" stroke="black" points="316,-1478 243,-1478 243,-1442 316,-1442 316,-1478"/>
<text text-anchor="middle" x="279.5" y="-1457.5" font-family="sans-serif" font-size="10.00">enable_help</text>
</g>
<!-- KVTKWindow__vtk_window&#45;&gt;KVTKWindow__vtk_window__enable_help -->
<g id="edge38" class="edge">
<title>KVTKWindow__vtk_window&#45;&gt;KVTKWindow__vtk_window__enable_help</title>
<path fill="none" stroke="black" d="M102.97,-1657.73C117,-1620.58 153.65,-1535.63 211,-1487 217.57,-1481.43 225.44,-1476.91 233.45,-1473.27"/>
<polygon fill="black" stroke="black" points="234.93,-1476.45 242.84,-1469.4 232.26,-1469.98 234.93,-1476.45"/>
</g>
<!-- KVTKWindow__vtk_window__enable_parallel_projection -->
<g id="node45" class="node">
<title>KVTKWindow__vtk_window__enable_parallel_projection</title>
<polygon fill="#f0f0f0" fill-opacity="0.627451" stroke="black" points="348,-1532 211,-1532 211,-1496 348,-1496 348,-1532"/>
<text text-anchor="middle" x="279.5" y="-1511.5" font-family="sans-serif" font-size="10.00">enable_parallel_projection</text>
</g>
<!-- KVTKWindow__vtk_window&#45;&gt;KVTKWindow__vtk_window__enable_parallel_projection -->
<g id="edge39" class="edge">
<title>KVTKWindow__vtk_window&#45;&gt;KVTKWindow__vtk_window__enable_parallel_projection</title>
<path fill="none" stroke="black" d="M107.69,-1657.81C126.03,-1629.32 165.11,-1574.04 211,-1541 212.87,-1539.65 214.82,-1538.36 216.83,-1537.12"/>
<polygon fill="black" stroke="black" points="218.9,-1539.97 225.92,-1532.03 215.48,-1533.86 218.9,-1539.97"/>
</g>
<!-- KVTKWindow__vtk_window__enable_write -->
<g id="node46" class="node">
<title>KVTKWindow__vtk_window__enable_write</title>
<polygon fill="#f0f0f0" fill-opacity="0.627451" stroke="black" points="318,-1586 241,-1586 241,-1550 318,-1550 318,-1586"/>
<text text-anchor="middle" x="279.5" y="-1565.5" font-family="sans-serif" font-size="10.00">enable_write</text>
</g>
<!-- KVTKWindow__vtk_window&#45;&gt;KVTKWindow__vtk_window__enable_write -->
<g id="edge40" class="edge">
<title>KVTKWindow__vtk_window&#45;&gt;KVTKWindow__vtk_window__enable_write</title>
<path fill="none" stroke="black" d="M118.71,-1657.89C141.06,-1640.26 176.99,-1613.5 211,-1595 217.48,-1591.48 224.52,-1588.15 231.52,-1585.13"/>
<polygon fill="black" stroke="black" points="233.11,-1588.26 241,-1581.19 230.42,-1581.79 233.11,-1588.26"/>
</g>
<!-- KVTKWindow__vtk_window__eye_angle -->
<g id="node47" class="node">
<title>KVTKWindow__vtk_window__eye_angle</title>
<polygon fill="#f0f0f0" fill-opacity="0.627451" stroke="black" points="311,-1640 248,-1640 248,-1604 311,-1604 311,-1640"/>
<text text-anchor="middle" x="279.5" y="-1619.5" font-family="sans-serif" font-size="10.00">eye_angle</text>
</g>
<!-- KVTKWindow__vtk_window&#45;&gt;KVTKWindow__vtk_window__eye_angle -->
<g id="edge41" class="edge">
<title>KVTKWindow__vtk_window&#45;&gt;KVTKWindow__vtk_window__eye_angle</title>
<path fill="none" stroke="black" d="M136.89,-1664.02C167,-1655.08 207.95,-1642.93 238.06,-1634"/>
<polygon fill="black" stroke="black" points="239.24,-1637.3 247.83,-1631.1 237.25,-1630.59 239.24,-1637.3"/>
</g>
<!-- KVTKWindow__vtk_window__frame_color_blue -->
<g id="node48" class="node">
<title>KVTKWindow__vtk_window__frame_color_blue</title>
<polygon fill="#f0f0f0" fill-opacity="0.627451" stroke="black" points="328,-1694 231,-1694 231,-1658 328,-1658 328,-1694"/>
<text text-anchor="middle" x="279.5" y="-1673.5" font-family="sans-serif" font-size="10.00">frame_color_blue</text>
</g>
<!-- KVTKWindow__vtk_window&#45;&gt;KVTKWindow__vtk_window__frame_color_blue -->
<g id="edge42" class="edge">
<title>KVTKWindow__vtk_window&#45;&gt;KVTKWindow__vtk_window__frame_color_blue</title>
<path fill="none" stroke="black" d="M136.89,-1676C161.5,-1676 193.35,-1676 220.61,-1676"/>
<polygon fill="black" stroke="black" points="220.8,-1679.5 230.8,-1676 220.8,-1672.5 220.8,-1679.5"/>
</g>
<!-- KVTKWindow__vtk_window__frame_color_green -->
<g id="node49" class="node">
<title>KVTKWindow__vtk_window__frame_color_green</title>
<polygon fill="#f0f0f0" fill-opacity="0.627451" stroke="black" points="331.5,-1748 227.5,-1748 227.5,-1712 331.5,-1712 331.5,-1748"/>
<text text-anchor="middle" x="279.5" y="-1727.5" font-family="sans-serif" font-size="10.00">frame_color_green</text>
</g>
<!-- KVTKWindow__vtk_window&#45;&gt;KVTKWindow__vtk_window__frame_color_green -->
<g id="edge43" class="edge">
<title>KVTKWindow__vtk_window&#45;&gt;KVTKWindow__vtk_window__frame_color_green</title>
<path fill="none" stroke="black" d="M136.89,-1687.98C160.68,-1695.04 191.22,-1704.1 217.85,-1712.01"/>
<polygon fill="black" stroke="black" points="216.88,-1715.37 227.47,-1714.86 218.87,-1708.66 216.88,-1715.37"/>
</g>
<!-- KVTKWindow__vtk_window__frame_color_red -->
<g id="node50" class="node">
<title>KVTKWindow__vtk_window__frame_color_red</title>
<polygon fill="#f0f0f0" fill-opacity="0.627451" stroke="black" points="325.5,-1802 233.5,-1802 233.5,-1766 325.5,-1766 325.5,-1802"/>
<text text-anchor="middle" x="279.5" y="-1781.5" font-family="sans-serif" font-size="10.00">frame_color_red</text>
</g>
<!-- KVTKWindow__vtk_window&#45;&gt;KVTKWindow__vtk_window__frame_color_red -->
<g id="edge44" class="edge">
<title>KVTKWindow__vtk_window&#45;&gt;KVTKWindow__vtk_window__frame_color_red</title>
<path fill="none" stroke="black" d="M118.71,-1694.11C141.06,-1711.74 176.99,-1738.5 211,-1757 215.15,-1759.26 219.52,-1761.43 223.97,-1763.49"/>
<polygon fill="black" stroke="black" points="222.6,-1766.72 233.16,-1767.58 225.45,-1760.32 222.6,-1766.72"/>
</g>
<!-- KVTKWindow__vtk_window__frame_size_x -->
<g id="node51" class="node">
<title>KVTKWindow__vtk_window__frame_size_x</title>
<polygon fill="#f0f0f0" fill-opacity="0.627451" stroke="black" points="317.5,-1856 241.5,-1856 241.5,-1820 317.5,-1820 317.5,-1856"/>
<text text-anchor="middle" x="279.5" y="-1835.5" font-family="sans-serif" font-size="10.00">frame_size_x</text>
</g>
<!-- KVTKWindow__vtk_window&#45;&gt;KVTKWindow__vtk_window__frame_size_x -->
<g id="edge45" class="edge">
<title>KVTKWindow__vtk_window&#45;&gt;KVTKWindow__vtk_window__frame_size_x</title>
<path fill="none" stroke="black" d="M107.69,-1694.19C126.03,-1722.68 165.11,-1777.96 211,-1811 217.41,-1815.61 224.72,-1819.59 232.11,-1822.95"/>
<polygon fill="black" stroke="black" points="230.87,-1826.23 241.44,-1826.9 233.59,-1819.78 230.87,-1826.23"/>
</g>
<!-- KVTKWindow__vtk_window__frame_size_y -->
<g id="node52" class="node">
<title>KVTKWindow__vtk_window__frame_size_y</title>
<polygon fill="#f0f0f0" fill-opacity="0.627451" stroke="black" points="317.5,-1910 241.5,-1910 241.5,-1874 317.5,-1874 317.5,-1910"/>
<text text-anchor="middle" x="279.5" y="-1889.5" font-family="sans-serif" font-size="10.00">frame_size_y</text>
</g>
<!-- KVTKWindow__vtk_window&#45;&gt;KVTKWindow__vtk_window__frame_size_y -->
<g id="edge46" class="edge">
<title>KVTKWindow__vtk_window&#45;&gt;KVTKWindow__vtk_window__frame_size_y</title>
<path fill="none" stroke="black" d="M102.97,-1694.27C117,-1731.42 153.65,-1816.37 211,-1865 217.16,-1870.22 224.46,-1874.52 231.94,-1878.03"/>
<polygon fill="black" stroke="black" points="230.87,-1881.38 241.44,-1882.07 233.6,-1874.94 230.87,-1881.38"/>
</g>
<!-- KVTKWindow__vtk_window__frame_title -->
<g id="node53" class="node">
<title>KVTKWindow__vtk_window__frame_title</title>
<polygon fill="#f0f0f0" fill-opacity="0.627451" stroke="black" points="313,-1964 246,-1964 246,-1928 313,-1928 313,-1964"/>
<text text-anchor="middle" x="279.5" y="-1943.5" font-family="sans-serif" font-size="10.00">frame_title</text>
</g>
<!-- KVTKWindow__vtk_window&#45;&gt;KVTKWindow__vtk_window__frame_title -->
<g id="edge47" class="edge">
<title>KVTKWindow__vtk_window&#45;&gt;KVTKWindow__vtk_window__frame_title</title>
<path fill="none" stroke="black" d="M100.25,-1694.26C110.31,-1738.76 141.91,-1853.93 211,-1919 218.16,-1925.74 227.22,-1930.88 236.35,-1934.77"/>
<polygon fill="black" stroke="black" points="235.23,-1938.09 245.82,-1938.38 237.72,-1931.55 235.23,-1938.09"/>
</g>
<!-- KVTKWindow__vtk_window__multi_samples -->
<g id="node54" class="node">
<title>KVTKWindow__vtk_window__multi_samples</title>
<polygon fill="#f0f0f0" fill-opacity="0.627451" stroke="black" points="320.5,-2018 238.5,-2018 238.5,-1982 320.5,-1982 320.5,-2018"/>
<text text-anchor="middle" x="279.5" y="-1997.5" font-family="sans-serif" font-size="10.00">multi_samples</text>
</g>
<!-- KVTKWindow__vtk_window&#45;&gt;KVTKWindow__vtk_window__multi_samples -->
<g id="edge48" class="edge">
<title>KVTKWindow__vtk_window&#45;&gt;KVTKWindow__vtk_window__multi_samples</title>
<path fill="none" stroke="black" d="M98.45,-1694.05C104.88,-1744.87 129.85,-1890.82 211,-1973 216.18,-1978.25 222.52,-1982.51 229.21,-1985.95"/>
<polygon fill="black" stroke="black" points="227.92,-1989.22 238.47,-1990.17 230.82,-1982.84 227.92,-1989.22"/>
</g>
<!-- KVTKWindow__vtk_window__name -->
<g id="node55" class="node">
<title>KVTKWindow__vtk_window__name</title>
<polygon fill="#f0f0f0" fill-opacity="0.627451" stroke="black" points="306.5,-2072 252.5,-2072 252.5,-2036 306.5,-2036 306.5,-2072"/>
<text text-anchor="middle" x="279.5" y="-2051.5" font-family="sans-serif" font-size="10.00">name</text>
</g>
<!-- KVTKWindow__vtk_window&#45;&gt;KVTKWindow__vtk_window__name -->
<g id="edge49" class="edge">
<title>KVTKWindow__vtk_window&#45;&gt;KVTKWindow__vtk_window__name</title>
<path fill="none" stroke="black" d="M97.23,-1694.35C100.46,-1751.37 117.88,-1927.6 211,-2027 219.41,-2035.98 231.2,-2042.03 242.57,-2046.09"/>
<polygon fill="black" stroke="black" points="241.78,-2049.51 252.37,-2049.16 243.88,-2042.83 241.78,-2049.51"/>
</g>
<!-- KVTKWindow__vtk_window__view_angle -->
<g id="node56" class="node">
<title>KVTKWindow__vtk_window__view_angle</title>
<polygon fill="#f0f0f0" fill-opacity="0.627451" stroke="black" points="313,-2126 246,-2126 246,-2090 313,-2090 313,-2126"/>
<text text-anchor="middle" x="279.5" y="-2105.5" font-family="sans-serif" font-size="10.00">view_angle</text>
</g>
<!-- KVTKWindow__vtk_window&#45;&gt;KVTKWindow__vtk_window__view_angle -->
<g id="edge50" class="edge">
<title>KVTKWindow__vtk_window&#45;&gt;KVTKWindow__vtk_window__view_angle</title>
<path fill="none" stroke="black" d="M96.28,-1694.41C96.53,-1756.98 105.65,-1963.97 211,-2081 217.71,-2088.45 226.75,-2093.88 236.03,-2097.82"/>
<polygon fill="black" stroke="black" points="235.11,-2101.21 245.7,-2101.41 237.55,-2094.65 235.11,-2101.21"/>
</g>
</g>
</svg>
