<?xml version="1.0" encoding="UTF-8" standalone="no"?>
<!DOCTYPE svg PUBLIC "-//W3C//DTD SVG 1.1//EN"
 "http://www.w3.org/Graphics/SVG/1.1/DTD/svg11.dtd">
<!-- Generated by graphviz version 7.0.1 (0)
 -->
<!-- Pages: 1 -->
<svg width="530pt" height="2170pt"
 viewBox="0.00 0.00 530.00 2170.00" xmlns="http://www.w3.org/2000/svg" xmlns:xlink="http://www.w3.org/1999/xlink">
<g id="graph0" class="graph" transform="scale(1 1) rotate(0) translate(4 2166)">
<polygon fill="white" stroke="none" points="-4,4 -4,-2166 526,-2166 526,4 -4,4"/>
<g id="clust1" class="cluster">
<title>cluster_KApplicationRunner</title>
<polygon fill="#a0a0a0" fill-opacity="0.125490" stroke="black" stroke-width="2" points="60.5,-8 60.5,-134 513,-134 513,-8 60.5,-8"/>
<text text-anchor="middle" x="286.75" y="-121.2" font-family="sans-serif,bold" font-size="11.00">KApplicationRunner</text>
</g>
<g id="clust3" class="cluster">
<title>cluster_KNamedReference</title>
<polygon fill="#a0a0a0" fill-opacity="0.125490" stroke="black" stroke-width="2" points="384,-34 384,-106 505,-106 505,-34 384,-34"/>
<text text-anchor="middle" x="444.5" y="-93.2" font-family="sans-serif,bold" font-size="11.00">KNamedReference</text>
</g>
<g id="clust4" class="cluster">
<title>cluster_KMessageTable</title>
<polygon fill="#a0a0a0" fill-opacity="0.125490" stroke="black" stroke-width="2" points="52.5,-142 52.5,-592 514,-592 514,-142 52.5,-142"/>
<text text-anchor="middle" x="283.25" y="-579.2" font-family="sans-serif,bold" font-size="11.00">KMessageTable</text>
</g>
<g id="clust6" class="cluster">
<title>cluster_KMessageData</title>
<polygon fill="#a0a0a0" fill-opacity="0.125490" stroke="black" stroke-width="2" points="382,-168 382,-564 506,-564 506,-168 382,-168"/>
<text text-anchor="middle" x="444" y="-551.2" font-family="sans-serif,bold" font-size="11.00">KMessageData</text>
</g>
<g id="clust7" class="cluster">
<title>cluster_KommonNamedRandomGenerator</title>
<polygon fill="#a0a0a0" fill-opacity="0.125490" stroke="black" stroke-width="2" points="8,-600 8,-726 314.5,-726 314.5,-600 8,-600"/>
<text text-anchor="middle" x="161.25" y="-713.2" font-family="sans-serif,bold" font-size="11.00">KommonNamedRandomGenerator</text>
</g>
<g id="clust8" class="cluster">
<title>cluster_KDummyRandom</title>
<polygon fill="#a0a0a0" fill-opacity="0.125490" stroke="black" stroke-width="2" points="56.5,-734 56.5,-806 314.5,-806 314.5,-734 56.5,-734"/>
<text text-anchor="middle" x="185.5" y="-793.2" font-family="sans-serif,bold" font-size="11.00">KDummyRandom</text>
</g>
<g id="clust9" class="cluster">
<title>cluster_KROOTWindow</title>
<polygon fill="#a0a0a0" fill-opacity="0.125490" stroke="black" stroke-width="2" points="44,-814 44,-1210 490,-1210 490,-814 44,-814"/>
<text text-anchor="middle" x="267" y="-1197.2" font-family="sans-serif,bold" font-size="11.00">KROOTWindow</text>
</g>
<g id="clust11" class="cluster">
<title>cluster_KROOTPad</title>
<polygon fill="#a0a0a0" fill-opacity="0.125490" stroke="black" stroke-width="2" points="407,-894 407,-1182 482,-1182 482,-894 407,-894"/>
<text text-anchor="middle" x="444.5" y="-1169.2" font-family="sans-serif,bold" font-size="11.00">KROOTPad</text>
</g>
<g id="clust12" class="cluster">
<title>cluster_KVTKWindow</title>
<polygon fill="#a0a0a0" fill-opacity="0.125490" stroke="black" stroke-width="2" points="46.5,-1218 46.5,-2154 356,-2154 356,-1218 46.5,-1218"/>
<text text-anchor="middle" x="201.25" y="-2141.2" font-family="sans-serif,bold" font-size="11.00">KVTKWindow</text>
</g>
<!-- KApplicationRunner__run -->
<g id="node1" class="node">
<title>KApplicationRunner__run</title>
<polygon fill="#ff7c00" fill-opacity="0.627451" stroke="black" points="122.5,-79 68.5,-79 68.5,-43 122.5,-43 122.5,-79"/>
<text text-anchor="middle" x="95.5" y="-58.2" font-family="sans-serif,bold" font-size="11.00">run</text>
</g>
<!-- KApplicationRunner__run__name -->
<g id="node2" class="node">
<title>KApplicationRunner__run__name</title>
<polygon fill="#f0f0f0" fill-opacity="0.627451" stroke="black" points="306.5,-52 252.5,-52 252.5,-16 306.5,-16 306.5,-52"/>
<text text-anchor="middle" x="279.5" y="-31.5" font-family="sans-serif" font-size="10.00">name</text>
</g>
<!-- KApplicationRunner__run&#45;&gt;KApplicationRunner__run__name -->
<g id="edge1" class="edge">
<title>KApplicationRunner__run&#45;&gt;KApplicationRunner__run__name</title>
<path fill="none" stroke="black" d="M122.96,-57.07C153.97,-52.47 205.56,-44.82 240.75,-39.6"/>
<polygon fill="black" stroke="black" points="241.13,-43.08 250.51,-38.15 240.1,-36.16 241.13,-43.08"/>
</g>
<!-- KNamedReference__app -->
<g id="node3" class="node">
<title>KNamedReference__app</title>
<polygon fill="#ff7c00" fill-opacity="0.627451" stroke="black" points="306.5,-106 252.5,-106 252.5,-70 306.5,-70 306.5,-106"/>
<text text-anchor="middle" x="279.5" y="-85.2" font-family="sans-serif,bold" font-size="11.00">app</text>
</g>
<!-- KApplicationRunner__run&#45;&gt;KNamedReference__app -->
<g id="edge2" class="edge">
<title>KApplicationRunner__run&#45;&gt;KNamedReference__app</title>
<path fill="none" stroke="black" d="M122.96,-64.93C153.97,-69.53 205.56,-77.18 240.75,-82.4"/>
<polygon fill="black" stroke="black" points="240.1,-85.84 250.51,-83.85 241.13,-78.92 240.1,-85.84"/>
</g>
<!-- KNamedReference__app__Name -->
<g id="node4" class="node">
<title>KNamedReference__app__Name</title>
<polygon fill="#f0f0f0" fill-opacity="0.627451" stroke="black" points="471,-78 417,-78 417,-42 471,-42 471,-78"/>
<text text-anchor="middle" x="444" y="-57.5" font-family="sans-serif" font-size="10.00">Name</text>
</g>
<!-- KNamedReference__app&#45;&gt;KNamedReference__app__Name -->
<g id="edge3" class="edge">
<title>KNamedReference__app&#45;&gt;KNamedReference__app__Name</title>
<path fill="none" stroke="black" d="M306.97,-83.44C333.65,-78.84 375.07,-71.7 405.2,-66.51"/>
<polygon fill="black" stroke="black" points="405.79,-69.96 415.05,-64.82 404.6,-63.07 405.79,-69.96"/>
</g>
<!-- KMessageTable__messages -->
<g id="node5" class="node">
<title>KMessageTable__messages</title>
<polygon fill="#ff7c00" fill-opacity="0.627451" stroke="black" points="130.5,-375 60.5,-375 60.5,-339 130.5,-339 130.5,-375"/>
<text text-anchor="middle" x="95.5" y="-354.2" font-family="sans-serif,bold" font-size="11.00">messages</text>
</g>
<!-- KMessageTable__messages__format -->
<g id="node6" class="node">
<title>KMessageTable__messages__format</title>
<polygon fill="#f0f0f0" fill-opacity="0.627451" stroke="black" points="306.5,-186 252.5,-186 252.5,-150 306.5,-150 306.5,-186"/>
<text text-anchor="middle" x="279.5" y="-165.5" font-family="sans-serif" font-size="10.00">format</text>
</g>
<!-- KMessageTable__messages&#45;&gt;KMessageTable__messages__format -->
<g id="edge4" class="edge">
<title>KMessageTable__messages&#45;&gt;KMessageTable__messages__format</title>
<path fill="none" stroke="black" d="M105.04,-338.59C121.24,-305.5 159.49,-235.64 211,-195 219.97,-187.92 231.04,-182.47 241.6,-178.39"/>
<polygon fill="black" stroke="black" points="242.62,-181.74 250.89,-175.11 240.29,-175.14 242.62,-181.74"/>
</g>
<!-- KMessageTable__messages__log -->
<g id="node7" class="node">
<title>KMessageTable__messages__log</title>
<polygon fill="#f0f0f0" fill-opacity="0.627451" stroke="black" points="306.5,-240 252.5,-240 252.5,-204 306.5,-204 306.5,-240"/>
<text text-anchor="middle" x="279.5" y="-219.5" font-family="sans-serif" font-size="10.00">log</text>
</g>
<!-- KMessageTable__messages&#45;&gt;KMessageTable__messages__log -->
<g id="edge5" class="edge">
<title>KMessageTable__messages&#45;&gt;KMessageTable__messages__log</title>
<path fill="none" stroke="black" d="M111.88,-338.73C132.43,-315.29 170.93,-274.59 211,-249 220.3,-243.06 231.11,-238.03 241.33,-233.98"/>
<polygon fill="black" stroke="black" points="242.51,-237.28 250.65,-230.5 240.06,-230.72 242.51,-237.28"/>
</g>
<!-- KMessageTable__messages__parser_context -->
<g id="node8" class="node">
<title>KMessageTable__messages__parser_context</title>
<polygon fill="#f0f0f0" fill-opacity="0.627451" stroke="black" points="322.5,-294 236.5,-294 236.5,-258 322.5,-258 322.5,-294"/>
<text text-anchor="middle" x="279.5" y="-273.5" font-family="sans-serif" font-size="10.00">parser_context</text>
</g>
<!-- KMessageTable__messages&#45;&gt;KMessageTable__messages__parser_context -->
<g id="edge6" class="edge">
<title>KMessageTable__messages&#45;&gt;KMessageTable__messages__parser_context</title>
<path fill="none" stroke="black" d="M130.83,-340.15C153.44,-329.21 183.8,-314.84 211,-303 215.81,-300.91 220.84,-298.78 225.88,-296.69"/>
<polygon fill="black" stroke="black" points="226.88,-300.06 234.81,-293.04 224.23,-293.58 226.88,-300.06"/>
</g>
<!-- KMessageTable__messages__precision -->
<g id="node9" class="node">
<title>KMessageTable__messages__precision</title>
<polygon fill="#f0f0f0" fill-opacity="0.627451" stroke="black" points="308.5,-348 250.5,-348 250.5,-312 308.5,-312 308.5,-348"/>
<text text-anchor="middle" x="279.5" y="-327.5" font-family="sans-serif" font-size="10.00">precision</text>
</g>
<!-- KMessageTable__messages&#45;&gt;KMessageTable__messages__precision -->
<g id="edge7" class="edge">
<title>KMessageTable__messages&#45;&gt;KMessageTable__messages__precision</title>
<path fill="none" stroke="black" d="M130.73,-351.92C161.46,-347.36 206.55,-340.67 238.83,-335.88"/>
<polygon fill="black" stroke="black" points="239.22,-339.37 248.6,-334.44 238.2,-332.44 239.22,-339.37"/>
</g>
<!-- KMessageTable__messages__shutdown_message -->
<g id="node10" class="node">
<title>KMessageTable__messages__shutdown_message</title>
<polygon fill="#f0f0f0" fill-opacity="0.627451" stroke="black" points="333.5,-402 225.5,-402 225.5,-366 333.5,-366 333.5,-402"/>
<text text-anchor="middle" x="279.5" y="-381.5" font-family="sans-serif" font-size="10.00">shutdown_message</text>
</g>
<!-- KMessageTable__messages&#45;&gt;KMessageTable__messages__shutdown_message -->
<g id="edge8" class="edge">
<title>KMessageTable__messages&#45;&gt;KMessageTable__messages__shutdown_message</title>
<path fill="none" stroke="black" d="M130.73,-362.08C154.08,-365.54 185.73,-370.24 213.75,-374.39"/>
<polygon fill="black" stroke="black" points="213.19,-377.85 223.6,-375.86 214.22,-370.93 213.19,-377.85"/>
</g>
<!-- KMessageTable__messages__terminal -->
<g id="node11" class="node">
<title>KMessageTable__messages__terminal</title>
<polygon fill="#f0f0f0" fill-opacity="0.627451" stroke="black" points="307.5,-456 251.5,-456 251.5,-420 307.5,-420 307.5,-456"/>
<text text-anchor="middle" x="279.5" y="-435.5" font-family="sans-serif" font-size="10.00">terminal</text>
</g>
<!-- KMessageTable__messages&#45;&gt;KMessageTable__messages__terminal -->
<g id="edge9" class="edge">
<title>KMessageTable__messages&#45;&gt;KMessageTable__messages__terminal</title>
<path fill="none" stroke="black" d="M130.83,-373.85C153.44,-384.79 183.8,-399.16 211,-411 220.5,-415.14 230.85,-419.4 240.53,-423.28"/>
<polygon fill="black" stroke="black" points="239.09,-426.47 249.68,-426.91 241.68,-419.97 239.09,-426.47"/>
</g>
<!-- KTextFile__file -->
<g id="node12" class="node">
<title>KTextFile__file</title>
<polygon fill="#ff7c00" fill-opacity="0.627451" stroke="black" points="306.5,-510 252.5,-510 252.5,-474 306.5,-474 306.5,-510"/>
<text text-anchor="middle" x="279.5" y="-489.2" font-family="sans-serif,bold" font-size="11.00">file</text>
</g>
<!-- KMessageTable__messages&#45;&gt;KTextFile__file -->
<g id="edge10" class="edge">
<title>KMessageTable__messages&#45;&gt;KTextFile__file</title>
<path fill="none" stroke="black" d="M111.88,-375.27C132.43,-398.71 170.93,-439.41 211,-465 220.3,-470.94 231.11,-475.97 241.33,-480.02"/>
<polygon fill="black" stroke="black" points="240.06,-483.28 250.65,-483.5 242.51,-476.72 240.06,-483.28"/>
</g>
<!-- KMessageData__message -->
<g id="node13" class="node">
<title>KMessageData__message</title>
<polygon fill="#ff7c00" fill-opacity="0.627451" stroke="black" points="312,-564 247,-564 247,-528 312,-528 312,-564"/>
<text text-anchor="middle" x="279.5" y="-543.2" font-family="sans-serif,bold" font-size="11.00">message</text>
</g>
<!-- KMessageTable__messages&#45;&gt;KMessageData__message -->
<g id="edge11" class="edge">
<title>KMessageTable__messages&#45;&gt;KMessageData__message</title>
<path fill="none" stroke="black" d="M105.04,-375.41C121.24,-408.5 159.49,-478.36 211,-519 218.4,-524.84 227.22,-529.56 236.01,-533.33"/>
<polygon fill="black" stroke="black" points="234.61,-536.55 245.2,-536.92 237.15,-530.03 234.61,-536.55"/>
</g>
<!-- KMessageData__message__format -->
<g id="node14" class="node">
<title>KMessageData__message__format</title>
<polygon fill="#f0f0f0" fill-opacity="0.627451" stroke="black" points="471,-536 417,-536 417,-500 471,-500 471,-536"/>
<text text-anchor="middle" x="444" y="-515.5" font-family="sans-serif" font-size="10.00">format</text>
</g>
<!-- KMessageData__message&#45;&gt;KMessageData__message__format -->
<g id="edge12" class="edge">
<title>KMessageData__message&#45;&gt;KMessageData__message__format</title>
<path fill="none" stroke="black" d="M312.22,-540.53C339.01,-535.92 377.41,-529.3 405.68,-524.43"/>
<polygon fill="black" stroke="black" points="405.97,-527.93 415.23,-522.78 404.79,-521.03 405.97,-527.93"/>
</g>
<!-- KMessageData__message__key -->
<g id="node15" class="node">
<title>KMessageData__message__key</title>
<polygon fill="#f0f0f0" fill-opacity="0.627451" stroke="black" points="471,-482 417,-482 417,-446 471,-446 471,-482"/>
<text text-anchor="middle" x="444" y="-461.5" font-family="sans-serif" font-size="10.00">key</text>
</g>
<!-- KMessageData__message&#45;&gt;KMessageData__message__key -->
<g id="edge13" class="edge">
<title>KMessageData__message&#45;&gt;KMessageData__message__key</title>
<path fill="none" stroke="black" d="M312.19,-538.36C326.33,-534.05 342.75,-527.74 356,-519 370.18,-509.65 368.17,-500.86 382,-491 389.36,-485.75 397.9,-481.19 406.22,-477.39"/>
<polygon fill="black" stroke="black" points="407.32,-480.73 415.14,-473.58 404.57,-474.29 407.32,-480.73"/>
</g>
<!-- KMessageData__message__log -->
<g id="node16" class="node">
<title>KMessageData__message__log</title>
<polygon fill="#f0f0f0" fill-opacity="0.627451" stroke="black" points="471,-428 417,-428 417,-392 471,-392 471,-428"/>
<text text-anchor="middle" x="444" y="-407.5" font-family="sans-serif" font-size="10.00">log</text>
</g>
<!-- KMessageData__message&#45;&gt;KMessageData__message__log -->
<g id="edge14" class="edge">
<title>KMessageData__message&#45;&gt;KMessageData__message__log</title>
<path fill="none" stroke="black" d="M312.35,-541.32C327.38,-537.6 344.5,-530.92 356,-519 382.54,-491.48 356.49,-465.48 382,-437 388.43,-429.83 397.12,-424.46 405.92,-420.49"/>
<polygon fill="black" stroke="black" points="407.14,-423.78 415.17,-416.86 404.58,-417.26 407.14,-423.78"/>
</g>
<!-- KMessageData__message__parser_context -->
<g id="node17" class="node">
<title>KMessageData__message__parser_context</title>
<polygon fill="#f0f0f0" fill-opacity="0.627451" stroke="black" points="487,-374 401,-374 401,-338 487,-338 487,-374"/>
<text text-anchor="middle" x="444" y="-353.5" font-family="sans-serif" font-size="10.00">parser_context</text>
</g>
<!-- KMessageData__message&#45;&gt;KMessageData__message__parser_context -->
<g id="edge15" class="edge">
<title>KMessageData__message&#45;&gt;KMessageData__message__parser_context</title>
<path fill="none" stroke="black" d="M312.2,-542.07C327.58,-538.53 345.04,-531.79 356,-519 396.03,-472.26 343.71,-431.18 382,-383 384.6,-379.72 387.69,-376.84 391.06,-374.29"/>
<polygon fill="black" stroke="black" points="392.67,-377.41 399.27,-369.13 388.94,-371.49 392.67,-377.41"/>
</g>
<!-- KMessageData__message__precision -->
<g id="node18" class="node">
<title>KMessageData__message__precision</title>
<polygon fill="#f0f0f0" fill-opacity="0.627451" stroke="black" points="473,-320 415,-320 415,-284 473,-284 473,-320"/>
<text text-anchor="middle" x="444" y="-299.5" font-family="sans-serif" font-size="10.00">precision</text>
</g>
<!-- KMessageData__message&#45;&gt;KMessageData__message__precision -->
<g id="edge16" class="edge">
<title>KMessageData__message&#45;&gt;KMessageData__message__precision</title>
<path fill="none" stroke="black" d="M312.49,-542.31C327.94,-538.83 345.39,-532.08 356,-519 409.7,-452.82 330.76,-397.11 382,-329 387.53,-321.65 395.51,-316.26 403.87,-312.32"/>
<polygon fill="black" stroke="black" points="405.13,-315.59 413.12,-308.63 402.54,-309.09 405.13,-315.59"/>
</g>
<!-- KMessageData__message__shutdown_message -->
<g id="node19" class="node">
<title>KMessageData__message__shutdown_message</title>
<polygon fill="#f0f0f0" fill-opacity="0.627451" stroke="black" points="498,-266 390,-266 390,-230 498,-230 498,-266"/>
<text text-anchor="middle" x="444" y="-245.5" font-family="sans-serif" font-size="10.00">shutdown_message</text>
</g>
<!-- KMessageData__message&#45;&gt;KMessageData__message__shutdown_message -->
<g id="edge17" class="edge">
<title>KMessageData__message&#45;&gt;KMessageData__message__shutdown_message</title>
<path fill="none" stroke="black" d="M312.27,-542.52C327.86,-539.1 345.5,-532.35 356,-519 423.45,-433.3 317.74,-363.11 382,-275 382.15,-274.8 382.3,-274.59 382.45,-274.39"/>
<polygon fill="black" stroke="black" points="384.84,-276.95 389.38,-267.38 379.87,-272.03 384.84,-276.95"/>
</g>
<!-- KMessageData__message__terminal -->
<g id="node20" class="node">
<title>KMessageData__message__terminal</title>
<polygon fill="#f0f0f0" fill-opacity="0.627451" stroke="black" points="472,-212 416,-212 416,-176 472,-176 472,-212"/>
<text text-anchor="middle" x="444" y="-191.5" font-family="sans-serif" font-size="10.00">terminal</text>
</g>
<!-- KMessageData__message&#45;&gt;KMessageData__message__terminal -->
<g id="edge18" class="edge">
<title>KMessageData__message&#45;&gt;KMessageData__message__terminal</title>
<path fill="none" stroke="black" d="M312.37,-542.6C327.99,-539.21 345.63,-532.45 356,-519 396.61,-466.37 343.35,-275.08 382,-221 387.6,-213.16 396,-207.57 404.79,-203.59"/>
<polygon fill="black" stroke="black" points="406.04,-206.86 414.13,-200.03 403.54,-200.32 406.04,-206.86"/>
</g>
<!-- KommonNamedRandomGenerator__NamedRandomGenerator -->
<g id="node21" class="node">
<title>KommonNamedRandomGenerator__NamedRandomGenerator</title>
<polygon fill="#ff7c00" fill-opacity="0.627451" stroke="black" points="175,-671 16,-671 16,-635 175,-635 175,-671"/>
<text text-anchor="middle" x="95.5" y="-650.2" font-family="sans-serif,bold" font-size="11.00">NamedRandomGenerator</text>
</g>
<!-- KommonNamedRandomGenerator__NamedRandomGenerator__Name -->
<g id="node22" class="node">
<title>KommonNamedRandomGenerator__NamedRandomGenerator__Name</title>
<polygon fill="#f0f0f0" fill-opacity="0.627451" stroke="black" points="306.5,-644 252.5,-644 252.5,-608 306.5,-608 306.5,-644"/>
<text text-anchor="middle" x="279.5" y="-623.5" font-family="sans-serif" font-size="10.00">Name</text>
</g>
<!-- KommonNamedRandomGenerator__NamedRandomGenerator&#45;&gt;KommonNamedRandomGenerator__NamedRandomGenerator__Name -->
<g id="edge19" class="edge">
<title>KommonNamedRandomGenerator__NamedRandomGenerator&#45;&gt;KommonNamedRandomGenerator__NamedRandomGenerator__Name</title>
<path fill="none" stroke="black" d="M175.27,-641.31C198.18,-637.92 222.15,-634.36 241.21,-631.53"/>
<polygon fill="black" stroke="black" points="241.52,-635.02 250.9,-630.09 240.5,-628.1 241.52,-635.02"/>
</g>
<!-- KommonNamedRandomGenerator__NamedRandomGenerator__Seed -->
<g id="node23" class="node">
<title>KommonNamedRandomGenerator__NamedRandomGenerator__Seed</title>
<polygon fill="#f0f0f0" fill-opacity="0.627451" stroke="black" points="306.5,-698 252.5,-698 252.5,-662 306.5,-662 306.5,-698"/>
<text text-anchor="middle" x="279.5" y="-677.5" font-family="sans-serif" font-size="10.00">Seed</text>
</g>
<!-- KommonNamedRandomGenerator__NamedRandomGenerator&#45;&gt;KommonNamedRandomGenerator__NamedRandomGenerator__Seed -->
<g id="edge20" class="edge">
<title>KommonNamedRandomGenerator__NamedRandomGenerator&#45;&gt;KommonNamedRandomGenerator__NamedRandomGenerator__Seed</title>
<path fill="none" stroke="black" d="M175.27,-664.69C198.18,-668.08 222.15,-671.64 241.21,-674.47"/>
<polygon fill="black" stroke="black" points="240.5,-677.9 250.9,-675.91 241.52,-670.98 240.5,-677.9"/>
</g>
<!-- KDummyRandom__Random -->
<g id="node24" class="node">
<title>KDummyRandom__Random</title>
<polygon fill="#ff7c00" fill-opacity="0.627451" stroke="black" points="126.5,-778 64.5,-778 64.5,-742 126.5,-742 126.5,-778"/>
<text text-anchor="middle" x="95.5" y="-757.2" font-family="sans-serif,bold" font-size="11.00">Random</text>
</g>
<!-- KDummyRandom__Random__Seed -->
<g id="node25" class="node">
<title>KDummyRandom__Random__Seed</title>
<polygon fill="#f0f0f0" fill-opacity="0.627451" stroke="black" points="306.5,-778 252.5,-778 252.5,-742 306.5,-742 306.5,-778"/>
<text text-anchor="middle" x="279.5" y="-757.5" font-family="sans-serif" font-size="10.00">Seed</text>
</g>
<!-- KDummyRandom__Random&#45;&gt;KDummyRandom__Random__Seed -->
<g id="edge21" class="edge">
<title>KDummyRandom__Random&#45;&gt;KDummyRandom__Random__Seed</title>
<path fill="none" stroke="black" d="M126.96,-760C158.28,-760 207.11,-760 240.84,-760"/>
<polygon fill="black" stroke="black" points="240.57,-763.5 250.57,-760 240.57,-756.5 240.57,-763.5"/>
</g>
<!-- KROOTWindow__root_window -->
<g id="node26" class="node">
<title>KROOTWindow__root_window</title>
<polygon fill="#ff7c00" fill-opacity="0.627451" stroke="black" points="139,-1020 52,-1020 52,-984 139,-984 139,-1020"/>
<text text-anchor="middle" x="95.5" y="-999.2" font-family="sans-serif,bold" font-size="11.00">root_window</text>
</g>
<!-- KROOTWindow__root_window__active -->
<g id="node27" class="node">
<title>KROOTWindow__root_window__active</title>
<polygon fill="#f0f0f0" fill-opacity="0.627451" stroke="black" points="306.5,-858 252.5,-858 252.5,-822 306.5,-822 306.5,-858"/>
<text text-anchor="middle" x="279.5" y="-837.5" font-family="sans-serif" font-size="10.00">active</text>
</g>
<!-- KROOTWindow__root_window&#45;&gt;KROOTWindow__root_window__active -->
<g id="edge22" class="edge">
<title>KROOTWindow__root_window&#45;&gt;KROOTWindow__root_window__active</title>
<path fill="none" stroke="black" d="M107.69,-983.81C126.03,-955.32 165.11,-900.04 211,-867 220.2,-860.38 231.25,-855.08 241.72,-850.99"/>
<polygon fill="black" stroke="black" points="242.68,-854.36 250.9,-847.68 240.31,-847.78 242.68,-854.36"/>
</g>
<!-- KROOTWindow__root_window__canvas_height -->
<g id="node28" class="node">
<title>KROOTWindow__root_window__canvas_height</title>
<polygon fill="#f0f0f0" fill-opacity="0.627451" stroke="black" points="320.5,-912 238.5,-912 238.5,-876 320.5,-876 320.5,-912"/>
<text text-anchor="middle" x="279.5" y="-891.5" font-family="sans-serif" font-size="10.00">canvas_height</text>
</g>
<!-- KROOTWindow__root_window&#45;&gt;KROOTWindow__root_window__canvas_height -->
<g id="edge23" class="edge">
<title>KROOTWindow__root_window&#45;&gt;KROOTWindow__root_window__canvas_height</title>
<path fill="none" stroke="black" d="M119.13,-983.56C141.51,-965.93 177.2,-939.38 211,-921 216.34,-918.1 222.05,-915.33 227.81,-912.76"/>
<polygon fill="black" stroke="black" points="228.96,-916.07 236.78,-908.93 226.21,-909.64 228.96,-916.07"/>
</g>
<!-- KROOTWindow__root_window__canvas_width -->
<g id="node29" class="node">
<title>KROOTWindow__root_window__canvas_width</title>
<polygon fill="#f0f0f0" fill-opacity="0.627451" stroke="black" points="318,-966 241,-966 241,-930 318,-930 318,-966"/>
<text text-anchor="middle" x="279.5" y="-945.5" font-family="sans-serif" font-size="10.00">canvas_width</text>
</g>
<!-- KROOTWindow__root_window&#45;&gt;KROOTWindow__root_window__canvas_width -->
<g id="edge24" class="edge">
<title>KROOTWindow__root_window&#45;&gt;KROOTWindow__root_window__canvas_width</title>
<path fill="none" stroke="black" d="M139.17,-989.34C166.35,-981.28 201.63,-970.81 229.88,-962.42"/>
<polygon fill="black" stroke="black" points="230.69,-965.84 239.28,-959.64 228.7,-959.13 230.69,-965.84"/>
</g>
<!-- KROOTWindow__root_window__name -->
<g id="node30" class="node">
<title>KROOTWindow__root_window__name</title>
<polygon fill="#f0f0f0" fill-opacity="0.627451" stroke="black" points="306.5,-1020 252.5,-1020 252.5,-984 306.5,-984 306.5,-1020"/>
<text text-anchor="middle" x="279.5" y="-999.5" font-family="sans-serif" font-size="10.00">name</text>
</g>
<!-- KROOTWindow__root_window&#45;&gt;KROOTWindow__root_window__name -->
<g id="edge25" class="edge">
<title>KROOTWindow__root_window&#45;&gt;KROOTWindow__root_window__name</title>
<path fill="none" stroke="black" d="M139.17,-1002C170.06,-1002 211.41,-1002 241.03,-1002"/>
<polygon fill="black" stroke="black" points="240.63,-1005.5 250.63,-1002 240.63,-998.5 240.63,-1005.5"/>
</g>
<!-- KROOTWindow__root_window__path -->
<g id="node31" class="node">
<title>KROOTWindow__root_window__path</title>
<polygon fill="#f0f0f0" fill-opacity="0.627451" stroke="black" points="306.5,-1074 252.5,-1074 252.5,-1038 306.5,-1038 306.5,-1074"/>
<text text-anchor="middle" x="279.5" y="-1053.5" font-family="sans-serif" font-size="10.00">path</text>
</g>
<!-- KROOTWindow__root_window&#45;&gt;KROOTWindow__root_window__path -->
<g id="edge26" class="edge">
<title>KROOTWindow__root_window&#45;&gt;KROOTWindow__root_window__path</title>
<path fill="none" stroke="black" d="M139.17,-1014.66C170.19,-1023.87 211.78,-1036.2 241.42,-1045"/>
<polygon fill="black" stroke="black" points="240.11,-1048.26 250.7,-1047.75 242.1,-1041.55 240.11,-1048.26"/>
</g>
<!-- KROOTWindow__root_window__write_enabled -->
<g id="node32" class="node">
<title>KROOTWindow__root_window__write_enabled</title>
<polygon fill="#f0f0f0" fill-opacity="0.627451" stroke="black" points="321,-1128 238,-1128 238,-1092 321,-1092 321,-1128"/>
<text text-anchor="middle" x="279.5" y="-1107.5" font-family="sans-serif" font-size="10.00">write_enabled</text>
</g>
<!-- KROOTWindow__root_window&#45;&gt;KROOTWindow__root_window__write_enabled -->
<g id="edge27" class="edge">
<title>KROOTWindow__root_window&#45;&gt;KROOTWindow__root_window__write_enabled</title>
<path fill="none" stroke="black" d="M119.13,-1020.44C141.51,-1038.07 177.2,-1064.62 211,-1083 216.27,-1085.86 221.9,-1088.6 227.59,-1091.14"/>
<polygon fill="black" stroke="black" points="225.85,-1094.21 236.42,-1094.93 228.61,-1087.77 225.85,-1094.21"/>
</g>
<!-- KROOTPad__root_pad -->
<g id="node33" class="node">
<title>KROOTPad__root_pad</title>
<polygon fill="#ff7c00" fill-opacity="0.627451" stroke="black" points="311.5,-1182 247.5,-1182 247.5,-1146 311.5,-1146 311.5,-1182"/>
<text text-anchor="middle" x="279.5" y="-1161.2" font-family="sans-serif,bold" font-size="11.00">root_pad</text>
</g>
<!-- KROOTWindow__root_window&#45;&gt;KROOTPad__root_pad -->
<g id="edge28" class="edge">
<title>KROOTWindow__root_window&#45;&gt;KROOTPad__root_pad</title>
<path fill="none" stroke="black" d="M107.69,-1020.19C126.03,-1048.68 165.11,-1103.96 211,-1137 218.72,-1142.56 227.74,-1147.18 236.63,-1150.94"/>
<polygon fill="black" stroke="black" points="235.32,-1154.19 245.91,-1154.55 237.86,-1147.66 235.32,-1154.19"/>
</g>
<!-- KROOTPad__root_pad__name -->
<g id="node34" class="node">
<title>KROOTPad__root_pad__name</title>
<polygon fill="#f0f0f0" fill-opacity="0.627451" stroke="black" points="471,-1154 417,-1154 417,-1118 471,-1118 471,-1154"/>
<text text-anchor="middle" x="444" y="-1133.5" font-family="sans-serif" font-size="10.00">name</text>
</g>
<!-- KROOTPad__root_pad&#45;&gt;KROOTPad__root_pad__name -->
<g id="edge29" class="edge">
<title>KROOTPad__root_pad&#45;&gt;KROOTPad__root_pad__name</title>
<path fill="none" stroke="black" d="M311.83,-1158.6C338.58,-1153.99 377.12,-1147.35 405.5,-1142.46"/>
<polygon fill="black" stroke="black" points="405.85,-1145.95 415.11,-1140.81 404.66,-1139.06 405.85,-1145.95"/>
</g>
<!-- KROOTPad__root_pad__xlow -->
<g id="node35" class="node">
<title>KROOTPad__root_pad__xlow</title>
<polygon fill="#f0f0f0" fill-opacity="0.627451" stroke="black" points="471,-1100 417,-1100 417,-1064 471,-1064 471,-1100"/>
<text text-anchor="middle" x="444" y="-1079.5" font-family="sans-serif" font-size="10.00">xlow</text>
</g>
<!-- KROOTPad__root_pad&#45;&gt;KROOTPad__root_pad__xlow -->
<g id="edge30" class="edge">
<title>KROOTPad__root_pad&#45;&gt;KROOTPad__root_pad__xlow</title>
<path fill="none" stroke="black" d="M311.82,-1156.47C326.04,-1152.16 342.64,-1145.81 356,-1137 370.18,-1127.65 368.17,-1118.86 382,-1109 389.36,-1103.75 397.9,-1099.19 406.22,-1095.39"/>
<polygon fill="black" stroke="black" points="407.32,-1098.73 415.14,-1091.58 404.57,-1092.29 407.32,-1098.73"/>
</g>
<!-- KROOTPad__root_pad__xup -->
<g id="node36" class="node">
<title>KROOTPad__root_pad__xup</title>
<polygon fill="#f0f0f0" fill-opacity="0.627451" stroke="black" points="471,-1046 417,-1046 417,-1010 471,-1010 471,-1046"/>
<text text-anchor="middle" x="444" y="-1025.5" font-family="sans-serif" font-size="10.00">xup</text>
</g>
<!-- KROOTPad__root_pad&#45;&gt;KROOTPad__root_pad__xup -->
<g id="edge31" class="edge">
<title>KROOTPad__root_pad&#45;&gt;KROOTPad__root_pad__xup</title>
<path fill="none" stroke="black" d="M311.97,-1159.42C327.09,-1155.71 344.4,-1149.03 356,-1137 382.54,-1109.48 356.49,-1083.48 382,-1055 388.43,-1047.83 397.12,-1042.46 405.92,-1038.49"/>
<polygon fill="black" stroke="black" points="407.14,-1041.78 415.17,-1034.86 404.58,-1035.26 407.14,-1041.78"/>
</g>
<!-- KROOTPad__root_pad__ylow -->
<g id="node37" class="node">
<title>KROOTPad__root_pad__ylow</title>
<polygon fill="#f0f0f0" fill-opacity="0.627451" stroke="black" points="471,-992 417,-992 417,-956 471,-956 471,-992"/>
<text text-anchor="middle" x="444" y="-971.5" font-family="sans-serif" font-size="10.00">ylow</text>
</g>
<!-- KROOTPad__root_pad&#45;&gt;KROOTPad__root_pad__ylow -->
<g id="edge32" class="edge">
<title>KROOTPad__root_pad&#45;&gt;KROOTPad__root_pad__ylow</title>
<path fill="none" stroke="black" d="M311.82,-1160.15C327.29,-1156.64 344.95,-1149.9 356,-1137 396.03,-1090.26 343.71,-1049.18 382,-1001 388.16,-993.24 397.02,-987.66 406.08,-983.66"/>
<polygon fill="black" stroke="black" points="407.13,-987 415.24,-980.19 404.65,-980.45 407.13,-987"/>
</g>
<!-- KROOTPad__root_pad__yup -->
<g id="node38" class="node">
<title>KROOTPad__root_pad__yup</title>
<polygon fill="#f0f0f0" fill-opacity="0.627451" stroke="black" points="471,-938 417,-938 417,-902 471,-902 471,-938"/>
<text text-anchor="middle" x="444" y="-917.5" font-family="sans-serif" font-size="10.00">yup</text>
</g>
<!-- KROOTPad__root_pad&#45;&gt;KROOTPad__root_pad__yup -->
<g id="edge33" class="edge">
<title>KROOTPad__root_pad&#45;&gt;KROOTPad__root_pad__yup</title>
<path fill="none" stroke="black" d="M311.72,-1160.48C327.36,-1157.05 345.21,-1150.3 356,-1137 409.7,-1070.82 330.76,-1015.11 382,-947 388.01,-939.02 396.89,-933.35 406.03,-929.34"/>
<polygon fill="black" stroke="black" points="407.15,-932.66 415.3,-925.89 404.71,-926.1 407.15,-932.66"/>
</g>
<!-- KVTKWindow__vtk_window -->
<g id="node39" class="node">
<title>KVTKWindow__vtk_window</title>
<polygon fill="#ff7c00" fill-opacity="0.627451" stroke="black" points="136.5,-1694 54.5,-1694 54.5,-1658 136.5,-1658 136.5,-1694"/>
<text text-anchor="middle" x="95.5" y="-1673.2" font-family="sans-serif,bold" font-size="11.00">vtk_window</text>
</g>
<!-- KVTKWindow__vtk_window__depth_peeling -->
<g id="node40" class="node">
<title>KVTKWindow__vtk_window__depth_peeling</title>
<polygon fill="#f0f0f0" fill-opacity="0.627451" stroke="black" points="321,-1262 238,-1262 238,-1226 321,-1226 321,-1262"/>
<text text-anchor="middle" x="279.5" y="-1241.5" font-family="sans-serif" font-size="10.00">depth_peeling</text>
</g>
<!-- KVTKWindow__vtk_window&#45;&gt;KVTKWindow__vtk_window__depth_peeling -->
<g id="edge34" class="edge">
<title>KVTKWindow__vtk_window&#45;&gt;KVTKWindow__vtk_window__depth_peeling</title>
<path fill="none" stroke="black" d="M96.28,-1657.59C96.53,-1595.02 105.65,-1388.03 211,-1271 215.65,-1265.83 221.43,-1261.63 227.64,-1258.23"/>
<polygon fill="black" stroke="black" points="228.72,-1261.59 236.27,-1254.16 225.73,-1255.26 228.72,-1261.59"/>
</g>
<!-- KVTKWindow__vtk_window__enable_axis -->
<g id="node41" class="node">
<title>KVTKWindow__vtk_window__enable_axis</title>
<polygon fill="#f0f0f0" fill-opacity="0.627451" stroke="black" points="314.5,-1316 244.5,-1316 244.5,-1280 314.5,-1280 314.5,-1316"/>
<text text-anchor="middle" x="279.5" y="-1295.5" font-family="sans-serif" font-size="10.00">enable_axis</text>
</g>
<!-- KVTKWindow__vtk_window&#45;&gt;KVTKWindow__vtk_window__enable_axis -->
<g id="edge35" class="edge">
<title>KVTKWindow__vtk_window&#45;&gt;KVTKWindow__vtk_window__enable_axis</title>
<path fill="none" stroke="black" d="M97.23,-1657.65C100.46,-1600.63 117.88,-1424.4 211,-1325 217.19,-1318.39 225.21,-1313.37 233.55,-1309.56"/>
<polygon fill="black" stroke="black" points="234.75,-1312.85 242.76,-1305.91 232.17,-1306.34 234.75,-1312.85"/>
</g>
<!-- KVTKWindow__vtk_window__enable_data -->
<g id="node42" class="node">
<title>KVTKWindow__vtk_window__enable_data</title>
<polygon fill="#f0f0f0" fill-opacity="0.627451" stroke="black" points="316,-1370 243,-1370 243,-1334 316,-1334 316,-1370"/>
<text text-anchor="middle" x="279.5" y="-1349.5" font-family="sans-serif" font-size="10.00">enable_data</text>
</g>
<!-- KVTKWindow__vtk_window&#45;&gt;KVTKWindow__vtk_window__enable_data -->
<g id="edge36" class="edge">
<title>KVTKWindow__vtk_window&#45;&gt;KVTKWindow__vtk_window__enable_data</title>
<path fill="none" stroke="black" d="M98.5,-1657.59C105,-1606.43 130.04,-1460.98 211,-1379 216.91,-1373.01 224.33,-1368.31 232.06,-1364.63"/>
<polygon fill="black" stroke="black" points="233.39,-1367.87 241.29,-1360.81 230.71,-1361.4 233.39,-1367.87"/>
</g>
<!-- KVTKWindow__vtk_window__enable_display -->
<g id="node43" class="node">
<title>KVTKWindow__vtk_window__enable_display</title>
<polygon fill="#f0f0f0" fill-opacity="0.627451" stroke="black" points="321.5,-1424 237.5,-1424 237.5,-1388 321.5,-1388 321.5,-1424"/>
<text text-anchor="middle" x="279.5" y="-1403.5" font-family="sans-serif" font-size="10.00">enable_display</text>
</g>
<!-- KVTKWindow__vtk_window&#45;&gt;KVTKWindow__vtk_window__enable_display -->
<g id="edge37" class="edge">
<title>KVTKWindow__vtk_window&#45;&gt;KVTKWindow__vtk_window__enable_display</title>
<path fill="none" stroke="black" d="M100.25,-1657.74C110.31,-1613.24 141.91,-1498.07 211,-1433 215.71,-1428.56 221.24,-1424.82 227.07,-1421.68"/>
<polygon fill="black" stroke="black" points="228.18,-1425.02 235.71,-1417.57 225.18,-1418.7 228.18,-1425.02"/>
</g>
<!-- KVTKWindow__vtk_window__enable_help -->
<g id="node44" class="node">
<title>KVTKWindow__vtk_window__enable_help</title>
<polygon fill="#f0f0f0" fill-opacity="0.627451" stroke="black" points="316,-1478 243,-1478 243,-1442 316,-1442 316,-1478"/>
<text text-anchor="middle" x="279.5" y="-1457.5" font-family="sans-serif" font-size="10.00">enable_help</text>
</g>
<!-- KVTKWindow__vtk_window&#45;&gt;KVTKWindow__vtk_window__enable_help -->
<g id="edge38" class="edge">
<title>KVTKWindow__vtk_window&#45;&gt;KVTKWindow__vtk_window__enable_help</title>
<path fill="none" stroke="black" d="M102.97,-1657.73C117,-1620.58 153.65,-1535.63 211,-1487 217.29,-1481.67 224.76,-1477.3 232.4,-1473.75"/>
<polygon fill="black" stroke="black" points="233.56,-1477.06 241.44,-1469.99 230.86,-1470.6 233.56,-1477.06"/>
</g>
<!-- KVTKWindow__vtk_window__enable_parallel_projection -->
<g id="node45" class="node">
<title>KVTKWindow__vtk_window__enable_parallel_projection</title>
<polygon fill="#f0f0f0" fill-opacity="0.627451" stroke="black" points="348,-1532 211,-1532 211,-1496 348,-1496 348,-1532"/>
<text text-anchor="middle" x="279.5" y="-1511.5" font-family="sans-serif" font-size="10.00">enable_parallel_projection</text>
</g>
<!-- KVTKWindow__vtk_window&#45;&gt;KVTKWindow__vtk_window__enable_parallel_projection -->
<g id="edge39" class="edge">
<title>KVTKWindow__vtk_window&#45;&gt;KVTKWindow__vtk_window__enable_parallel_projection</title>
<path fill="none" stroke="black" d="M107.69,-1657.81C126.03,-1629.32 165.11,-1574.04 211,-1541 212.38,-1540.01 213.79,-1539.05 215.25,-1538.12"/>
<polygon fill="black" stroke="black" points="216.98,-1541.16 223.91,-1533.14 213.49,-1535.09 216.98,-1541.16"/>
</g>
<!-- KVTKWindow__vtk_window__enable_write -->
<g id="node46" class="node">
<title>KVTKWindow__vtk_window__enable_write</title>
<polygon fill="#f0f0f0" fill-opacity="0.627451" stroke="black" points="318,-1586 241,-1586 241,-1550 318,-1550 318,-1586"/>
<text text-anchor="middle" x="279.5" y="-1565.5" font-family="sans-serif" font-size="10.00">enable_write</text>
</g>
<!-- KVTKWindow__vtk_window&#45;&gt;KVTKWindow__vtk_window__enable_write -->
<g id="edge40" class="edge">
<title>KVTKWindow__vtk_window&#45;&gt;KVTKWindow__vtk_window__enable_write</title>
<path fill="none" stroke="black" d="M119.13,-1657.56C141.51,-1639.93 177.2,-1613.38 211,-1595 217.11,-1591.68 223.72,-1588.53 230.33,-1585.64"/>
<polygon fill="black" stroke="black" points="231.38,-1589 239.25,-1581.91 228.67,-1582.54 231.38,-1589"/>
</g>
<!-- KVTKWindow__vtk_window__eye_angle -->
<g id="node47" class="node">
<title>KVTKWindow__vtk_window__eye_angle</title>
<polygon fill="#f0f0f0" fill-opacity="0.627451" stroke="black" points="311,-1640 248,-1640 248,-1604 311,-1604 311,-1640"/>
<text text-anchor="middle" x="279.5" y="-1619.5" font-family="sans-serif" font-size="10.00">eye_angle</text>
</g>
<!-- KVTKWindow__vtk_window&#45;&gt;KVTKWindow__vtk_window__eye_angle -->
<g id="edge41" class="edge">
<title>KVTKWindow__vtk_window&#45;&gt;KVTKWindow__vtk_window__eye_angle</title>
<path fill="none" stroke="black" d="M136.89,-1664.02C166.51,-1655.23 206.63,-1643.32 236.6,-1634.43"/>
<polygon fill="black" stroke="black" points="237.5,-1637.81 246.09,-1631.61 235.51,-1631.1 237.5,-1637.81"/>
</g>
<!-- KVTKWindow__vtk_window__frame_color_blue -->
<g id="node48" class="node">
<title>KVTKWindow__vtk_window__frame_color_blue</title>
<polygon fill="#f0f0f0" fill-opacity="0.627451" stroke="black" points="328,-1694 231,-1694 231,-1658 328,-1658 328,-1694"/>
<text text-anchor="middle" x="279.5" y="-1673.5" font-family="sans-serif" font-size="10.00">frame_color_blue</text>
</g>
<!-- KVTKWindow__vtk_window&#45;&gt;KVTKWindow__vtk_window__frame_color_blue -->
<g id="edge42" class="edge">
<title>KVTKWindow__vtk_window&#45;&gt;KVTKWindow__vtk_window__frame_color_blue</title>
<path fill="none" stroke="black" d="M136.89,-1676C161.17,-1676 192.51,-1676 219.52,-1676"/>
<polygon fill="black" stroke="black" points="219.29,-1679.5 229.29,-1676 219.29,-1672.5 219.29,-1679.5"/>
</g>
<!-- KVTKWindow__vtk_window__frame_color_green -->
<g id="node49" class="node">
<title>KVTKWindow__vtk_window__frame_color_green</title>
<polygon fill="#f0f0f0" fill-opacity="0.627451" stroke="black" points="331.5,-1748 227.5,-1748 227.5,-1712 331.5,-1712 331.5,-1748"/>
<text text-anchor="middle" x="279.5" y="-1727.5" font-family="sans-serif" font-size="10.00">frame_color_green</text>
</g>
<!-- KVTKWindow__vtk_window&#45;&gt;KVTKWindow__vtk_window__frame_color_green -->
<g id="edge43" class="edge">
<title>KVTKWindow__vtk_window&#45;&gt;KVTKWindow__vtk_window__frame_color_green</title>
<path fill="none" stroke="black" d="M136.89,-1687.98C160.17,-1694.89 189.92,-1703.72 216.14,-1711.5"/>
<polygon fill="black" stroke="black" points="215.1,-1714.84 225.68,-1714.33 217.09,-1708.13 215.1,-1714.84"/>
</g>
<!-- KVTKWindow__vtk_window__frame_color_red -->
<g id="node50" class="node">
<title>KVTKWindow__vtk_window__frame_color_red</title>
<polygon fill="#f0f0f0" fill-opacity="0.627451" stroke="black" points="325.5,-1802 233.5,-1802 233.5,-1766 325.5,-1766 325.5,-1802"/>
<text text-anchor="middle" x="279.5" y="-1781.5" font-family="sans-serif" font-size="10.00">frame_color_red</text>
</g>
<!-- KVTKWindow__vtk_window&#45;&gt;KVTKWindow__vtk_window__frame_color_red -->
<g id="edge44" class="edge">
<title>KVTKWindow__vtk_window&#45;&gt;KVTKWindow__vtk_window__frame_color_red</title>
<path fill="none" stroke="black" d="M119.13,-1694.44C141.51,-1712.07 177.2,-1738.62 211,-1757 214.82,-1759.08 218.83,-1761.08 222.92,-1763"/>
<polygon fill="black" stroke="black" points="221.22,-1766.08 231.78,-1766.96 224.08,-1759.69 221.22,-1766.08"/>
</g>
<!-- KVTKWindow__vtk_window__frame_size_x -->
<g id="node51" class="node">
<title>KVTKWindow__vtk_window__frame_size_x</title>
<polygon fill="#f0f0f0" fill-opacity="0.627451" stroke="black" points="317.5,-1856 241.5,-1856 241.5,-1820 317.5,-1820 317.5,-1856"/>
<text text-anchor="middle" x="279.5" y="-1835.5" font-family="sans-serif" font-size="10.00">frame_size_x</text>
</g>
<!-- KVTKWindow__vtk_window&#45;&gt;KVTKWindow__vtk_window__frame_size_x -->
<g id="edge45" class="edge">
<title>KVTKWindow__vtk_window&#45;&gt;KVTKWindow__vtk_window__frame_size_x</title>
<path fill="none" stroke="black" d="M107.69,-1694.19C126.03,-1722.68 165.11,-1777.96 211,-1811 217.06,-1815.36 223.92,-1819.15 230.88,-1822.39"/>
<polygon fill="black" stroke="black" points="229.13,-1825.45 239.7,-1826.17 231.88,-1819.01 229.13,-1825.45"/>
</g>
<!-- KVTKWindow__vtk_window__frame_size_y -->
<g id="node52" class="node">
<title>KVTKWindow__vtk_window__frame_size_y</title>
<polygon fill="#f0f0f0" fill-opacity="0.627451" stroke="black" points="317.5,-1910 241.5,-1910 241.5,-1874 317.5,-1874 317.5,-1910"/>
<text text-anchor="middle" x="279.5" y="-1889.5" font-family="sans-serif" font-size="10.00">frame_size_y</text>
</g>
<!-- KVTKWindow__vtk_window&#45;&gt;KVTKWindow__vtk_window__frame_size_y -->
<g id="edge46" class="edge">
<title>KVTKWindow__vtk_window&#45;&gt;KVTKWindow__vtk_window__frame_size_y</title>
<path fill="none" stroke="black" d="M102.97,-1694.27C117,-1731.42 153.65,-1816.37 211,-1865 216.82,-1869.94 223.66,-1874.05 230.71,-1877.45"/>
<polygon fill="black" stroke="black" points="229.13,-1880.58 239.7,-1881.33 231.91,-1874.15 229.13,-1880.58"/>
</g>
<!-- KVTKWindow__vtk_window__frame_title -->
<g id="node53" class="node">
<title>KVTKWindow__vtk_window__frame_title</title>
<polygon fill="#f0f0f0" fill-opacity="0.627451" stroke="black" points="313,-1964 246,-1964 246,-1928 313,-1928 313,-1964"/>
<text text-anchor="middle" x="279.5" y="-1943.5" font-family="sans-serif" font-size="10.00">frame_title</text>
</g>
<!-- KVTKWindow__vtk_window&#45;&gt;KVTKWindow__vtk_window__frame_title -->
<g id="edge47" class="edge">
<title>KVTKWindow__vtk_window&#45;&gt;KVTKWindow__vtk_window__frame_title</title>
<path fill="none" stroke="black" d="M100.25,-1694.26C110.31,-1738.76 141.91,-1853.93 211,-1919 217.86,-1925.46 226.46,-1930.45 235.2,-1934.27"/>
<polygon fill="black" stroke="black" points="233.82,-1937.49 244.41,-1937.84 236.35,-1930.97 233.82,-1937.49"/>
</g>
<!-- KVTKWindow__vtk_window__multi_samples -->
<g id="node54" class="node">
<title>KVTKWindow__vtk_window__multi_samples</title>
<polygon fill="#f0f0f0" fill-opacity="0.627451" stroke="black" points="320.5,-2018 238.5,-2018 238.5,-1982 320.5,-1982 320.5,-2018"/>
<text text-anchor="middle" x="279.5" y="-1997.5" font-family="sans-serif" font-size="10.00">multi_samples</text>
</g>
<!-- KVTKWindow__vtk_window&#45;&gt;KVTKWindow__vtk_window__multi_samples -->
<g id="edge48" class="edge">
<title>KVTKWindow__vtk_window&#45;&gt;KVTKWindow__vtk_window__multi_samples</title>
<path fill="none" stroke="black" d="M98.5,-1694.41C105,-1745.57 130.04,-1891.02 211,-1973 215.89,-1977.95 221.8,-1982.02 228.07,-1985.36"/>
<polygon fill="black" stroke="black" points="226.21,-1988.35 236.75,-1989.39 229.15,-1982 226.21,-1988.35"/>
</g>
<!-- KVTKWindow__vtk_window__name -->
<g id="node55" class="node">
<title>KVTKWindow__vtk_window__name</title>
<polygon fill="#f0f0f0" fill-opacity="0.627451" stroke="black" points="306.5,-2072 252.5,-2072 252.5,-2036 306.5,-2036 306.5,-2072"/>
<text text-anchor="middle" x="279.5" y="-2051.5" font-family="sans-serif" font-size="10.00">name</text>
</g>
<!-- KVTKWindow__vtk_window&#45;&gt;KVTKWindow__vtk_window__name -->
<g id="edge49" class="edge">
<title>KVTKWindow__vtk_window&#45;&gt;KVTKWindow__vtk_window__name</title>
<path fill="none" stroke="black" d="M97.23,-1694.35C100.46,-1751.37 117.88,-1927.6 211,-2027 219.09,-2035.64 230.31,-2041.57 241.28,-2045.62"/>
<polygon fill="black" stroke="black" points="240,-2048.88 250.6,-2048.61 242.14,-2042.22 240,-2048.88"/>
</g>
<!-- KVTKWindow__vtk_window__view_angle -->
<g id="node56" class="node">
<title>KVTKWindow__vtk_window__view_angle</title>
<polygon fill="#f0f0f0" fill-opacity="0.627451" stroke="black" points="313,-2126 246,-2126 246,-2090 313,-2090 313,-2126"/>
<text text-anchor="middle" x="279.5" y="-2105.5" font-family="sans-serif" font-size="10.00">view_angle</text>
</g>
<!-- KVTKWindow__vtk_window&#45;&gt;KVTKWindow__vtk_window__view_angle -->
<g id="edge50" class="edge">
<title>KVTKWindow__vtk_window&#45;&gt;KVTKWindow__vtk_window__view_angle</title>
<path fill="none" stroke="black" d="M96.28,-1694.41C96.53,-1756.98 105.65,-1963.97 211,-2081 217.49,-2088.21 226.18,-2093.53 235.15,-2097.44"/>
<polygon fill="black" stroke="black" points="233.69,-2100.63 244.28,-2100.88 236.16,-2094.08 233.69,-2100.63"/>
</g>
</g>
</svg>
